%TF.GenerationSoftware,KiCad,Pcbnew,8.0.2*%
%TF.CreationDate,2024-05-13T17:43:00+03:00*%
%TF.ProjectId,MobileAdapter,4d6f6269-6c65-4416-9461-707465722e6b,rev?*%
%TF.SameCoordinates,Original*%
%TF.FileFunction,Paste,Top*%
%TF.FilePolarity,Positive*%
%FSLAX46Y46*%
G04 Gerber Fmt 4.6, Leading zero omitted, Abs format (unit mm)*
G04 Created by KiCad (PCBNEW 8.0.2) date 2024-05-13 17:43:00*
%MOMM*%
%LPD*%
G01*
G04 APERTURE LIST*
G04 Aperture macros list*
%AMRoundRect*
0 Rectangle with rounded corners*
0 $1 Rounding radius*
0 $2 $3 $4 $5 $6 $7 $8 $9 X,Y pos of 4 corners*
0 Add a 4 corners polygon primitive as box body*
4,1,4,$2,$3,$4,$5,$6,$7,$8,$9,$2,$3,0*
0 Add four circle primitives for the rounded corners*
1,1,$1+$1,$2,$3*
1,1,$1+$1,$4,$5*
1,1,$1+$1,$6,$7*
1,1,$1+$1,$8,$9*
0 Add four rect primitives between the rounded corners*
20,1,$1+$1,$2,$3,$4,$5,0*
20,1,$1+$1,$4,$5,$6,$7,0*
20,1,$1+$1,$6,$7,$8,$9,0*
20,1,$1+$1,$8,$9,$2,$3,0*%
G04 Aperture macros list end*
%ADD10RoundRect,0.225000X0.250000X-0.225000X0.250000X0.225000X-0.250000X0.225000X-0.250000X-0.225000X0*%
%ADD11RoundRect,0.225000X-0.250000X0.225000X-0.250000X-0.225000X0.250000X-0.225000X0.250000X0.225000X0*%
%ADD12C,0.600000*%
G04 APERTURE END LIST*
D10*
%TO.C,R12*%
X138176000Y-69075000D03*
X138176000Y-70625000D03*
%TD*%
D11*
%TO.C,R1*%
X138176000Y-87135000D03*
X138176000Y-85585000D03*
%TD*%
D12*
%TO.C,micro-PGA1*%
X111125000Y-101600000D03*
X109855000Y-101600000D03*
X108585000Y-102870000D03*
X111125000Y-100330000D03*
X111125000Y-104140000D03*
X109855000Y-99060000D03*
X109855000Y-104140000D03*
X108585000Y-104140000D03*
X108585000Y-101600000D03*
X109855000Y-100330000D03*
X106045000Y-104140000D03*
X107315000Y-104140000D03*
X103505000Y-100330000D03*
X104775000Y-104140000D03*
X104775000Y-100330000D03*
X104775000Y-102870000D03*
X103505000Y-104140000D03*
X100965000Y-100330000D03*
X127635000Y-92710000D03*
X102235000Y-101600000D03*
X102235000Y-104140000D03*
X103505000Y-102870000D03*
X102235000Y-99060000D03*
X102235000Y-100330000D03*
X100965000Y-101600000D03*
X100965000Y-104140000D03*
X99695000Y-101600000D03*
X98425000Y-101600000D03*
X99695000Y-102870000D03*
X100965000Y-102870000D03*
X98425000Y-100330000D03*
X98425000Y-99060000D03*
X99695000Y-100330000D03*
X100965000Y-99060000D03*
X125095000Y-102870000D03*
X123825000Y-104140000D03*
X125095000Y-104140000D03*
X122555000Y-102870000D03*
X112395000Y-101600000D03*
X103505000Y-97790000D03*
X120015000Y-78740000D03*
X117475000Y-100330000D03*
X123825000Y-78740000D03*
X122555000Y-78740000D03*
X121285000Y-78740000D03*
X121285000Y-81280000D03*
X118745000Y-100330000D03*
X100965000Y-97790000D03*
X123825000Y-90170000D03*
X125095000Y-86360000D03*
X114935000Y-102870000D03*
X123825000Y-93980000D03*
X127635000Y-82550000D03*
X102235000Y-92710000D03*
X102235000Y-91440000D03*
X100965000Y-96520000D03*
X100965000Y-95250000D03*
X99695000Y-93980000D03*
X98425000Y-93980000D03*
X100965000Y-92710000D03*
X99695000Y-91440000D03*
X100965000Y-90170000D03*
X99695000Y-88900000D03*
X98425000Y-87630000D03*
X99695000Y-90170000D03*
X103505000Y-90170000D03*
X99695000Y-85090000D03*
X98425000Y-88900000D03*
X102235000Y-88900000D03*
X102235000Y-86360000D03*
X102235000Y-90170000D03*
X99695000Y-87630000D03*
X103505000Y-87630000D03*
X100965000Y-88900000D03*
X98425000Y-81280000D03*
X99695000Y-83820000D03*
X98425000Y-82550000D03*
X100965000Y-83820000D03*
X102235000Y-83820000D03*
X100965000Y-82550000D03*
X99695000Y-81280000D03*
X102235000Y-82550000D03*
X99695000Y-80010000D03*
X98425000Y-80010000D03*
X99695000Y-78740000D03*
X102235000Y-81280000D03*
X100965000Y-78740000D03*
X103505000Y-82550000D03*
X100965000Y-80010000D03*
X104775000Y-81280000D03*
X102235000Y-80010000D03*
X102235000Y-78740000D03*
X107315000Y-82550000D03*
X104775000Y-82550000D03*
X108585000Y-82550000D03*
X104775000Y-78740000D03*
X103505000Y-80010000D03*
X107315000Y-81280000D03*
X103505000Y-78740000D03*
X108585000Y-80010000D03*
X107315000Y-78740000D03*
X111125000Y-82550000D03*
X106045000Y-80010000D03*
X114935000Y-82550000D03*
X106045000Y-78740000D03*
X109855000Y-82550000D03*
X109855000Y-78740000D03*
X112395000Y-82550000D03*
X111125000Y-78740000D03*
X116205000Y-81280000D03*
X109855000Y-81280000D03*
X117475000Y-80010000D03*
X108585000Y-78740000D03*
X111125000Y-80010000D03*
X112395000Y-81280000D03*
X118745000Y-82550000D03*
X116205000Y-82550000D03*
X123825000Y-101600000D03*
X118745000Y-101600000D03*
X120015000Y-80010000D03*
X117475000Y-78740000D03*
X118745000Y-78740000D03*
X116205000Y-78740000D03*
X120015000Y-82550000D03*
X114935000Y-78740000D03*
X114935000Y-80010000D03*
X118745000Y-81280000D03*
X117475000Y-104140000D03*
X123825000Y-85090000D03*
X126365000Y-90170000D03*
X126365000Y-93980000D03*
X116205000Y-102870000D03*
X120015000Y-104140000D03*
X122555000Y-100330000D03*
X127635000Y-93980000D03*
X126365000Y-88900000D03*
X123825000Y-92710000D03*
X125095000Y-82550000D03*
X126365000Y-81280000D03*
X116205000Y-104140000D03*
X106045000Y-102870000D03*
X107315000Y-101600000D03*
X114935000Y-101600000D03*
X112395000Y-100330000D03*
X114935000Y-100330000D03*
X106045000Y-99060000D03*
X107315000Y-99060000D03*
X108585000Y-99060000D03*
X112395000Y-99060000D03*
X123825000Y-99060000D03*
X102235000Y-95250000D03*
X100965000Y-87630000D03*
X102235000Y-87630000D03*
X98425000Y-86360000D03*
X103505000Y-86360000D03*
X127635000Y-86360000D03*
X98425000Y-85090000D03*
X102235000Y-85090000D03*
X98425000Y-83820000D03*
X126365000Y-83820000D03*
X106045000Y-82550000D03*
X123825000Y-81280000D03*
X126365000Y-80010000D03*
X123825000Y-82550000D03*
X125095000Y-78740000D03*
X122555000Y-80010000D03*
X111125000Y-102870000D03*
X112395000Y-102870000D03*
X121285000Y-80010000D03*
X125095000Y-80010000D03*
X120015000Y-99060000D03*
X117475000Y-102870000D03*
X120015000Y-100330000D03*
X120015000Y-102870000D03*
X121285000Y-101600000D03*
X121285000Y-99060000D03*
X98425000Y-97790000D03*
X121285000Y-102870000D03*
X118745000Y-104140000D03*
X123825000Y-102870000D03*
X121285000Y-104140000D03*
X122555000Y-104140000D03*
X125095000Y-81280000D03*
X127635000Y-81280000D03*
X125095000Y-90170000D03*
X125095000Y-92710000D03*
X126365000Y-91440000D03*
X123825000Y-91440000D03*
X127635000Y-88900000D03*
X126365000Y-86360000D03*
X127635000Y-83820000D03*
X122555000Y-99060000D03*
X113665000Y-99060000D03*
X106045000Y-100330000D03*
X107315000Y-100330000D03*
X123825000Y-83820000D03*
X127635000Y-80010000D03*
X123825000Y-86360000D03*
X125095000Y-85090000D03*
X127635000Y-87630000D03*
X118745000Y-102870000D03*
X123825000Y-87630000D03*
X108585000Y-96520000D03*
X111125000Y-96520000D03*
X113665000Y-96520000D03*
X116205000Y-96520000D03*
X118745000Y-96520000D03*
X107315000Y-95250000D03*
X109855000Y-95250000D03*
X112395000Y-95250000D03*
X114935000Y-95250000D03*
X117475000Y-95250000D03*
X108585000Y-93980000D03*
X111125000Y-93980000D03*
X113665000Y-93980000D03*
X116205000Y-93980000D03*
X118745000Y-93980000D03*
X107315000Y-92710000D03*
X109855000Y-92710000D03*
X112395000Y-92710000D03*
X114935000Y-92710000D03*
X117475000Y-92710000D03*
X108585000Y-91440000D03*
X111125000Y-91440000D03*
X113665000Y-91440000D03*
X116205000Y-91440000D03*
X118745000Y-91440000D03*
X107315000Y-90170000D03*
X109855000Y-90170000D03*
X112395000Y-90170000D03*
X114935000Y-90170000D03*
X117475000Y-90170000D03*
X108585000Y-88900000D03*
X111125000Y-88900000D03*
X113665000Y-88900000D03*
X116205000Y-88900000D03*
X118745000Y-88900000D03*
X107315000Y-87630000D03*
X109855000Y-87630000D03*
X112395000Y-87630000D03*
X114935000Y-87630000D03*
X117475000Y-87630000D03*
X108585000Y-86360000D03*
X111125000Y-86360000D03*
X113665000Y-86360000D03*
X116205000Y-86360000D03*
X118745000Y-86360000D03*
X107315000Y-85090000D03*
X109855000Y-85090000D03*
X112395000Y-85090000D03*
X114935000Y-85090000D03*
X117475000Y-85090000D03*
X114935000Y-104140000D03*
X106045000Y-97790000D03*
X107315000Y-97790000D03*
X108585000Y-97790000D03*
X109855000Y-97790000D03*
X111125000Y-97790000D03*
X112395000Y-97790000D03*
X113665000Y-97790000D03*
X114935000Y-97790000D03*
X116205000Y-97790000D03*
X117475000Y-97790000D03*
X118745000Y-97790000D03*
X120015000Y-97790000D03*
X121285000Y-97790000D03*
X122555000Y-97790000D03*
X123825000Y-97790000D03*
X125095000Y-97790000D03*
X126365000Y-97790000D03*
X127635000Y-97790000D03*
X106045000Y-96520000D03*
X120015000Y-96520000D03*
X121285000Y-96520000D03*
X122555000Y-96520000D03*
X123825000Y-96520000D03*
X125095000Y-96520000D03*
X126365000Y-96520000D03*
X127635000Y-96520000D03*
X106045000Y-95250000D03*
X120015000Y-95250000D03*
X121285000Y-95250000D03*
X122555000Y-95250000D03*
X123825000Y-95250000D03*
X125095000Y-95250000D03*
X126365000Y-95250000D03*
X127635000Y-95250000D03*
X106045000Y-93980000D03*
X120015000Y-93980000D03*
X121285000Y-93980000D03*
X106045000Y-92710000D03*
X120015000Y-92710000D03*
X121285000Y-92710000D03*
X106045000Y-91440000D03*
X120015000Y-91440000D03*
X121285000Y-91440000D03*
X106045000Y-90170000D03*
X120015000Y-90170000D03*
X121285000Y-90170000D03*
X106045000Y-88900000D03*
X120015000Y-88900000D03*
X121285000Y-88900000D03*
X106045000Y-87630000D03*
X120015000Y-87630000D03*
X121285000Y-87630000D03*
X106045000Y-86360000D03*
X120015000Y-86360000D03*
X121285000Y-86360000D03*
X106045000Y-85090000D03*
X120015000Y-85090000D03*
X121285000Y-85090000D03*
X106045000Y-83820000D03*
X107315000Y-83820000D03*
X108585000Y-83820000D03*
X109855000Y-83820000D03*
X111125000Y-83820000D03*
X112395000Y-83820000D03*
X113665000Y-83820000D03*
X114935000Y-83820000D03*
X116205000Y-83820000D03*
X117475000Y-83820000D03*
X118745000Y-83820000D03*
X120015000Y-83820000D03*
X121285000Y-83820000D03*
X127635000Y-102870000D03*
X127635000Y-101600000D03*
X127635000Y-100330000D03*
X126365000Y-100330000D03*
X125095000Y-100330000D03*
X103505000Y-99060000D03*
X104775000Y-99060000D03*
X103505000Y-85090000D03*
X103505000Y-83820000D03*
X104775000Y-83820000D03*
X122555000Y-83820000D03*
X122555000Y-82550000D03*
X99695000Y-104140000D03*
X126365000Y-104140000D03*
X127635000Y-104140000D03*
X98425000Y-102870000D03*
X102235000Y-102870000D03*
X107315000Y-102870000D03*
X109855000Y-102870000D03*
X113665000Y-102870000D03*
X126365000Y-102870000D03*
X103505000Y-101600000D03*
X104775000Y-101600000D03*
X106045000Y-101600000D03*
X113665000Y-101600000D03*
X116205000Y-101600000D03*
X117475000Y-101600000D03*
X120015000Y-101600000D03*
X122555000Y-101600000D03*
X125095000Y-101600000D03*
X108585000Y-100330000D03*
X113665000Y-100330000D03*
X116205000Y-100330000D03*
X121285000Y-100330000D03*
X123825000Y-100330000D03*
X99695000Y-99060000D03*
X111125000Y-99060000D03*
X114935000Y-99060000D03*
X116205000Y-99060000D03*
X117475000Y-99060000D03*
X118745000Y-99060000D03*
X125095000Y-99060000D03*
X126365000Y-99060000D03*
X127635000Y-99060000D03*
X99695000Y-97790000D03*
X102235000Y-97790000D03*
X104775000Y-97790000D03*
X98425000Y-96520000D03*
X99695000Y-96520000D03*
X102235000Y-96520000D03*
X103505000Y-96520000D03*
X104775000Y-96520000D03*
X107315000Y-96520000D03*
X109855000Y-96520000D03*
X112395000Y-96520000D03*
X114935000Y-96520000D03*
X117475000Y-96520000D03*
X98425000Y-95250000D03*
X99695000Y-95250000D03*
X103505000Y-95250000D03*
X104775000Y-95250000D03*
X108585000Y-95250000D03*
X111125000Y-95250000D03*
X113665000Y-95250000D03*
X116205000Y-95250000D03*
X118745000Y-95250000D03*
X100965000Y-93980000D03*
X102235000Y-93980000D03*
X103505000Y-93980000D03*
X104775000Y-93980000D03*
X107315000Y-93980000D03*
X109855000Y-93980000D03*
X112395000Y-93980000D03*
X114935000Y-93980000D03*
X117475000Y-93980000D03*
X122555000Y-93980000D03*
X125095000Y-93980000D03*
X99695000Y-92710000D03*
X103505000Y-92710000D03*
X104775000Y-92710000D03*
X108585000Y-92710000D03*
X111125000Y-92710000D03*
X113665000Y-92710000D03*
X116205000Y-92710000D03*
X118745000Y-92710000D03*
X122555000Y-92710000D03*
X126365000Y-92710000D03*
X100965000Y-91440000D03*
X103505000Y-91440000D03*
X104775000Y-91440000D03*
X107315000Y-91440000D03*
X109855000Y-91440000D03*
X112395000Y-91440000D03*
X114935000Y-91440000D03*
X117475000Y-91440000D03*
X122555000Y-91440000D03*
X125095000Y-91440000D03*
X98425000Y-90170000D03*
X104775000Y-90170000D03*
X108585000Y-90170000D03*
X111125000Y-90170000D03*
X113665000Y-90170000D03*
X116205000Y-90170000D03*
X118745000Y-90170000D03*
X122555000Y-90170000D03*
X103505000Y-88900000D03*
X104775000Y-88900000D03*
X107315000Y-88900000D03*
X109855000Y-88900000D03*
X112395000Y-88900000D03*
X114935000Y-88900000D03*
X117475000Y-88900000D03*
X122555000Y-88900000D03*
X123825000Y-88900000D03*
X125095000Y-88900000D03*
X104775000Y-87630000D03*
X108585000Y-87630000D03*
X111125000Y-87630000D03*
X113665000Y-87630000D03*
X116205000Y-87630000D03*
X118745000Y-87630000D03*
X122555000Y-87630000D03*
X125095000Y-87630000D03*
X126365000Y-87630000D03*
X99695000Y-86360000D03*
X100965000Y-86360000D03*
X104775000Y-86360000D03*
X107315000Y-86360000D03*
X109855000Y-86360000D03*
X112395000Y-86360000D03*
X114935000Y-86360000D03*
X117475000Y-86360000D03*
X122555000Y-86360000D03*
X100965000Y-85090000D03*
X104775000Y-85090000D03*
X108585000Y-85090000D03*
X111125000Y-85090000D03*
X113665000Y-85090000D03*
X116205000Y-85090000D03*
X118745000Y-85090000D03*
X122555000Y-85090000D03*
X126365000Y-85090000D03*
X127635000Y-85090000D03*
X125095000Y-83820000D03*
X99695000Y-82550000D03*
X113665000Y-82550000D03*
X117475000Y-82550000D03*
X121285000Y-82550000D03*
X126365000Y-82550000D03*
X100965000Y-81280000D03*
X103505000Y-81280000D03*
X106045000Y-81280000D03*
X108585000Y-81280000D03*
X111125000Y-81280000D03*
X113665000Y-81280000D03*
X114935000Y-81280000D03*
X117475000Y-81280000D03*
X120015000Y-81280000D03*
X122555000Y-81280000D03*
X104775000Y-80010000D03*
X107315000Y-80010000D03*
X109855000Y-80010000D03*
X112395000Y-80010000D03*
X113665000Y-80010000D03*
X116205000Y-80010000D03*
X118745000Y-80010000D03*
X123825000Y-80010000D03*
X98425000Y-78740000D03*
X126365000Y-78740000D03*
X127635000Y-78740000D03*
%TD*%
M02*
