M48
; DRILL file {KiCad 8.0.2} date 2024-05-13T17:42:59+0300
; FORMAT={-:-/ absolute / inch / decimal}
; #@! TF.CreationDate,2024-05-13T17:42:59+03:00
; #@! TF.GenerationSoftware,Kicad,Pcbnew,8.0.2
; #@! TF.FileFunction,Plated,1,4,PTH
FMAT,2
INCH
; #@! TA.AperFunction,Plated,PTH,ViaDrill
T1C0.0118
; #@! TA.AperFunction,Plated,PTH,ComponentDrill
T2C0.0256
%
G90
G05
T1
X3.55Y-3.75
X3.8Y-3.411
X3.8Y-4.0
X3.8283Y-3.2154
X3.8319Y-3.9227
X3.8335Y-3.8
X3.85Y-3.975
X3.8528Y-3.0972
X3.875Y-3.55
X3.875Y-3.65
X3.9Y-3.225
X3.9Y-3.775
X3.9Y-3.875
X3.9Y-3.975
X3.9Y-4.075
X3.9471Y-3.4764
X3.95Y-3.175
X3.95Y-3.275
X3.95Y-3.525
X3.95Y-3.775
X3.95Y-3.8222
X3.95Y-3.875
X3.95Y-3.975
X3.95Y-3.1308
X3.9935Y-4.1953
X3.9997Y-3.3288
X4.0Y-3.125
X4.0Y-3.425
X4.0Y-3.475
X4.0Y-3.525
X4.0Y-3.625
X4.0Y-3.725
X4.0Y-3.825
X4.0Y-3.875
X4.0Y-3.975
X4.0Y-4.075
X4.0Y-3.1692
X4.0Y-3.2734
X4.0045Y-3.375
X4.0097Y-4.1347
X4.0497Y-3.2688
X4.05Y-3.375
X4.05Y-3.525
X4.05Y-3.575
X4.05Y-3.625
X4.05Y-3.825
X4.05Y-3.925
X4.05Y-3.975
X4.05Y-4.025
X4.05Y-4.075
X4.075Y-3.2
X4.0847Y-4.1347
X4.1Y-3.175
X4.1Y-3.225
X4.1Y-3.2734
X4.1Y-3.325
X4.1Y-3.525
X4.1Y-3.625
X4.1Y-3.725
X4.1Y-3.825
X4.1Y-3.875
X4.1Y-3.925
X4.1Y-4.025
X4.1472Y-4.1722
X4.15Y-3.175
X4.15Y-3.225
X4.15Y-3.9705
X4.15Y-4.025
X4.175Y-3.05
X4.2Y-3.225
X4.2Y-3.4764
X4.2Y-3.525
X4.2335Y-4.1499
X4.25Y-3.175
X4.25Y-3.225
X4.25Y-3.375
X4.25Y-3.625
X4.25Y-3.675
X4.25Y-3.725
X4.25Y-3.775
X4.25Y-3.925
X4.3Y-3.125
X4.3Y-3.625
X4.3Y-3.675
X4.3Y-3.725
X4.3Y-3.775
X4.3Y-3.925
X4.3Y-3.975
X4.3Y-4.075
X4.3027Y-3.2223
X4.325Y-3.075
X4.35Y-3.225
X4.35Y-3.625
X4.35Y-3.675
X4.35Y-3.725
X4.35Y-3.775
X4.35Y-3.925
X4.35Y-3.975
X4.35Y-4.025
X4.35Y-4.075
X4.3945Y-3.125
X4.4Y-3.225
X4.4Y-3.325
X4.4Y-3.375
X4.4Y-3.425
X4.4Y-3.475
X4.4Y-3.525
X4.4Y-3.575
X4.4Y-3.625
X4.4Y-3.675
X4.4Y-3.725
X4.4Y-3.775
X4.4Y-3.825
X4.4Y-3.925
X4.4Y-3.975
X4.4262Y-3.1185
X4.45Y-3.225
X4.45Y-3.625
X4.45Y-3.675
X4.45Y-3.725
X4.45Y-3.775
X4.45Y-3.925
X4.45Y-3.975
X4.45Y-4.025
X4.5Y-3.175
X4.5Y-3.225
X4.5Y-3.375
X4.5Y-3.475
X4.5Y-3.525
X4.5Y-3.625
X4.5Y-3.675
X4.5Y-3.725
X4.5Y-3.775
X4.5Y-4.025
X4.55Y-3.2192
X4.55Y-3.175
X4.55Y-3.625
X4.55Y-3.675
X4.55Y-3.725
X4.55Y-3.775
X4.55Y-3.925
X4.55Y-4.025
X4.5783Y-3.0625
X4.6Y-3.225
X4.6Y-3.375
X4.6Y-3.425
X4.6Y-3.475
X4.6Y-3.575
X4.6Y-3.625
X4.6Y-3.675
X4.6Y-3.725
X4.6Y-3.775
X4.6Y-3.975
X4.6044Y-3.3333
X4.6283Y-3.0625
X4.65Y-3.225
X4.65Y-3.625
X4.65Y-3.675
X4.65Y-3.725
X4.65Y-3.775
X4.65Y-3.925
X4.65Y-3.975
X4.6835Y-3.0552
X4.7Y-3.125
X4.7Y-3.225
X4.7Y-3.925
X4.7Y-4.025
X4.7273Y-3.0033
X4.7283Y-3.075
X4.75Y-3.225
X4.75Y-3.525
X4.75Y-3.575
X4.75Y-3.925
X4.75Y-3.975
X4.75Y-4.025
X4.775Y-3.3
X4.775Y-3.4
X4.7994Y-3.675
X4.8Y-3.575
X4.8Y-3.625
X4.8Y-3.775
X4.8Y-3.925
X4.8Y-3.975
X4.8Y-4.025
X4.8032Y-3.1773
X4.8075Y-3.4825
X4.8222Y-4.1778
X4.85Y-3.225
X4.85Y-3.275
X4.85Y-3.925
X4.85Y-4.025
X4.85Y-4.075
X4.8502Y-3.6304
X4.8506Y-3.6796
X4.8548Y-3.5754
X4.8717Y-4.1424
X4.8973Y-3.3777
X4.8994Y-3.4744
X4.9Y-3.125
X4.9Y-3.225
X4.9Y-3.6776
X4.9003Y-3.7205
X4.95Y-3.225
X4.95Y-3.375
X4.95Y-3.525
X4.95Y-3.575
X4.95Y-4.35
X4.9717Y-4.1687
X4.975Y-4.2
X5.0Y-3.075
X5.0Y-3.425
X5.0Y-3.475
X5.0Y-3.9256
X5.0483Y-3.6559
X5.05Y-2.7596
X5.0547Y-3.2002
X5.0551Y-3.5543
X5.0565Y-3.5049
X5.06Y-3.3031
X5.0616Y-3.6149
X5.0636Y-4.01
X5.0804Y-4.211
X5.1Y-3.2983
X5.1519Y-3.6589
X5.1591Y-3.7482
X5.3699Y-3.4647
X5.3727Y-3.3653
X5.4275Y-3.3025
T2
X3.55Y-2.8
X3.55Y-2.9
X3.55Y-3.0
X3.55Y-3.1
X3.55Y-3.2
X3.55Y-3.3
X3.55Y-3.4
X3.55Y-3.5
X3.55Y-3.6
X3.55Y-3.7
X3.55Y-3.8
X3.55Y-3.9
X3.55Y-4.0
X3.55Y-4.1
X3.55Y-4.2
X3.55Y-4.3
X3.55Y-4.4
X3.6Y-2.75
X3.6Y-2.85
X3.6Y-2.95
X3.6Y-3.05
X3.6Y-3.15
X3.6Y-3.25
X3.6Y-3.35
X3.6Y-3.45
X3.6Y-3.55
X3.6Y-3.65
X3.6Y-3.75
X3.6Y-3.85
X3.6Y-3.95
X3.6Y-4.05
X3.6Y-4.15
X3.6Y-4.25
X3.6Y-4.35
X3.6Y-4.45
X3.65Y-2.7
X3.65Y-2.8
X3.65Y-2.9
X3.65Y-3.0
X3.65Y-3.1
X3.65Y-3.2
X3.65Y-3.3
X3.65Y-3.4
X3.65Y-3.5
X3.65Y-3.6
X3.65Y-3.7
X3.65Y-3.8
X3.65Y-3.9
X3.65Y-4.0
X3.65Y-4.1
X3.65Y-4.2
X3.65Y-4.3
X3.65Y-4.4
X3.65Y-4.5
X3.7Y-2.75
X3.7Y-2.85
X3.7Y-2.95
X3.7Y-3.05
X3.7Y-3.15
X3.7Y-3.25
X3.7Y-3.35
X3.7Y-3.45
X3.7Y-3.55
X3.7Y-3.65
X3.7Y-3.75
X3.7Y-3.85
X3.7Y-3.95
X3.7Y-4.05
X3.7Y-4.15
X3.7Y-4.25
X3.7Y-4.35
X3.7Y-4.45
X3.75Y-2.7
X3.75Y-2.8
X3.75Y-2.9
X3.75Y-3.0
X3.75Y-3.1
X3.75Y-3.2
X3.75Y-3.3
X3.75Y-3.4
X3.75Y-3.5
X3.75Y-3.6
X3.75Y-3.7
X3.75Y-3.8
X3.75Y-3.9
X3.75Y-4.0
X3.75Y-4.1
X3.75Y-4.2
X3.75Y-4.3
X3.75Y-4.4
X3.75Y-4.5
X3.8Y-2.75
X3.8Y-2.85
X3.8Y-2.95
X3.8Y-3.05
X3.8Y-3.15
X3.8Y-3.25
X3.8Y-3.35
X3.8Y-3.45
X3.8Y-3.55
X3.8Y-3.65
X3.8Y-3.75
X3.8Y-3.85
X3.8Y-3.95
X3.8Y-4.05
X3.8Y-4.15
X3.8Y-4.25
X3.8Y-4.35
X3.8Y-4.45
X3.85Y-2.7
X3.85Y-2.8
X3.85Y-2.9
X3.85Y-4.3
X3.85Y-4.4
X3.85Y-4.5
X3.9Y-2.75
X3.9Y-2.85
X3.9Y-2.95
X3.9Y-4.25
X3.9Y-4.35
X3.9Y-4.45
X3.95Y-2.7
X3.95Y-2.8
X3.95Y-2.9
X3.95Y-4.3
X3.95Y-4.4
X3.95Y-4.5
X4.0Y-2.75
X4.0Y-2.85
X4.0Y-2.95
X4.0Y-4.25
X4.0Y-4.35
X4.0Y-4.45
X4.05Y-2.7
X4.05Y-2.8
X4.05Y-2.9
X4.05Y-4.3
X4.05Y-4.4
X4.05Y-4.5
X4.1Y-2.75
X4.1Y-2.85
X4.1Y-2.95
X4.1Y-4.25
X4.1Y-4.35
X4.1Y-4.45
X4.15Y-2.7
X4.15Y-2.8
X4.15Y-2.9
X4.15Y-4.3
X4.15Y-4.4
X4.15Y-4.5
X4.2Y-2.75
X4.2Y-2.85
X4.2Y-2.95
X4.2Y-4.25
X4.2Y-4.35
X4.2Y-4.45
X4.25Y-2.7
X4.25Y-2.8
X4.25Y-2.9
X4.25Y-4.3
X4.25Y-4.4
X4.25Y-4.5
X4.3Y-2.75
X4.3Y-2.85
X4.3Y-2.95
X4.3Y-4.25
X4.3Y-4.35
X4.3Y-4.45
X4.35Y-2.7
X4.35Y-2.8
X4.35Y-2.9
X4.35Y-4.3
X4.35Y-4.4
X4.35Y-4.5
X4.4Y-2.75
X4.4Y-2.85
X4.4Y-2.95
X4.4Y-4.25
X4.4Y-4.35
X4.4Y-4.45
X4.45Y-2.7
X4.45Y-2.8
X4.45Y-2.9
X4.45Y-4.3
X4.45Y-4.4
X4.45Y-4.5
X4.5Y-2.75
X4.5Y-2.85
X4.5Y-2.95
X4.5Y-4.25
X4.5Y-4.35
X4.5Y-4.45
X4.55Y-2.7
X4.55Y-2.8
X4.55Y-2.9
X4.55Y-4.3
X4.55Y-4.4
X4.55Y-4.5
X4.6Y-2.75
X4.6Y-2.85
X4.6Y-2.95
X4.6Y-4.25
X4.6Y-4.35
X4.6Y-4.45
X4.65Y-2.7
X4.65Y-2.8
X4.65Y-2.9
X4.65Y-4.3
X4.65Y-4.4
X4.65Y-4.5
X4.7Y-2.75
X4.7Y-2.85
X4.7Y-2.95
X4.7Y-4.25
X4.7Y-4.35
X4.7Y-4.45
X4.75Y-2.7
X4.75Y-2.8
X4.75Y-2.9
X4.75Y-4.3
X4.75Y-4.4
X4.75Y-4.5
X4.8Y-2.75
X4.8Y-2.85
X4.8Y-2.95
X4.8Y-4.25
X4.8Y-4.35
X4.8Y-4.45
X4.85Y-2.7
X4.85Y-2.8
X4.85Y-2.9
X4.85Y-4.3
X4.85Y-4.4
X4.85Y-4.5
X4.9Y-2.75
X4.9Y-2.85
X4.9Y-2.95
X4.9Y-4.25
X4.9Y-4.35
X4.9Y-4.45
X4.95Y-2.7
X4.95Y-2.8
X4.95Y-2.9
X4.95Y-4.3
X4.95Y-4.4
X4.95Y-4.5
X5.0Y-2.75
X5.0Y-2.85
X5.0Y-2.95
X5.0Y-4.25
X5.0Y-4.35
X5.0Y-4.45
X5.05Y-2.7
X5.05Y-2.8
X5.05Y-2.9
X5.05Y-4.3
X5.05Y-4.4
X5.05Y-4.5
X5.1Y-2.75
X5.1Y-2.85
X5.1Y-2.95
X5.1Y-3.05
X5.1Y-3.15
X5.1Y-3.25
X5.1Y-3.35
X5.1Y-3.45
X5.1Y-3.55
X5.1Y-3.65
X5.1Y-3.75
X5.1Y-3.85
X5.1Y-3.95
X5.1Y-4.05
X5.1Y-4.15
X5.1Y-4.25
X5.1Y-4.35
X5.1Y-4.45
X5.15Y-2.7
X5.15Y-2.8
X5.15Y-2.9
X5.15Y-3.0
X5.15Y-3.1
X5.15Y-3.2
X5.15Y-3.3
X5.15Y-3.4
X5.15Y-3.5
X5.15Y-3.6
X5.15Y-3.7
X5.15Y-3.8
X5.15Y-3.9
X5.15Y-4.0
X5.15Y-4.1
X5.15Y-4.2
X5.15Y-4.3
X5.15Y-4.4
X5.15Y-4.5
X5.2Y-2.75
X5.2Y-2.85
X5.2Y-2.95
X5.2Y-3.05
X5.2Y-3.15
X5.2Y-3.25
X5.2Y-3.35
X5.2Y-3.45
X5.2Y-3.55
X5.2Y-3.65
X5.2Y-3.75
X5.2Y-3.85
X5.2Y-3.95
X5.2Y-4.05
X5.2Y-4.15
X5.2Y-4.25
X5.2Y-4.35
X5.2Y-4.45
X5.25Y-2.7
X5.25Y-2.8
X5.25Y-2.9
X5.25Y-3.0
X5.25Y-3.1
X5.25Y-3.2
X5.25Y-3.3
X5.25Y-3.4
X5.25Y-3.5
X5.25Y-3.6
X5.25Y-3.7
X5.25Y-3.8
X5.25Y-3.9
X5.25Y-4.0
X5.25Y-4.1
X5.25Y-4.2
X5.25Y-4.3
X5.25Y-4.4
X5.25Y-4.5
X5.3Y-2.75
X5.3Y-2.85
X5.3Y-2.95
X5.3Y-3.05
X5.3Y-3.15
X5.3Y-3.25
X5.3Y-3.35
X5.3Y-3.45
X5.3Y-3.55
X5.3Y-3.65
X5.3Y-3.75
X5.3Y-3.85
X5.3Y-3.95
X5.3Y-4.05
X5.3Y-4.15
X5.3Y-4.25
X5.3Y-4.35
X5.3Y-4.45
X5.35Y-2.7
X5.35Y-2.8
X5.35Y-2.9
X5.35Y-3.0
X5.35Y-3.1
X5.35Y-3.2
X5.35Y-3.3
X5.35Y-3.4
X5.35Y-3.5
X5.35Y-3.6
X5.35Y-3.7
X5.35Y-3.8
X5.35Y-3.9
X5.35Y-4.0
X5.35Y-4.1
X5.35Y-4.2
X5.35Y-4.3
X5.35Y-4.4
X5.35Y-4.5
X5.45Y-3.95
X5.45Y-4.0
X5.45Y-4.05
X5.45Y-4.1
X5.45Y-4.15
X5.45Y-4.2
X5.45Y-4.25
X5.45Y-4.3
X5.45Y-4.35
X5.45Y-4.4
X5.45Y-4.45
X5.45Y-4.5
M30
