%TF.GenerationSoftware,KiCad,Pcbnew,8.0.2*%
%TF.CreationDate,2024-05-13T17:43:01+03:00*%
%TF.ProjectId,MobileAdapter,4d6f6269-6c65-4416-9461-707465722e6b,rev?*%
%TF.SameCoordinates,Original*%
%TF.FileFunction,Legend,Bot*%
%TF.FilePolarity,Positive*%
%FSLAX46Y46*%
G04 Gerber Fmt 4.6, Leading zero omitted, Abs format (unit mm)*
G04 Created by KiCad (PCBNEW 8.0.2) date 2024-05-13 17:43:01*
%MOMM*%
%LPD*%
G01*
G04 APERTURE LIST*
%ADD10C,0.200000*%
%ADD11C,0.150000*%
%ADD12C,0.120000*%
G04 APERTURE END LIST*
D10*
X88900000Y-69850000D02*
X88900000Y-67310000D01*
X91440000Y-67310000D01*
X88900000Y-69850000D01*
G36*
X88900000Y-69850000D02*
G01*
X88900000Y-67310000D01*
X91440000Y-67310000D01*
X88900000Y-69850000D01*
G37*
D11*
X125516819Y-79623267D02*
X125040628Y-79289934D01*
X125516819Y-79051839D02*
X124516819Y-79051839D01*
X124516819Y-79051839D02*
X124516819Y-79432791D01*
X124516819Y-79432791D02*
X124564438Y-79528029D01*
X124564438Y-79528029D02*
X124612057Y-79575648D01*
X124612057Y-79575648D02*
X124707295Y-79623267D01*
X124707295Y-79623267D02*
X124850152Y-79623267D01*
X124850152Y-79623267D02*
X124945390Y-79575648D01*
X124945390Y-79575648D02*
X124993009Y-79528029D01*
X124993009Y-79528029D02*
X125040628Y-79432791D01*
X125040628Y-79432791D02*
X125040628Y-79051839D01*
X124612057Y-80004220D02*
X124564438Y-80051839D01*
X124564438Y-80051839D02*
X124516819Y-80147077D01*
X124516819Y-80147077D02*
X124516819Y-80385172D01*
X124516819Y-80385172D02*
X124564438Y-80480410D01*
X124564438Y-80480410D02*
X124612057Y-80528029D01*
X124612057Y-80528029D02*
X124707295Y-80575648D01*
X124707295Y-80575648D02*
X124802533Y-80575648D01*
X124802533Y-80575648D02*
X124945390Y-80528029D01*
X124945390Y-80528029D02*
X125516819Y-79956601D01*
X125516819Y-79956601D02*
X125516819Y-80575648D01*
X124893666Y-82209819D02*
X125226999Y-81733628D01*
X125465094Y-82209819D02*
X125465094Y-81209819D01*
X125465094Y-81209819D02*
X125084142Y-81209819D01*
X125084142Y-81209819D02*
X124988904Y-81257438D01*
X124988904Y-81257438D02*
X124941285Y-81305057D01*
X124941285Y-81305057D02*
X124893666Y-81400295D01*
X124893666Y-81400295D02*
X124893666Y-81543152D01*
X124893666Y-81543152D02*
X124941285Y-81638390D01*
X124941285Y-81638390D02*
X124988904Y-81686009D01*
X124988904Y-81686009D02*
X125084142Y-81733628D01*
X125084142Y-81733628D02*
X125465094Y-81733628D01*
X124560332Y-81209819D02*
X123893666Y-81209819D01*
X123893666Y-81209819D02*
X124322237Y-82209819D01*
X124754819Y-87323333D02*
X124278628Y-86990000D01*
X124754819Y-86751905D02*
X123754819Y-86751905D01*
X123754819Y-86751905D02*
X123754819Y-87132857D01*
X123754819Y-87132857D02*
X123802438Y-87228095D01*
X123802438Y-87228095D02*
X123850057Y-87275714D01*
X123850057Y-87275714D02*
X123945295Y-87323333D01*
X123945295Y-87323333D02*
X124088152Y-87323333D01*
X124088152Y-87323333D02*
X124183390Y-87275714D01*
X124183390Y-87275714D02*
X124231009Y-87228095D01*
X124231009Y-87228095D02*
X124278628Y-87132857D01*
X124278628Y-87132857D02*
X124278628Y-86751905D01*
X123754819Y-88180476D02*
X123754819Y-87990000D01*
X123754819Y-87990000D02*
X123802438Y-87894762D01*
X123802438Y-87894762D02*
X123850057Y-87847143D01*
X123850057Y-87847143D02*
X123992914Y-87751905D01*
X123992914Y-87751905D02*
X124183390Y-87704286D01*
X124183390Y-87704286D02*
X124564342Y-87704286D01*
X124564342Y-87704286D02*
X124659580Y-87751905D01*
X124659580Y-87751905D02*
X124707200Y-87799524D01*
X124707200Y-87799524D02*
X124754819Y-87894762D01*
X124754819Y-87894762D02*
X124754819Y-88085238D01*
X124754819Y-88085238D02*
X124707200Y-88180476D01*
X124707200Y-88180476D02*
X124659580Y-88228095D01*
X124659580Y-88228095D02*
X124564342Y-88275714D01*
X124564342Y-88275714D02*
X124326247Y-88275714D01*
X124326247Y-88275714D02*
X124231009Y-88228095D01*
X124231009Y-88228095D02*
X124183390Y-88180476D01*
X124183390Y-88180476D02*
X124135771Y-88085238D01*
X124135771Y-88085238D02*
X124135771Y-87894762D01*
X124135771Y-87894762D02*
X124183390Y-87799524D01*
X124183390Y-87799524D02*
X124231009Y-87751905D01*
X124231009Y-87751905D02*
X124326247Y-87704286D01*
X125680719Y-90564505D02*
X125204528Y-90231172D01*
X125680719Y-89993077D02*
X124680719Y-89993077D01*
X124680719Y-89993077D02*
X124680719Y-90374029D01*
X124680719Y-90374029D02*
X124728338Y-90469267D01*
X124728338Y-90469267D02*
X124775957Y-90516886D01*
X124775957Y-90516886D02*
X124871195Y-90564505D01*
X124871195Y-90564505D02*
X125014052Y-90564505D01*
X125014052Y-90564505D02*
X125109290Y-90516886D01*
X125109290Y-90516886D02*
X125156909Y-90469267D01*
X125156909Y-90469267D02*
X125204528Y-90374029D01*
X125204528Y-90374029D02*
X125204528Y-89993077D01*
X124680719Y-91469267D02*
X124680719Y-90993077D01*
X124680719Y-90993077D02*
X125156909Y-90945458D01*
X125156909Y-90945458D02*
X125109290Y-90993077D01*
X125109290Y-90993077D02*
X125061671Y-91088315D01*
X125061671Y-91088315D02*
X125061671Y-91326410D01*
X125061671Y-91326410D02*
X125109290Y-91421648D01*
X125109290Y-91421648D02*
X125156909Y-91469267D01*
X125156909Y-91469267D02*
X125252147Y-91516886D01*
X125252147Y-91516886D02*
X125490242Y-91516886D01*
X125490242Y-91516886D02*
X125585480Y-91469267D01*
X125585480Y-91469267D02*
X125633100Y-91421648D01*
X125633100Y-91421648D02*
X125680719Y-91326410D01*
X125680719Y-91326410D02*
X125680719Y-91088315D01*
X125680719Y-91088315D02*
X125633100Y-90993077D01*
X125633100Y-90993077D02*
X125585480Y-90945458D01*
X121311666Y-100149819D02*
X121644999Y-99673628D01*
X121883094Y-100149819D02*
X121883094Y-99149819D01*
X121883094Y-99149819D02*
X121502142Y-99149819D01*
X121502142Y-99149819D02*
X121406904Y-99197438D01*
X121406904Y-99197438D02*
X121359285Y-99245057D01*
X121359285Y-99245057D02*
X121311666Y-99340295D01*
X121311666Y-99340295D02*
X121311666Y-99483152D01*
X121311666Y-99483152D02*
X121359285Y-99578390D01*
X121359285Y-99578390D02*
X121406904Y-99626009D01*
X121406904Y-99626009D02*
X121502142Y-99673628D01*
X121502142Y-99673628D02*
X121883094Y-99673628D01*
X120454523Y-99483152D02*
X120454523Y-100149819D01*
X120692618Y-99102200D02*
X120930713Y-99816485D01*
X120930713Y-99816485D02*
X120311666Y-99816485D01*
X114466666Y-100149819D02*
X114799999Y-99673628D01*
X115038094Y-100149819D02*
X115038094Y-99149819D01*
X115038094Y-99149819D02*
X114657142Y-99149819D01*
X114657142Y-99149819D02*
X114561904Y-99197438D01*
X114561904Y-99197438D02*
X114514285Y-99245057D01*
X114514285Y-99245057D02*
X114466666Y-99340295D01*
X114466666Y-99340295D02*
X114466666Y-99483152D01*
X114466666Y-99483152D02*
X114514285Y-99578390D01*
X114514285Y-99578390D02*
X114561904Y-99626009D01*
X114561904Y-99626009D02*
X114657142Y-99673628D01*
X114657142Y-99673628D02*
X115038094Y-99673628D01*
X114133332Y-99149819D02*
X113514285Y-99149819D01*
X113514285Y-99149819D02*
X113847618Y-99530771D01*
X113847618Y-99530771D02*
X113704761Y-99530771D01*
X113704761Y-99530771D02*
X113609523Y-99578390D01*
X113609523Y-99578390D02*
X113561904Y-99626009D01*
X113561904Y-99626009D02*
X113514285Y-99721247D01*
X113514285Y-99721247D02*
X113514285Y-99959342D01*
X113514285Y-99959342D02*
X113561904Y-100054580D01*
X113561904Y-100054580D02*
X113609523Y-100102200D01*
X113609523Y-100102200D02*
X113704761Y-100149819D01*
X113704761Y-100149819D02*
X113990475Y-100149819D01*
X113990475Y-100149819D02*
X114085713Y-100102200D01*
X114085713Y-100102200D02*
X114133332Y-100054580D01*
X89934286Y-114234300D02*
X89977143Y-114277157D01*
X89977143Y-114277157D02*
X90062857Y-114320014D01*
X90062857Y-114320014D02*
X90234286Y-114234300D01*
X90234286Y-114234300D02*
X90320000Y-114277157D01*
X90320000Y-114277157D02*
X90362857Y-114320014D01*
D12*
%TO.C,C22*%
X118792420Y-86612000D02*
X119073580Y-86612000D01*
X118792420Y-86612000D02*
X119073580Y-86612000D01*
X118792420Y-87632000D02*
X119073580Y-87632000D01*
X118792420Y-87632000D02*
X119073580Y-87632000D01*
%TO.C,R10*%
X121806580Y-87886000D02*
X121525420Y-87886000D01*
X121806580Y-86866000D02*
X121525420Y-86866000D01*
%TO.C,C23*%
X118797420Y-84834000D02*
X119078580Y-84834000D01*
X118797420Y-84834000D02*
X119078580Y-84834000D01*
X118797420Y-85854000D02*
X119078580Y-85854000D01*
X118797420Y-85854000D02*
X119078580Y-85854000D01*
%TO.C,R9*%
X121933580Y-85600000D02*
X121652420Y-85600000D01*
X121933580Y-84580000D02*
X121652420Y-84580000D01*
%TO.C,R25*%
X106666420Y-90676000D02*
X106947580Y-90676000D01*
X106666420Y-90676000D02*
X106947580Y-90676000D01*
X106666420Y-91696000D02*
X106947580Y-91696000D01*
X106666420Y-91696000D02*
X106947580Y-91696000D01*
%TO.C,R24*%
X106666420Y-89406000D02*
X106947580Y-89406000D01*
X106666420Y-89406000D02*
X106947580Y-89406000D01*
X106666420Y-90426000D02*
X106947580Y-90426000D01*
X106666420Y-90426000D02*
X106947580Y-90426000D01*
%TO.C,R27*%
X106679420Y-83183000D02*
X106960580Y-83183000D01*
X106679420Y-83183000D02*
X106960580Y-83183000D01*
X106679420Y-84203000D02*
X106960580Y-84203000D01*
X106679420Y-84203000D02*
X106960580Y-84203000D01*
%TO.C,R14*%
X105783748Y-84482000D02*
X106306252Y-84482000D01*
X105783748Y-85952000D02*
X106306252Y-85952000D01*
%TO.C,C15*%
X105783748Y-87730000D02*
X106306252Y-87730000D01*
X105783748Y-86260000D02*
X106306252Y-86260000D01*
%TO.C,C19*%
X114292748Y-89943000D02*
X114815252Y-89943000D01*
X114292748Y-91413000D02*
X114815252Y-91413000D01*
%TO.C,C18*%
X114292748Y-88165000D02*
X114815252Y-88165000D01*
X114292748Y-89635000D02*
X114815252Y-89635000D01*
%TO.C,C17*%
X114231748Y-86387000D02*
X114754252Y-86387000D01*
X114231748Y-87857000D02*
X114754252Y-87857000D01*
%TO.C,C16*%
X114226748Y-84609000D02*
X114749252Y-84609000D01*
X114226748Y-86079000D02*
X114749252Y-86079000D01*
%TO.C,C13*%
X109554748Y-90197000D02*
X110077252Y-90197000D01*
X109554748Y-91667000D02*
X110077252Y-91667000D01*
%TO.C,C12*%
X109527748Y-88546000D02*
X110050252Y-88546000D01*
X109527748Y-90016000D02*
X110050252Y-90016000D01*
%TO.C,C11*%
X109527748Y-88365000D02*
X110050252Y-88365000D01*
X109527748Y-86895000D02*
X110050252Y-86895000D01*
%TO.C,C10*%
X109532748Y-86714000D02*
X110055252Y-86714000D01*
X109532748Y-85244000D02*
X110055252Y-85244000D01*
%TO.C,C9*%
X109532748Y-85063000D02*
X110055252Y-85063000D01*
X109532748Y-83593000D02*
X110055252Y-83593000D01*
%TO.C,C21*%
X118610748Y-88165000D02*
X119133252Y-88165000D01*
X118610748Y-89635000D02*
X119133252Y-89635000D01*
%TO.C,C20*%
X118610748Y-89943000D02*
X119133252Y-89943000D01*
X118610748Y-91413000D02*
X119133252Y-91413000D01*
%TO.C,R2*%
X125982000Y-79930514D02*
X125982000Y-79649354D01*
X127002000Y-79930514D02*
X127002000Y-79649354D01*
%TO.C,R7*%
X124586420Y-83695000D02*
X124867580Y-83695000D01*
X124586420Y-82675000D02*
X124867580Y-82675000D01*
%TO.C,R6*%
X125220000Y-87630580D02*
X125220000Y-87349420D01*
X126240000Y-87630580D02*
X126240000Y-87349420D01*
%TO.C,R5*%
X126145900Y-90871752D02*
X126145900Y-90590592D01*
X127165900Y-90871752D02*
X127165900Y-90590592D01*
%TO.C,R4*%
X121285580Y-98935000D02*
X121004420Y-98935000D01*
X121285580Y-97915000D02*
X121004420Y-97915000D01*
%TO.C,R3*%
X114159420Y-97915000D02*
X114440580Y-97915000D01*
X114159420Y-98935000D02*
X114440580Y-98935000D01*
%TO.C,R8*%
X119861420Y-91819000D02*
X120142580Y-91819000D01*
X119861420Y-92839000D02*
X120142580Y-92839000D01*
%TO.C,R11*%
X127510000Y-83171420D02*
X127510000Y-83452580D01*
X126490000Y-83171420D02*
X126490000Y-83452580D01*
%TD*%
M02*
