%TF.GenerationSoftware,KiCad,Pcbnew,8.0.2*%
%TF.CreationDate,2024-05-13T17:43:01+03:00*%
%TF.ProjectId,MobileAdapter,4d6f6269-6c65-4416-9461-707465722e6b,rev?*%
%TF.SameCoordinates,Original*%
%TF.FileFunction,Paste,Bot*%
%TF.FilePolarity,Positive*%
%FSLAX46Y46*%
G04 Gerber Fmt 4.6, Leading zero omitted, Abs format (unit mm)*
G04 Created by KiCad (PCBNEW 8.0.2) date 2024-05-13 17:43:01*
%MOMM*%
%LPD*%
G01*
G04 APERTURE LIST*
G04 Aperture macros list*
%AMRoundRect*
0 Rectangle with rounded corners*
0 $1 Rounding radius*
0 $2 $3 $4 $5 $6 $7 $8 $9 X,Y pos of 4 corners*
0 Add a 4 corners polygon primitive as box body*
4,1,4,$2,$3,$4,$5,$6,$7,$8,$9,$2,$3,0*
0 Add four circle primitives for the rounded corners*
1,1,$1+$1,$2,$3*
1,1,$1+$1,$4,$5*
1,1,$1+$1,$6,$7*
1,1,$1+$1,$8,$9*
0 Add four rect primitives between the rounded corners*
20,1,$1+$1,$2,$3,$4,$5,0*
20,1,$1+$1,$4,$5,$6,$7,0*
20,1,$1+$1,$6,$7,$8,$9,0*
20,1,$1+$1,$8,$9,$2,$3,0*%
G04 Aperture macros list end*
%ADD10RoundRect,0.225000X0.225000X0.250000X-0.225000X0.250000X-0.225000X-0.250000X0.225000X-0.250000X0*%
%ADD11RoundRect,0.225000X-0.225000X-0.250000X0.225000X-0.250000X0.225000X0.250000X-0.225000X0.250000X0*%
%ADD12RoundRect,0.250000X0.250000X0.475000X-0.250000X0.475000X-0.250000X-0.475000X0.250000X-0.475000X0*%
%ADD13RoundRect,0.225000X-0.250000X0.225000X-0.250000X-0.225000X0.250000X-0.225000X0.250000X0.225000X0*%
%ADD14RoundRect,0.225000X0.250000X-0.225000X0.250000X0.225000X-0.250000X0.225000X-0.250000X-0.225000X0*%
G04 APERTURE END LIST*
D10*
%TO.C,C22*%
X119708000Y-87122000D03*
X118158000Y-87122000D03*
%TD*%
D11*
%TO.C,R10*%
X120891000Y-87376000D03*
X122441000Y-87376000D03*
%TD*%
D10*
%TO.C,C23*%
X119713000Y-85344000D03*
X118163000Y-85344000D03*
%TD*%
D11*
%TO.C,R9*%
X121018000Y-85090000D03*
X122568000Y-85090000D03*
%TD*%
D10*
%TO.C,R25*%
X107582000Y-91186000D03*
X106032000Y-91186000D03*
%TD*%
%TO.C,R24*%
X107582000Y-89916000D03*
X106032000Y-89916000D03*
%TD*%
%TO.C,R27*%
X107595000Y-83693000D03*
X106045000Y-83693000D03*
%TD*%
D12*
%TO.C,R14*%
X106995000Y-85217000D03*
X105095000Y-85217000D03*
%TD*%
%TO.C,C15*%
X105095000Y-86995000D03*
X106995000Y-86995000D03*
%TD*%
%TO.C,C19*%
X115504000Y-90678000D03*
X113604000Y-90678000D03*
%TD*%
%TO.C,C18*%
X115504000Y-88900000D03*
X113604000Y-88900000D03*
%TD*%
%TO.C,C17*%
X115443000Y-87122000D03*
X113543000Y-87122000D03*
%TD*%
%TO.C,C16*%
X115438000Y-85344000D03*
X113538000Y-85344000D03*
%TD*%
%TO.C,C13*%
X110766000Y-90932000D03*
X108866000Y-90932000D03*
%TD*%
%TO.C,C12*%
X110739000Y-89281000D03*
X108839000Y-89281000D03*
%TD*%
%TO.C,C11*%
X108839000Y-87630000D03*
X110739000Y-87630000D03*
%TD*%
%TO.C,C10*%
X108844000Y-85979000D03*
X110744000Y-85979000D03*
%TD*%
%TO.C,C9*%
X108844000Y-84328000D03*
X110744000Y-84328000D03*
%TD*%
%TO.C,C21*%
X119822000Y-88900000D03*
X117922000Y-88900000D03*
%TD*%
%TO.C,C20*%
X119822000Y-90678000D03*
X117922000Y-90678000D03*
%TD*%
D13*
%TO.C,R2*%
X126492000Y-79014934D03*
X126492000Y-80564934D03*
%TD*%
D10*
%TO.C,R7*%
X123952000Y-83185000D03*
X125502000Y-83185000D03*
%TD*%
D13*
%TO.C,R6*%
X125730000Y-86715000D03*
X125730000Y-88265000D03*
%TD*%
%TO.C,R5*%
X126655900Y-89956172D03*
X126655900Y-91506172D03*
%TD*%
D11*
%TO.C,R4*%
X120370000Y-98425000D03*
X121920000Y-98425000D03*
%TD*%
D10*
%TO.C,R3*%
X115075000Y-98425000D03*
X113525000Y-98425000D03*
%TD*%
%TO.C,R8*%
X120777000Y-92329000D03*
X119227000Y-92329000D03*
%TD*%
D14*
%TO.C,R11*%
X127000000Y-84087000D03*
X127000000Y-82537000D03*
%TD*%
M02*
