%TF.GenerationSoftware,KiCad,Pcbnew,8.0.2*%
%TF.CreationDate,2024-05-13T17:43:01+03:00*%
%TF.ProjectId,MobileAdapter,4d6f6269-6c65-4416-9461-707465722e6b,rev?*%
%TF.SameCoordinates,Original*%
%TF.FileFunction,Soldermask,Bot*%
%TF.FilePolarity,Negative*%
%FSLAX46Y46*%
G04 Gerber Fmt 4.6, Leading zero omitted, Abs format (unit mm)*
G04 Created by KiCad (PCBNEW 8.0.2) date 2024-05-13 17:43:01*
%MOMM*%
%LPD*%
G01*
G04 APERTURE LIST*
G04 Aperture macros list*
%AMRoundRect*
0 Rectangle with rounded corners*
0 $1 Rounding radius*
0 $2 $3 $4 $5 $6 $7 $8 $9 X,Y pos of 4 corners*
0 Add a 4 corners polygon primitive as box body*
4,1,4,$2,$3,$4,$5,$6,$7,$8,$9,$2,$3,0*
0 Add four circle primitives for the rounded corners*
1,1,$1+$1,$2,$3*
1,1,$1+$1,$4,$5*
1,1,$1+$1,$6,$7*
1,1,$1+$1,$8,$9*
0 Add four rect primitives between the rounded corners*
20,1,$1+$1,$2,$3,$4,$5,0*
20,1,$1+$1,$4,$5,$6,$7,0*
20,1,$1+$1,$6,$7,$8,$9,0*
20,1,$1+$1,$8,$9,$2,$3,0*%
G04 Aperture macros list end*
%ADD10RoundRect,0.225000X0.225000X0.250000X-0.225000X0.250000X-0.225000X-0.250000X0.225000X-0.250000X0*%
%ADD11RoundRect,0.225000X-0.225000X-0.250000X0.225000X-0.250000X0.225000X0.250000X-0.225000X0.250000X0*%
%ADD12RoundRect,0.250000X0.250000X0.475000X-0.250000X0.475000X-0.250000X-0.475000X0.250000X-0.475000X0*%
%ADD13RoundRect,0.225000X-0.250000X0.225000X-0.250000X-0.225000X0.250000X-0.225000X0.250000X0.225000X0*%
%ADD14R,1.000000X1.000000*%
%ADD15O,1.000000X1.000000*%
%ADD16C,0.900000*%
%ADD17RoundRect,0.225000X0.250000X-0.225000X0.250000X0.225000X-0.250000X0.225000X-0.250000X-0.225000X0*%
G04 APERTURE END LIST*
D10*
%TO.C,C22*%
X119708000Y-87122000D03*
X118158000Y-87122000D03*
%TD*%
D11*
%TO.C,R10*%
X120891000Y-87376000D03*
X122441000Y-87376000D03*
%TD*%
D10*
%TO.C,C23*%
X119713000Y-85344000D03*
X118163000Y-85344000D03*
%TD*%
D11*
%TO.C,R9*%
X121018000Y-85090000D03*
X122568000Y-85090000D03*
%TD*%
D10*
%TO.C,R25*%
X107582000Y-91186000D03*
X106032000Y-91186000D03*
%TD*%
%TO.C,R24*%
X107582000Y-89916000D03*
X106032000Y-89916000D03*
%TD*%
%TO.C,R27*%
X107595000Y-83693000D03*
X106045000Y-83693000D03*
%TD*%
D12*
%TO.C,R14*%
X106995000Y-85217000D03*
X105095000Y-85217000D03*
%TD*%
%TO.C,C15*%
X105095000Y-86995000D03*
X106995000Y-86995000D03*
%TD*%
%TO.C,C19*%
X115504000Y-90678000D03*
X113604000Y-90678000D03*
%TD*%
%TO.C,C18*%
X115504000Y-88900000D03*
X113604000Y-88900000D03*
%TD*%
%TO.C,C17*%
X115443000Y-87122000D03*
X113543000Y-87122000D03*
%TD*%
%TO.C,C16*%
X115438000Y-85344000D03*
X113538000Y-85344000D03*
%TD*%
%TO.C,C13*%
X110766000Y-90932000D03*
X108866000Y-90932000D03*
%TD*%
%TO.C,C12*%
X110739000Y-89281000D03*
X108839000Y-89281000D03*
%TD*%
%TO.C,C11*%
X108839000Y-87630000D03*
X110739000Y-87630000D03*
%TD*%
%TO.C,C10*%
X108844000Y-85979000D03*
X110744000Y-85979000D03*
%TD*%
%TO.C,C9*%
X108844000Y-84328000D03*
X110744000Y-84328000D03*
%TD*%
%TO.C,C21*%
X119822000Y-88900000D03*
X117922000Y-88900000D03*
%TD*%
%TO.C,C20*%
X119822000Y-90678000D03*
X117922000Y-90678000D03*
%TD*%
D13*
%TO.C,R2*%
X126492000Y-79014934D03*
X126492000Y-80564934D03*
%TD*%
D10*
%TO.C,R7*%
X123952000Y-83185000D03*
X125502000Y-83185000D03*
%TD*%
D13*
%TO.C,R6*%
X125730000Y-86715000D03*
X125730000Y-88265000D03*
%TD*%
%TO.C,R5*%
X126655900Y-89956172D03*
X126655900Y-91506172D03*
%TD*%
D11*
%TO.C,R4*%
X120370000Y-98425000D03*
X121920000Y-98425000D03*
%TD*%
D10*
%TO.C,R3*%
X115075000Y-98425000D03*
X113525000Y-98425000D03*
%TD*%
D14*
%TO.C,J4*%
X138430000Y-100330000D03*
D15*
X138430000Y-101600000D03*
X138430000Y-102870000D03*
%TD*%
D14*
%TO.C,J2*%
X138430000Y-107950000D03*
D15*
X138430000Y-109220000D03*
X138430000Y-110490000D03*
%TD*%
D14*
%TO.C,J1*%
X138430000Y-111760000D03*
D15*
X138430000Y-113030000D03*
X138430000Y-114300000D03*
%TD*%
D14*
%TO.C,J3*%
X138430000Y-104140000D03*
D15*
X138430000Y-105410000D03*
X138430000Y-106680000D03*
%TD*%
D16*
%TO.C,PGA1*%
X99060000Y-110490000D03*
X104140000Y-107950000D03*
X99060000Y-107950000D03*
X100330000Y-114300000D03*
X107950000Y-111760000D03*
X101600000Y-107950000D03*
X100330000Y-111760000D03*
X96520000Y-107950000D03*
X101600000Y-110490000D03*
X95250000Y-114300000D03*
X97790000Y-111760000D03*
X106680000Y-110490000D03*
X95250000Y-111760000D03*
X97790000Y-114300000D03*
X90170000Y-104140000D03*
X96520000Y-97790000D03*
X92710000Y-106680000D03*
X92710000Y-101600000D03*
X130810000Y-104140000D03*
X90170000Y-109220000D03*
X92710000Y-104140000D03*
X96520000Y-100330000D03*
X93980000Y-100330000D03*
X96520000Y-105410000D03*
X92710000Y-96520000D03*
X90170000Y-99060000D03*
X96520000Y-110490000D03*
X93980000Y-97790000D03*
X92710000Y-99060000D03*
X93980000Y-102870000D03*
X96520000Y-95250000D03*
X90170000Y-101600000D03*
X92710000Y-93980000D03*
X93980000Y-105410000D03*
X128270000Y-114300000D03*
X119380000Y-110490000D03*
X102870000Y-111760000D03*
X105410000Y-114300000D03*
X135890000Y-93980000D03*
X93980000Y-92710000D03*
X134620000Y-69850000D03*
X106680000Y-107950000D03*
X130810000Y-76200000D03*
X135890000Y-73660000D03*
X133350000Y-71120000D03*
X133350000Y-73660000D03*
X110490000Y-114300000D03*
X125730000Y-114300000D03*
X91440000Y-95250000D03*
X130810000Y-109220000D03*
X128270000Y-109220000D03*
X130810000Y-96520000D03*
X135890000Y-71120000D03*
X90170000Y-93980000D03*
X93980000Y-90170000D03*
X90170000Y-83820000D03*
X96520000Y-82550000D03*
X90170000Y-91440000D03*
X92710000Y-88900000D03*
X96520000Y-90170000D03*
X90170000Y-78740000D03*
X90170000Y-88900000D03*
X96520000Y-85090000D03*
X92710000Y-86360000D03*
X93980000Y-82550000D03*
X90170000Y-86360000D03*
X90170000Y-81280000D03*
X92710000Y-83820000D03*
X92710000Y-91440000D03*
X93980000Y-77470000D03*
X93980000Y-87630000D03*
X93980000Y-85090000D03*
X96520000Y-77470000D03*
X92710000Y-81280000D03*
X90170000Y-76200000D03*
X99060000Y-74930000D03*
X92710000Y-76200000D03*
X96520000Y-80010000D03*
X92710000Y-73660000D03*
X90170000Y-73660000D03*
X104140000Y-74930000D03*
X95250000Y-68580000D03*
X92710000Y-68580000D03*
X92710000Y-78740000D03*
X95250000Y-71120000D03*
X96520000Y-74930000D03*
X90170000Y-71120000D03*
X97790000Y-71120000D03*
X91440000Y-69850000D03*
X100330000Y-71120000D03*
X100330000Y-68580000D03*
X99060000Y-72390000D03*
X101600000Y-72390000D03*
X107950000Y-71120000D03*
X106680000Y-72390000D03*
X104140000Y-72390000D03*
X97790000Y-68580000D03*
X102870000Y-68580000D03*
X102870000Y-71120000D03*
X115570000Y-68580000D03*
X107950000Y-68580000D03*
X110490000Y-68580000D03*
X105410000Y-71120000D03*
X120650000Y-71120000D03*
X105410000Y-68580000D03*
X109220000Y-72390000D03*
X118110000Y-68580000D03*
X115570000Y-71120000D03*
X113030000Y-71120000D03*
X123190000Y-71120000D03*
X113030000Y-68580000D03*
X118110000Y-71120000D03*
X110490000Y-71120000D03*
X120650000Y-68580000D03*
X123190000Y-68580000D03*
X120650000Y-73660000D03*
X109220000Y-74930000D03*
X123190000Y-111760000D03*
X113030000Y-114300000D03*
X130810000Y-71120000D03*
X128270000Y-71120000D03*
X130810000Y-68580000D03*
X128270000Y-68580000D03*
X128270000Y-73660000D03*
X125730000Y-71120000D03*
X125730000Y-73660000D03*
X125730000Y-68580000D03*
X123190000Y-114300000D03*
X90170000Y-106680000D03*
X133350000Y-101600000D03*
X135890000Y-104140000D03*
X120650000Y-111760000D03*
X118110000Y-111760000D03*
X133350000Y-104140000D03*
X135890000Y-106680000D03*
X130810000Y-106680000D03*
X134620000Y-82550000D03*
X135890000Y-81280000D03*
X114300000Y-110490000D03*
X130810000Y-78740000D03*
X133350000Y-78740000D03*
X133350000Y-81280000D03*
X130810000Y-93980000D03*
X130810000Y-91440000D03*
X133350000Y-68580000D03*
X135890000Y-78740000D03*
X121920000Y-110490000D03*
X111760000Y-110490000D03*
X109220000Y-107950000D03*
X111760000Y-107950000D03*
X113030000Y-111760000D03*
X110490000Y-111760000D03*
X93980000Y-107950000D03*
X93980000Y-95250000D03*
X118110000Y-114300000D03*
X121920000Y-107950000D03*
X116840000Y-107950000D03*
X124460000Y-110490000D03*
X135890000Y-101600000D03*
X90170000Y-96520000D03*
X91440000Y-87630000D03*
X91440000Y-113030000D03*
X101600000Y-74930000D03*
X115570000Y-73660000D03*
X127000000Y-110490000D03*
X130810000Y-81280000D03*
X130810000Y-83820000D03*
X130810000Y-86360000D03*
X132080000Y-95250000D03*
X133350000Y-83820000D03*
X133350000Y-86360000D03*
X133350000Y-93980000D03*
X135890000Y-76200000D03*
X135890000Y-83820000D03*
X135890000Y-86360000D03*
X133350000Y-88900000D03*
X123190000Y-73660000D03*
X127000000Y-107950000D03*
X133350000Y-109220000D03*
X133350000Y-106680000D03*
X130810000Y-111760000D03*
X133350000Y-114300000D03*
X135890000Y-114300000D03*
X125730000Y-111760000D03*
X128270000Y-111760000D03*
X124460000Y-107950000D03*
X129540000Y-110490000D03*
X120650000Y-114300000D03*
X130810000Y-114300000D03*
X91440000Y-74930000D03*
X91440000Y-80010000D03*
X91440000Y-85090000D03*
X91440000Y-90170000D03*
X91440000Y-100330000D03*
X91440000Y-105410000D03*
X91440000Y-110490000D03*
X92710000Y-71120000D03*
X93980000Y-74930000D03*
X93980000Y-113030000D03*
X95250000Y-73660000D03*
X95250000Y-78740000D03*
X95250000Y-83820000D03*
X95250000Y-88900000D03*
X95250000Y-93980000D03*
X95250000Y-99060000D03*
X95250000Y-104140000D03*
X95250000Y-109220000D03*
X96520000Y-69850000D03*
X96520000Y-72390000D03*
X99060000Y-113030000D03*
X100330000Y-73660000D03*
X100330000Y-109220000D03*
X101600000Y-69850000D03*
X104140000Y-113030000D03*
X105410000Y-73660000D03*
X105410000Y-109220000D03*
X106680000Y-69850000D03*
X106680000Y-74930000D03*
X109220000Y-113030000D03*
X110490000Y-73660000D03*
X110490000Y-109220000D03*
X111760000Y-69850000D03*
X114300000Y-72390000D03*
X114300000Y-113030000D03*
X115570000Y-109220000D03*
X116840000Y-69850000D03*
X116840000Y-74930000D03*
X119380000Y-72390000D03*
X119380000Y-107950000D03*
X119380000Y-113030000D03*
X120650000Y-109220000D03*
X121920000Y-69850000D03*
X121920000Y-74930000D03*
X124460000Y-72390000D03*
X124460000Y-113030000D03*
X125730000Y-109220000D03*
X127000000Y-69850000D03*
X127000000Y-74930000D03*
X129540000Y-72390000D03*
X129540000Y-77470000D03*
X129540000Y-80010000D03*
X129540000Y-82550000D03*
X129540000Y-87630000D03*
X129540000Y-92710000D03*
X129540000Y-97790000D03*
X129540000Y-102870000D03*
X129540000Y-107950000D03*
X129540000Y-113030000D03*
X132080000Y-69850000D03*
X132080000Y-74930000D03*
X132080000Y-80010000D03*
X132080000Y-85090000D03*
X132080000Y-90170000D03*
X132080000Y-100330000D03*
X132080000Y-105410000D03*
X132080000Y-110490000D03*
X133350000Y-96520000D03*
X134620000Y-72390000D03*
X134620000Y-77470000D03*
X134620000Y-87630000D03*
X134620000Y-92710000D03*
X134620000Y-107950000D03*
X135890000Y-99060000D03*
X134620000Y-102870000D03*
X134620000Y-97790000D03*
X134620000Y-100330000D03*
X133350000Y-111760000D03*
X134620000Y-113030000D03*
X135890000Y-111760000D03*
X135890000Y-109220000D03*
X130810000Y-73660000D03*
X111760000Y-74930000D03*
X93980000Y-80010000D03*
X96520000Y-87630000D03*
X96520000Y-92710000D03*
X96520000Y-102870000D03*
X104140000Y-110490000D03*
X116840000Y-110490000D03*
X90170000Y-111760000D03*
X91440000Y-72390000D03*
X91440000Y-77470000D03*
X91440000Y-82550000D03*
X91440000Y-92710000D03*
X91440000Y-97790000D03*
X91440000Y-102870000D03*
X91440000Y-107950000D03*
X92710000Y-109220000D03*
X92710000Y-111760000D03*
X92710000Y-114300000D03*
X93980000Y-69850000D03*
X93980000Y-72390000D03*
X93980000Y-110490000D03*
X95250000Y-76200000D03*
X95250000Y-81280000D03*
X95250000Y-86360000D03*
X95250000Y-91440000D03*
X95250000Y-96520000D03*
X95250000Y-101600000D03*
X95250000Y-106680000D03*
X96520000Y-113030000D03*
X97790000Y-73660000D03*
X97790000Y-109220000D03*
X99060000Y-69850000D03*
X101600000Y-113030000D03*
X102870000Y-73660000D03*
X102870000Y-109220000D03*
X104140000Y-69850000D03*
X106680000Y-113030000D03*
X107950000Y-73660000D03*
X107950000Y-109220000D03*
X109220000Y-69850000D03*
X111760000Y-72390000D03*
X111760000Y-113030000D03*
X113030000Y-73660000D03*
X113030000Y-109220000D03*
X114300000Y-69850000D03*
X114300000Y-74930000D03*
X116840000Y-72390000D03*
X116840000Y-113030000D03*
X118110000Y-109220000D03*
X119380000Y-69850000D03*
X119380000Y-74930000D03*
X121920000Y-72390000D03*
X121920000Y-113030000D03*
X123190000Y-109220000D03*
X124460000Y-69850000D03*
X124460000Y-74930000D03*
X127000000Y-72390000D03*
X127000000Y-113030000D03*
X129540000Y-69850000D03*
X129540000Y-74930000D03*
X129540000Y-85090000D03*
X129540000Y-90170000D03*
X129540000Y-95250000D03*
X129540000Y-100330000D03*
X129540000Y-105410000D03*
X130810000Y-101600000D03*
X132080000Y-72390000D03*
X132080000Y-77470000D03*
X132080000Y-82550000D03*
X132080000Y-87630000D03*
X132080000Y-92710000D03*
X132080000Y-97790000D03*
X132080000Y-102870000D03*
X132080000Y-107950000D03*
X132080000Y-113030000D03*
X134620000Y-74930000D03*
X134620000Y-80010000D03*
X134620000Y-85090000D03*
X134620000Y-90170000D03*
X134620000Y-95250000D03*
X134620000Y-105410000D03*
X134620000Y-110490000D03*
X135890000Y-68580000D03*
X135890000Y-96520000D03*
X102870000Y-114300000D03*
X105410000Y-111760000D03*
X107950000Y-114300000D03*
X109220000Y-110490000D03*
X114300000Y-107950000D03*
X115570000Y-111760000D03*
X115570000Y-114300000D03*
X118110000Y-73660000D03*
X130810000Y-88900000D03*
X130810000Y-99060000D03*
X133350000Y-76200000D03*
X133350000Y-91440000D03*
X133350000Y-99060000D03*
X135890000Y-88900000D03*
X135890000Y-91440000D03*
%TD*%
D10*
%TO.C,R8*%
X120777000Y-92329000D03*
X119227000Y-92329000D03*
%TD*%
D17*
%TO.C,R11*%
X127000000Y-84087000D03*
X127000000Y-82537000D03*
%TD*%
M02*
