%TF.GenerationSoftware,KiCad,Pcbnew,8.0.2*%
%TF.CreationDate,2024-05-13T17:43:00+03:00*%
%TF.ProjectId,MobileAdapter,4d6f6269-6c65-4416-9461-707465722e6b,rev?*%
%TF.SameCoordinates,Original*%
%TF.FileFunction,Copper,L4,Bot*%
%TF.FilePolarity,Positive*%
%FSLAX46Y46*%
G04 Gerber Fmt 4.6, Leading zero omitted, Abs format (unit mm)*
G04 Created by KiCad (PCBNEW 8.0.2) date 2024-05-13 17:43:00*
%MOMM*%
%LPD*%
G01*
G04 APERTURE LIST*
G04 Aperture macros list*
%AMRoundRect*
0 Rectangle with rounded corners*
0 $1 Rounding radius*
0 $2 $3 $4 $5 $6 $7 $8 $9 X,Y pos of 4 corners*
0 Add a 4 corners polygon primitive as box body*
4,1,4,$2,$3,$4,$5,$6,$7,$8,$9,$2,$3,0*
0 Add four circle primitives for the rounded corners*
1,1,$1+$1,$2,$3*
1,1,$1+$1,$4,$5*
1,1,$1+$1,$6,$7*
1,1,$1+$1,$8,$9*
0 Add four rect primitives between the rounded corners*
20,1,$1+$1,$2,$3,$4,$5,0*
20,1,$1+$1,$4,$5,$6,$7,0*
20,1,$1+$1,$6,$7,$8,$9,0*
20,1,$1+$1,$8,$9,$2,$3,0*%
G04 Aperture macros list end*
%TA.AperFunction,SMDPad,CuDef*%
%ADD10RoundRect,0.225000X0.225000X0.250000X-0.225000X0.250000X-0.225000X-0.250000X0.225000X-0.250000X0*%
%TD*%
%TA.AperFunction,SMDPad,CuDef*%
%ADD11RoundRect,0.225000X-0.225000X-0.250000X0.225000X-0.250000X0.225000X0.250000X-0.225000X0.250000X0*%
%TD*%
%TA.AperFunction,SMDPad,CuDef*%
%ADD12RoundRect,0.250000X0.250000X0.475000X-0.250000X0.475000X-0.250000X-0.475000X0.250000X-0.475000X0*%
%TD*%
%TA.AperFunction,SMDPad,CuDef*%
%ADD13RoundRect,0.225000X-0.250000X0.225000X-0.250000X-0.225000X0.250000X-0.225000X0.250000X0.225000X0*%
%TD*%
%TA.AperFunction,ComponentPad*%
%ADD14R,1.000000X1.000000*%
%TD*%
%TA.AperFunction,ComponentPad*%
%ADD15O,1.000000X1.000000*%
%TD*%
%TA.AperFunction,ComponentPad*%
%ADD16C,0.900000*%
%TD*%
%TA.AperFunction,SMDPad,CuDef*%
%ADD17RoundRect,0.225000X0.250000X-0.225000X0.250000X0.225000X-0.250000X0.225000X-0.250000X-0.225000X0*%
%TD*%
%TA.AperFunction,ViaPad*%
%ADD18C,0.600000*%
%TD*%
%TA.AperFunction,ViaPad*%
%ADD19C,0.550000*%
%TD*%
%TA.AperFunction,Conductor*%
%ADD20C,0.200000*%
%TD*%
%TA.AperFunction,Conductor*%
%ADD21C,0.100000*%
%TD*%
%TA.AperFunction,Conductor*%
%ADD22C,0.400000*%
%TD*%
%TA.AperFunction,Conductor*%
%ADD23C,0.500000*%
%TD*%
%TA.AperFunction,Conductor*%
%ADD24C,0.300000*%
%TD*%
%TA.AperFunction,Conductor*%
%ADD25C,0.700000*%
%TD*%
G04 APERTURE END LIST*
D10*
%TO.P,C22,1*%
%TO.N,Pullup*%
X119708000Y-87122000D03*
%TO.P,C22,2*%
%TO.N,VSS*%
X118158000Y-87122000D03*
%TD*%
D11*
%TO.P,R10,1*%
%TO.N,Pullup*%
X120891000Y-87376000D03*
%TO.P,R10,2*%
%TO.N,VTT*%
X122441000Y-87376000D03*
%TD*%
D10*
%TO.P,C23,1*%
%TO.N,Pullup*%
X119713000Y-85344000D03*
%TO.P,C23,2*%
%TO.N,VSS*%
X118163000Y-85344000D03*
%TD*%
D11*
%TO.P,R9,1*%
%TO.N,Pullup*%
X121018000Y-85090000D03*
%TO.P,R9,2*%
%TO.N,VTT*%
X122568000Y-85090000D03*
%TD*%
D10*
%TO.P,R25,1*%
%TO.N,Net-(C13-Pad2)*%
X107582000Y-91186000D03*
%TO.P,R25,2*%
%TO.N,VCC*%
X106032000Y-91186000D03*
%TD*%
%TO.P,R24,1*%
%TO.N,Net-(C12-Pad2)*%
X107582000Y-89916000D03*
%TO.P,R24,2*%
%TO.N,VCC*%
X106032000Y-89916000D03*
%TD*%
%TO.P,R27,1*%
%TO.N,Net-(C9-Pad2)*%
X107595000Y-83693000D03*
%TO.P,R27,2*%
%TO.N,VREF*%
X106045000Y-83693000D03*
%TD*%
D12*
%TO.P,R14,1*%
%TO.N,VSS*%
X106995000Y-85217000D03*
%TO.P,R14,2*%
%TO.N,VREF*%
X105095000Y-85217000D03*
%TD*%
%TO.P,C15,2*%
%TO.N,VREF*%
X105095000Y-86995000D03*
%TO.P,C15,1*%
%TO.N,VSS*%
X106995000Y-86995000D03*
%TD*%
%TO.P,C19,1*%
%TO.N,VSS*%
X115504000Y-90678000D03*
%TO.P,C19,2*%
%TO.N,VCC*%
X113604000Y-90678000D03*
%TD*%
%TO.P,C18,1*%
%TO.N,VSS*%
X115504000Y-88900000D03*
%TO.P,C18,2*%
%TO.N,VCC*%
X113604000Y-88900000D03*
%TD*%
%TO.P,C17,1*%
%TO.N,VSS*%
X115443000Y-87122000D03*
%TO.P,C17,2*%
%TO.N,VCC*%
X113543000Y-87122000D03*
%TD*%
%TO.P,C16,1*%
%TO.N,VSS*%
X115438000Y-85344000D03*
%TO.P,C16,2*%
%TO.N,VCC*%
X113538000Y-85344000D03*
%TD*%
%TO.P,C13,1*%
%TO.N,VSS*%
X110766000Y-90932000D03*
%TO.P,C13,2*%
%TO.N,Net-(C13-Pad2)*%
X108866000Y-90932000D03*
%TD*%
%TO.P,C12,1*%
%TO.N,VSS*%
X110739000Y-89281000D03*
%TO.P,C12,2*%
%TO.N,Net-(C12-Pad2)*%
X108839000Y-89281000D03*
%TD*%
%TO.P,C11,2*%
%TO.N,VSS*%
X108839000Y-87630000D03*
%TO.P,C11,1*%
%TO.N,VCC*%
X110739000Y-87630000D03*
%TD*%
%TO.P,C10,2*%
%TO.N,VSS*%
X108844000Y-85979000D03*
%TO.P,C10,1*%
%TO.N,VCC*%
X110744000Y-85979000D03*
%TD*%
%TO.P,C9,2*%
%TO.N,Net-(C9-Pad2)*%
X108844000Y-84328000D03*
%TO.P,C9,1*%
%TO.N,VSS*%
X110744000Y-84328000D03*
%TD*%
%TO.P,C21,1*%
%TO.N,VTT*%
X119822000Y-88900000D03*
%TO.P,C21,2*%
%TO.N,VSS*%
X117922000Y-88900000D03*
%TD*%
%TO.P,C20,1*%
%TO.N,VTT*%
X119822000Y-90678000D03*
%TO.P,C20,2*%
%TO.N,VSS*%
X117922000Y-90678000D03*
%TD*%
D13*
%TO.P,R2,1*%
%TO.N,VSS*%
X126492000Y-79014934D03*
%TO.P,R2,2*%
%TO.N,Net-(R2-Pad2)*%
X126492000Y-80564934D03*
%TD*%
D10*
%TO.P,R7,2*%
%TO.N,Net-(R7-Pad2)*%
X123952000Y-83185000D03*
%TO.P,R7,1*%
%TO.N,VSS*%
X125502000Y-83185000D03*
%TD*%
D13*
%TO.P,R6,1*%
%TO.N,Net-(R6-Pad1)*%
X125730000Y-86715000D03*
%TO.P,R6,2*%
%TO.N,BSEL1*%
X125730000Y-88265000D03*
%TD*%
%TO.P,R5,1*%
%TO.N,Net-(R5-Pad1)*%
X126655900Y-89956172D03*
%TO.P,R5,2*%
%TO.N,BSEL0*%
X126655900Y-91506172D03*
%TD*%
D11*
%TO.P,R4,1*%
%TO.N,VSS*%
X120370000Y-98425000D03*
%TO.P,R4,2*%
%TO.N,Net-(R4-Pad2)*%
X121920000Y-98425000D03*
%TD*%
D10*
%TO.P,R3,1*%
%TO.N,VSS*%
X115075000Y-98425000D03*
%TO.P,R3,2*%
%TO.N,Net-(R3-Pad2)*%
X113525000Y-98425000D03*
%TD*%
D14*
%TO.P,J4,1,Pin_1*%
%TO.N,VSS*%
X138430000Y-100330000D03*
D15*
%TO.P,J4,2,Pin_2*%
%TO.N,VID3*%
X138430000Y-101600000D03*
%TO.P,J4,3,Pin_3*%
%TO.N,VID3_M*%
X138430000Y-102870000D03*
%TD*%
D14*
%TO.P,J2,1,Pin_1*%
%TO.N,VSS*%
X138430000Y-107950000D03*
D15*
%TO.P,J2,2,Pin_2*%
%TO.N,VID1*%
X138430000Y-109220000D03*
%TO.P,J2,3,Pin_3*%
%TO.N,VID1_M*%
X138430000Y-110490000D03*
%TD*%
D14*
%TO.P,J1,1,Pin_1*%
%TO.N,VSS*%
X138430000Y-111760000D03*
D15*
%TO.P,J1,2,Pin_2*%
%TO.N,VID0*%
X138430000Y-113030000D03*
%TO.P,J1,3,Pin_3*%
%TO.N,VID0_M*%
X138430000Y-114300000D03*
%TD*%
D14*
%TO.P,J3,1,Pin_1*%
%TO.N,VSS*%
X138430000Y-104140000D03*
D15*
%TO.P,J3,2,Pin_2*%
%TO.N,VID2*%
X138430000Y-105410000D03*
%TO.P,J3,3,Pin_3*%
%TO.N,VID2_M*%
X138430000Y-106680000D03*
%TD*%
D16*
%TO.P,PGA1,A3,A3*%
%TO.N,A3*%
X99060000Y-110490000D03*
%TO.P,PGA1,A4,A4*%
%TO.N,A4*%
X104140000Y-107950000D03*
%TO.P,PGA1,A5,A5*%
%TO.N,A5*%
X99060000Y-107950000D03*
%TO.P,PGA1,A6,A6*%
%TO.N,A6*%
X100330000Y-114300000D03*
%TO.P,PGA1,A7,A7*%
%TO.N,A7*%
X107950000Y-111760000D03*
%TO.P,PGA1,A8,A8*%
%TO.N,A8*%
X101600000Y-107950000D03*
%TO.P,PGA1,A9,A9*%
%TO.N,A9*%
X100330000Y-111760000D03*
%TO.P,PGA1,A10,A10*%
%TO.N,A10*%
X96520000Y-107950000D03*
%TO.P,PGA1,A11,A11*%
%TO.N,A11*%
X101600000Y-110490000D03*
%TO.P,PGA1,A12,A12*%
%TO.N,A12*%
X95250000Y-114300000D03*
%TO.P,PGA1,A13,A13*%
%TO.N,A13*%
X97790000Y-111760000D03*
%TO.P,PGA1,A14,A14*%
%TO.N,A14*%
X106680000Y-110490000D03*
%TO.P,PGA1,A15,A15*%
%TO.N,A15*%
X95250000Y-111760000D03*
%TO.P,PGA1,A16,A16*%
%TO.N,A16*%
X97790000Y-114300000D03*
%TO.P,PGA1,A17,A17*%
%TO.N,A17*%
X90170000Y-104140000D03*
%TO.P,PGA1,A18,A18*%
%TO.N,A18*%
X96520000Y-97790000D03*
%TO.P,PGA1,A19,A19*%
%TO.N,A19*%
X92710000Y-106680000D03*
%TO.P,PGA1,A20,A20*%
%TO.N,A20*%
X92710000Y-101600000D03*
%TO.P,PGA1,A20M,A20M*%
%TO.N,A20M*%
X130810000Y-104140000D03*
%TO.P,PGA1,A21,A21*%
%TO.N,A21*%
X90170000Y-109220000D03*
%TO.P,PGA1,A22,A22*%
%TO.N,A22*%
X92710000Y-104140000D03*
%TO.P,PGA1,A23,A23*%
%TO.N,A23*%
X96520000Y-100330000D03*
%TO.P,PGA1,A24,A24*%
%TO.N,A24*%
X93980000Y-100330000D03*
%TO.P,PGA1,A25,A25*%
%TO.N,A25*%
X96520000Y-105410000D03*
%TO.P,PGA1,A26,A26*%
%TO.N,A26*%
X92710000Y-96520000D03*
%TO.P,PGA1,A27,A27*%
%TO.N,A27*%
X90170000Y-99060000D03*
%TO.P,PGA1,A28,A28*%
%TO.N,A28*%
X96520000Y-110490000D03*
%TO.P,PGA1,A29,A29*%
%TO.N,A29*%
X93980000Y-97790000D03*
%TO.P,PGA1,A30,A30*%
%TO.N,A30*%
X92710000Y-99060000D03*
%TO.P,PGA1,A31,A31*%
%TO.N,A31*%
X93980000Y-102870000D03*
%TO.P,PGA1,A32,A32*%
%TO.N,A32*%
X96520000Y-95250000D03*
%TO.P,PGA1,A33,A33*%
%TO.N,A33*%
X90170000Y-101600000D03*
%TO.P,PGA1,A34,A34*%
%TO.N,A34*%
X92710000Y-93980000D03*
%TO.P,PGA1,A35,A35*%
%TO.N,A35*%
X93980000Y-105410000D03*
%TO.P,PGA1,ADS,ADS*%
%TO.N,ADS*%
X128270000Y-114300000D03*
%TO.P,PGA1,AERR,AERR*%
%TO.N,AERR*%
X119380000Y-110490000D03*
%TO.P,PGA1,AP0,AP0*%
%TO.N,AP0*%
X102870000Y-111760000D03*
%TO.P,PGA1,AP1,AP1*%
%TO.N,AP1*%
X105410000Y-114300000D03*
%TO.P,PGA1,BCLK,BCLK*%
%TO.N,BCLK*%
X135890000Y-93980000D03*
%TO.P,PGA1,BERR,BERR*%
%TO.N,BERR*%
X93980000Y-92710000D03*
%TO.P,PGA1,BINIT,BINIT*%
%TO.N,BINIT*%
X134620000Y-69850000D03*
%TO.P,PGA1,BNR,BNR*%
%TO.N,BNR*%
X106680000Y-107950000D03*
%TO.P,PGA1,BP2,BP2*%
%TO.N,BP2*%
X130810000Y-76200000D03*
%TO.P,PGA1,BP3,BP3*%
%TO.N,BP3*%
X135890000Y-73660000D03*
%TO.P,PGA1,BPM0,BPM0*%
%TO.N,BPM0*%
X133350000Y-71120000D03*
%TO.P,PGA1,BPM1,BPM1*%
%TO.N,BPM1*%
X133350000Y-73660000D03*
%TO.P,PGA1,BPRI,BPRI*%
%TO.N,BPRI*%
X110490000Y-114300000D03*
%TO.P,PGA1,BR0,BR0*%
%TO.N,BR0*%
X125730000Y-114300000D03*
%TO.P,PGA1,BR1,BR1*%
%TO.N,BR1*%
X91440000Y-95250000D03*
%TO.P,PGA1,BSEL0,BSEL0*%
%TO.N,BSEL0*%
X130810000Y-109220000D03*
%TO.P,PGA1,BSEL1,BSEL1*%
%TO.N,BSEL1*%
X128270000Y-109220000D03*
%TO.P,PGA1,CLKREF,CLKREF*%
%TO.N,CLKREF*%
X130810000Y-96520000D03*
%TO.P,PGA1,CPUPRES,CPUPRES*%
%TO.N,Net-(PGA1-PadCPUPRES)*%
X135890000Y-71120000D03*
%TO.P,PGA1,D0,D0*%
%TO.N,D0*%
X90170000Y-93980000D03*
%TO.P,PGA1,D1,D1*%
%TO.N,D1*%
X93980000Y-90170000D03*
%TO.P,PGA1,D2,D2*%
%TO.N,D2*%
X90170000Y-83820000D03*
%TO.P,PGA1,D3,D3*%
%TO.N,D3*%
X96520000Y-82550000D03*
%TO.P,PGA1,D4,D4*%
%TO.N,D4*%
X90170000Y-91440000D03*
%TO.P,PGA1,D5,D5*%
%TO.N,D5*%
X92710000Y-88900000D03*
%TO.P,PGA1,D6,D6*%
%TO.N,D6*%
X96520000Y-90170000D03*
%TO.P,PGA1,D7,D7*%
%TO.N,D7*%
X90170000Y-78740000D03*
%TO.P,PGA1,D8,D8*%
%TO.N,D8*%
X90170000Y-88900000D03*
%TO.P,PGA1,D9,D9*%
%TO.N,D9*%
X96520000Y-85090000D03*
%TO.P,PGA1,D10,D10*%
%TO.N,D10*%
X92710000Y-86360000D03*
%TO.P,PGA1,D11,D11*%
%TO.N,D11*%
X93980000Y-82550000D03*
%TO.P,PGA1,D12,D12*%
%TO.N,D12*%
X90170000Y-86360000D03*
%TO.P,PGA1,D13,D13*%
%TO.N,D13*%
X90170000Y-81280000D03*
%TO.P,PGA1,D14,D14*%
%TO.N,D14*%
X92710000Y-83820000D03*
%TO.P,PGA1,D15,D15*%
%TO.N,D15*%
X92710000Y-91440000D03*
%TO.P,PGA1,D16,D16*%
%TO.N,D16*%
X93980000Y-77470000D03*
%TO.P,PGA1,D17,D17*%
%TO.N,D17*%
X93980000Y-87630000D03*
%TO.P,PGA1,D18,D18*%
%TO.N,D18*%
X93980000Y-85090000D03*
%TO.P,PGA1,D19,D19*%
%TO.N,D19*%
X96520000Y-77470000D03*
%TO.P,PGA1,D20,D20*%
%TO.N,D20*%
X92710000Y-81280000D03*
%TO.P,PGA1,D21,D21*%
%TO.N,D21*%
X90170000Y-76200000D03*
%TO.P,PGA1,D22,D22*%
%TO.N,D22*%
X99060000Y-74930000D03*
%TO.P,PGA1,D23,D23*%
%TO.N,D23*%
X92710000Y-76200000D03*
%TO.P,PGA1,D24,D24*%
%TO.N,D24*%
X96520000Y-80010000D03*
%TO.P,PGA1,D25,D25*%
%TO.N,D25*%
X92710000Y-73660000D03*
%TO.P,PGA1,D26,D26*%
%TO.N,D26*%
X90170000Y-73660000D03*
%TO.P,PGA1,D27,D27*%
%TO.N,D27*%
X104140000Y-74930000D03*
%TO.P,PGA1,D28,D28*%
%TO.N,D28*%
X95250000Y-68580000D03*
%TO.P,PGA1,D29,D29*%
%TO.N,D29*%
X92710000Y-68580000D03*
%TO.P,PGA1,D30,D30*%
%TO.N,D30*%
X92710000Y-78740000D03*
%TO.P,PGA1,D31,D31*%
%TO.N,D31*%
X95250000Y-71120000D03*
%TO.P,PGA1,D32,D32*%
%TO.N,D32*%
X96520000Y-74930000D03*
%TO.P,PGA1,D33,D33*%
%TO.N,D33*%
X90170000Y-71120000D03*
%TO.P,PGA1,D34,D34*%
%TO.N,D34*%
X97790000Y-71120000D03*
%TO.P,PGA1,D35,D35*%
%TO.N,D35*%
X91440000Y-69850000D03*
%TO.P,PGA1,D36,D36*%
%TO.N,D36*%
X100330000Y-71120000D03*
%TO.P,PGA1,D37,D37*%
%TO.N,D37*%
X100330000Y-68580000D03*
%TO.P,PGA1,D38,D38*%
%TO.N,D38*%
X99060000Y-72390000D03*
%TO.P,PGA1,D39,D39*%
%TO.N,D39*%
X101600000Y-72390000D03*
%TO.P,PGA1,D40,D40*%
%TO.N,D40*%
X107950000Y-71120000D03*
%TO.P,PGA1,D41,D41*%
%TO.N,D41*%
X106680000Y-72390000D03*
%TO.P,PGA1,D42,D42*%
%TO.N,D42*%
X104140000Y-72390000D03*
%TO.P,PGA1,D43,D43*%
%TO.N,D43*%
X97790000Y-68580000D03*
%TO.P,PGA1,D44,D44*%
%TO.N,D44*%
X102870000Y-68580000D03*
%TO.P,PGA1,D45,D45*%
%TO.N,D45*%
X102870000Y-71120000D03*
%TO.P,PGA1,D46,D46*%
%TO.N,D46*%
X115570000Y-68580000D03*
%TO.P,PGA1,D47,D47*%
%TO.N,D47*%
X107950000Y-68580000D03*
%TO.P,PGA1,D48,D48*%
%TO.N,D48*%
X110490000Y-68580000D03*
%TO.P,PGA1,D49,D49*%
%TO.N,D49*%
X105410000Y-71120000D03*
%TO.P,PGA1,D50,D50*%
%TO.N,D50*%
X120650000Y-71120000D03*
%TO.P,PGA1,D51,D51*%
%TO.N,D51*%
X105410000Y-68580000D03*
%TO.P,PGA1,D52,D52*%
%TO.N,D52*%
X109220000Y-72390000D03*
%TO.P,PGA1,D53,D53*%
%TO.N,D53*%
X118110000Y-68580000D03*
%TO.P,PGA1,D54,D54*%
%TO.N,D54*%
X115570000Y-71120000D03*
%TO.P,PGA1,D55,D55*%
%TO.N,D55*%
X113030000Y-71120000D03*
%TO.P,PGA1,D56,D56*%
%TO.N,D56*%
X123190000Y-71120000D03*
%TO.P,PGA1,D57,D57*%
%TO.N,D57*%
X113030000Y-68580000D03*
%TO.P,PGA1,D58,D58*%
%TO.N,D58*%
X118110000Y-71120000D03*
%TO.P,PGA1,D59,D59*%
%TO.N,D59*%
X110490000Y-71120000D03*
%TO.P,PGA1,D60,D60*%
%TO.N,D60*%
X120650000Y-68580000D03*
%TO.P,PGA1,D61,D61*%
%TO.N,D61*%
X123190000Y-68580000D03*
%TO.P,PGA1,D62,D62*%
%TO.N,D62*%
X120650000Y-73660000D03*
%TO.P,PGA1,D63,D63*%
%TO.N,D63*%
X109220000Y-74930000D03*
%TO.P,PGA1,DBSY,DBSY*%
%TO.N,DBSY*%
X123190000Y-111760000D03*
%TO.P,PGA1,DEFER,DEFER*%
%TO.N,DEFER*%
X113030000Y-114300000D03*
%TO.P,PGA1,DEP0,DEP0*%
%TO.N,DEP0*%
X130810000Y-71120000D03*
%TO.P,PGA1,DEP1,DEP1*%
%TO.N,DEP1*%
X128270000Y-71120000D03*
%TO.P,PGA1,DEP2,DEP2*%
%TO.N,DEP2*%
X130810000Y-68580000D03*
%TO.P,PGA1,DEP3,DEP3*%
%TO.N,DEP3*%
X128270000Y-68580000D03*
%TO.P,PGA1,DEP4,DEP4*%
%TO.N,DEP4*%
X128270000Y-73660000D03*
%TO.P,PGA1,DEP5,DEP5*%
%TO.N,DEP5*%
X125730000Y-71120000D03*
%TO.P,PGA1,DEP6,DEP6*%
%TO.N,DEP6*%
X125730000Y-73660000D03*
%TO.P,PGA1,DEP7,DEP7*%
%TO.N,DEP7*%
X125730000Y-68580000D03*
%TO.P,PGA1,DRDY,DRDY*%
%TO.N,DRDY*%
X123190000Y-114300000D03*
%TO.P,PGA1,EDGCTRL,EDGCTRL*%
%TO.N,EDGECTRL*%
X90170000Y-106680000D03*
%TO.P,PGA1,FERR,FERR*%
%TO.N,FERR*%
X133350000Y-101600000D03*
%TO.P,PGA1,FLUSH,FLUSH*%
%TO.N,FLUSH*%
X135890000Y-104140000D03*
%TO.P,PGA1,HIT,HIT*%
%TO.N,HIT*%
X120650000Y-111760000D03*
%TO.P,PGA1,HITM,HITM*%
%TO.N,HITM*%
X118110000Y-111760000D03*
%TO.P,PGA1,IERR,IERR*%
%TO.N,IERR*%
X133350000Y-104140000D03*
%TO.P,PGA1,IGNNE,IGNNE*%
%TO.N,IGNNE*%
X135890000Y-106680000D03*
%TO.P,PGA1,INIT,INIT*%
%TO.N,INIT*%
X130810000Y-106680000D03*
%TO.P,PGA1,LINT0,LINT0/INTR*%
%TO.N,LINIT0*%
X134620000Y-82550000D03*
%TO.P,PGA1,LINT1,LINT1/NMI*%
%TO.N,LINIT1*%
X135890000Y-81280000D03*
%TO.P,PGA1,LOCK,LOCK*%
%TO.N,LOCK*%
X114300000Y-110490000D03*
%TO.P,PGA1,PICCLK,PICCLK*%
%TO.N,PICCLK*%
X130810000Y-78740000D03*
%TO.P,PGA1,PICD0,PICD0*%
%TO.N,PICD0*%
X133350000Y-78740000D03*
%TO.P,PGA1,PICD1,PICD1*%
%TO.N,PICD1*%
X133350000Y-81280000D03*
%TO.P,PGA1,PLL1,PLL1*%
%TO.N,PLL1*%
X130810000Y-93980000D03*
%TO.P,PGA1,PLL2,PLL2*%
%TO.N,PLL2*%
X130810000Y-91440000D03*
%TO.P,PGA1,PRDY,PRDY*%
%TO.N,PRDY*%
X133350000Y-68580000D03*
%TO.P,PGA1,PREQ,PREQ*%
%TO.N,PREQ*%
X135890000Y-78740000D03*
%TO.P,PGA1,PWRGD,PWRGD*%
%TO.N,PWRGD*%
X121920000Y-110490000D03*
%TO.P,PGA1,REQ0,REQ0*%
%TO.N,REQ0*%
X111760000Y-110490000D03*
%TO.P,PGA1,REQ1,REQ1*%
%TO.N,REQ1*%
X109220000Y-107950000D03*
%TO.P,PGA1,REQ2,REQ2*%
%TO.N,REQ2*%
X111760000Y-107950000D03*
%TO.P,PGA1,REQ3,REQ3*%
%TO.N,REQ3*%
X113030000Y-111760000D03*
%TO.P,PGA1,REQ4,REQ4*%
%TO.N,REQ4*%
X110490000Y-111760000D03*
%TO.P,PGA1,RESET,RESET*%
%TO.N,RESET*%
X93980000Y-107950000D03*
%TO.P,PGA1,RESET2,RESET2*%
%TO.N,VSS*%
X93980000Y-95250000D03*
%TO.P,PGA1,RP,RP*%
%TO.N,RP*%
X118110000Y-114300000D03*
%TO.P,PGA1,RS0,RS0*%
%TO.N,RS0*%
X121920000Y-107950000D03*
%TO.P,PGA1,RS1,RS1*%
%TO.N,RS1*%
X116840000Y-107950000D03*
%TO.P,PGA1,RS2,RS2*%
%TO.N,RS2*%
X124460000Y-110490000D03*
%TO.P,PGA1,RSP,RSP*%
%TO.N,RSP*%
X135890000Y-101600000D03*
%TO.P,PGA1,RSV,RSV*%
%TO.N,unconnected-(PGA1-PadRSV)*%
X90170000Y-96520000D03*
X91440000Y-87630000D03*
X91440000Y-113030000D03*
X101600000Y-74930000D03*
X115570000Y-73660000D03*
X127000000Y-110490000D03*
X130810000Y-81280000D03*
X130810000Y-83820000D03*
X130810000Y-86360000D03*
X132080000Y-95250000D03*
X133350000Y-83820000D03*
X133350000Y-86360000D03*
X133350000Y-93980000D03*
X135890000Y-76200000D03*
X135890000Y-83820000D03*
X135890000Y-86360000D03*
%TO.P,PGA1,RTTCTRL,RTTCTRL*%
%TO.N,RTTCTRL*%
X133350000Y-88900000D03*
%TO.P,PGA1,SLEWCTRL,SLEWCTRL*%
%TO.N,unconnected-(PGA1-PadSLEWCTRL)*%
X123190000Y-73660000D03*
%TO.P,PGA1,SLP,SLP*%
%TO.N,SLP*%
X127000000Y-107950000D03*
%TO.P,PGA1,SMI,SMI*%
%TO.N,SMI*%
X133350000Y-109220000D03*
%TO.P,PGA1,STPCLK,STPCLK*%
%TO.N,STPCLK*%
X133350000Y-106680000D03*
%TO.P,PGA1,TCK,TCK*%
%TO.N,TCK*%
X130810000Y-111760000D03*
%TO.P,PGA1,TDI,TDI*%
%TO.N,TDI*%
X133350000Y-114300000D03*
%TO.P,PGA1,TDO,TDO*%
%TO.N,TDO*%
X135890000Y-114300000D03*
%TO.P,PGA1,THERMDN,THERMDN*%
%TO.N,THERMDC*%
X125730000Y-111760000D03*
%TO.P,PGA1,THERMDP,THERMDP*%
%TO.N,THERMDA*%
X128270000Y-111760000D03*
%TO.P,PGA1,THERMTRIP,THERMTRIP*%
%TO.N,unconnected-(PGA1-PadTHERMTRIP)*%
X124460000Y-107950000D03*
%TO.P,PGA1,TMS,TMS*%
%TO.N,TMS*%
X129540000Y-110490000D03*
%TO.P,PGA1,TRDY,TRDY*%
%TO.N,TRDY*%
X120650000Y-114300000D03*
%TO.P,PGA1,TRST,TRST*%
%TO.N,TRST*%
X130810000Y-114300000D03*
%TO.P,PGA1,VCC,VCC*%
%TO.N,VCC*%
X91440000Y-74930000D03*
X91440000Y-80010000D03*
X91440000Y-85090000D03*
X91440000Y-90170000D03*
X91440000Y-100330000D03*
X91440000Y-105410000D03*
X91440000Y-110490000D03*
X92710000Y-71120000D03*
X93980000Y-74930000D03*
X93980000Y-113030000D03*
X95250000Y-73660000D03*
X95250000Y-78740000D03*
X95250000Y-83820000D03*
X95250000Y-88900000D03*
X95250000Y-93980000D03*
X95250000Y-99060000D03*
X95250000Y-104140000D03*
X95250000Y-109220000D03*
X96520000Y-69850000D03*
X96520000Y-72390000D03*
X99060000Y-113030000D03*
X100330000Y-73660000D03*
X100330000Y-109220000D03*
X101600000Y-69850000D03*
X104140000Y-113030000D03*
X105410000Y-73660000D03*
X105410000Y-109220000D03*
X106680000Y-69850000D03*
X106680000Y-74930000D03*
X109220000Y-113030000D03*
X110490000Y-73660000D03*
X110490000Y-109220000D03*
X111760000Y-69850000D03*
X114300000Y-72390000D03*
X114300000Y-113030000D03*
X115570000Y-109220000D03*
X116840000Y-69850000D03*
X116840000Y-74930000D03*
X119380000Y-72390000D03*
X119380000Y-107950000D03*
X119380000Y-113030000D03*
X120650000Y-109220000D03*
X121920000Y-69850000D03*
X121920000Y-74930000D03*
X124460000Y-72390000D03*
X124460000Y-113030000D03*
X125730000Y-109220000D03*
X127000000Y-69850000D03*
X127000000Y-74930000D03*
X129540000Y-72390000D03*
X129540000Y-77470000D03*
X129540000Y-80010000D03*
X129540000Y-82550000D03*
X129540000Y-87630000D03*
X129540000Y-92710000D03*
X129540000Y-97790000D03*
X129540000Y-102870000D03*
X129540000Y-107950000D03*
X129540000Y-113030000D03*
X132080000Y-69850000D03*
X132080000Y-74930000D03*
X132080000Y-80010000D03*
X132080000Y-85090000D03*
X132080000Y-90170000D03*
X132080000Y-100330000D03*
X132080000Y-105410000D03*
X132080000Y-110490000D03*
X133350000Y-96520000D03*
X134620000Y-72390000D03*
X134620000Y-77470000D03*
X134620000Y-87630000D03*
X134620000Y-92710000D03*
X134620000Y-107950000D03*
X135890000Y-99060000D03*
%TO.P,PGA1,VCC1.5,V_1.5*%
%TO.N,Net-(PGA1-V_1.5)*%
X134620000Y-102870000D03*
%TO.P,PGA1,VCC2.5,V_2.5*%
%TO.N,unconnected-(PGA1-V_2.5-PadVCC2.5)*%
X134620000Y-97790000D03*
%TO.P,PGA1,VCCCMOS,VCCCMOS*%
%TO.N,Net-(PGA1-V_1.5)*%
X134620000Y-100330000D03*
%TO.P,PGA1,VID0,VID0*%
%TO.N,VID0*%
X133350000Y-111760000D03*
%TO.P,PGA1,VID1,VID1*%
%TO.N,VID1*%
X134620000Y-113030000D03*
%TO.P,PGA1,VID2,VID2*%
%TO.N,VID2*%
X135890000Y-111760000D03*
%TO.P,PGA1,VID3,VID3*%
%TO.N,VID3*%
X135890000Y-109220000D03*
%TO.P,PGA1,VREF0,VREF0*%
%TO.N,VREF*%
X130810000Y-73660000D03*
%TO.P,PGA1,VREF1,VREF1*%
X111760000Y-74930000D03*
%TO.P,PGA1,VREF2,VREF2*%
X93980000Y-80010000D03*
%TO.P,PGA1,VREF3,VREF3*%
X96520000Y-87630000D03*
%TO.P,PGA1,VREF4,VREF4*%
X96520000Y-92710000D03*
%TO.P,PGA1,VREF5,VREF5*%
X96520000Y-102870000D03*
%TO.P,PGA1,VREF6,VREF6*%
X104140000Y-110490000D03*
%TO.P,PGA1,VREF7,VREF7*%
X116840000Y-110490000D03*
%TO.P,PGA1,VSS,VSS*%
%TO.N,VSS*%
X90170000Y-111760000D03*
X91440000Y-72390000D03*
X91440000Y-77470000D03*
X91440000Y-82550000D03*
X91440000Y-92710000D03*
X91440000Y-97790000D03*
X91440000Y-102870000D03*
X91440000Y-107950000D03*
X92710000Y-109220000D03*
X92710000Y-111760000D03*
X92710000Y-114300000D03*
X93980000Y-69850000D03*
X93980000Y-72390000D03*
X93980000Y-110490000D03*
X95250000Y-76200000D03*
X95250000Y-81280000D03*
X95250000Y-86360000D03*
X95250000Y-91440000D03*
X95250000Y-96520000D03*
X95250000Y-101600000D03*
X95250000Y-106680000D03*
X96520000Y-113030000D03*
X97790000Y-73660000D03*
X97790000Y-109220000D03*
X99060000Y-69850000D03*
X101600000Y-113030000D03*
X102870000Y-73660000D03*
X102870000Y-109220000D03*
X104140000Y-69850000D03*
X106680000Y-113030000D03*
X107950000Y-73660000D03*
X107950000Y-109220000D03*
X109220000Y-69850000D03*
X111760000Y-72390000D03*
X111760000Y-113030000D03*
X113030000Y-73660000D03*
X113030000Y-109220000D03*
X114300000Y-69850000D03*
X114300000Y-74930000D03*
X116840000Y-72390000D03*
X116840000Y-113030000D03*
X118110000Y-109220000D03*
X119380000Y-69850000D03*
X119380000Y-74930000D03*
X121920000Y-72390000D03*
X121920000Y-113030000D03*
X123190000Y-109220000D03*
X124460000Y-69850000D03*
X124460000Y-74930000D03*
X127000000Y-72390000D03*
X127000000Y-113030000D03*
X129540000Y-69850000D03*
X129540000Y-74930000D03*
X129540000Y-85090000D03*
X129540000Y-90170000D03*
X129540000Y-95250000D03*
X129540000Y-100330000D03*
X129540000Y-105410000D03*
X130810000Y-101600000D03*
X132080000Y-72390000D03*
X132080000Y-77470000D03*
X132080000Y-82550000D03*
X132080000Y-87630000D03*
X132080000Y-92710000D03*
X132080000Y-97790000D03*
X132080000Y-102870000D03*
X132080000Y-107950000D03*
X132080000Y-113030000D03*
X134620000Y-74930000D03*
X134620000Y-80010000D03*
X134620000Y-85090000D03*
X134620000Y-90170000D03*
X134620000Y-95250000D03*
X134620000Y-105410000D03*
X134620000Y-110490000D03*
X135890000Y-68580000D03*
X135890000Y-96520000D03*
%TO.P,PGA1,VTT,VTT*%
%TO.N,VTT*%
X102870000Y-114300000D03*
X105410000Y-111760000D03*
X107950000Y-114300000D03*
X109220000Y-110490000D03*
X114300000Y-107950000D03*
X115570000Y-111760000D03*
X115570000Y-114300000D03*
X118110000Y-73660000D03*
X130810000Y-88900000D03*
X130810000Y-99060000D03*
X133350000Y-76200000D03*
X133350000Y-91440000D03*
X133350000Y-99060000D03*
X135890000Y-88900000D03*
X135890000Y-91440000D03*
%TD*%
D10*
%TO.P,R8,1*%
%TO.N,Net-(R1-Pad1)*%
X120777000Y-92329000D03*
%TO.P,R8,2*%
%TO.N,VSS*%
X119227000Y-92329000D03*
%TD*%
D17*
%TO.P,R11,1*%
%TO.N,VTT*%
X127000000Y-84087000D03*
%TO.P,R11,2*%
%TO.N,Net-(R11-Pad2)*%
X127000000Y-82537000D03*
%TD*%
D18*
%TO.N,VTT*%
X121285000Y-83820000D03*
X121285000Y-86360000D03*
%TO.N,Net-(R11-Pad2)*%
X128524000Y-83900000D03*
%TO.N,VTT*%
X120650000Y-90805000D03*
X120650000Y-89535000D03*
%TO.N,VCC*%
X114300000Y-89535000D03*
X114300000Y-88265000D03*
X114300000Y-85725000D03*
X106680000Y-89535000D03*
X106680000Y-88300000D03*
%TO.N,Net-(R4-Pad2)*%
X123190000Y-99695000D03*
%TO.N,Net-(R3-Pad2)*%
X113030000Y-99695000D03*
%TO.N,Net-(R2-Pad2)*%
X128388626Y-81284186D03*
%TO.N,Net-(R1-Pad1)*%
X137858500Y-83883500D03*
X129540000Y-83778000D03*
%TO.N,VID2_M*%
X128615912Y-101854648D03*
X127000000Y-99710000D03*
%TO.N,TDO*%
X136467248Y-85477759D03*
%TO.N,TDI*%
X136394449Y-88002323D03*
%TO.N,BCLK*%
X123194186Y-92213164D03*
%TO.N,PLL2*%
X121905000Y-93344999D03*
%TO.N,IGNNE*%
X128435003Y-89023386D03*
%TO.N,IERR*%
X131042102Y-95204176D03*
%TO.N,TCK*%
X128564897Y-91819456D03*
D19*
%TO.N,VTT*%
X111760000Y-97155000D03*
D18*
X111760000Y-100965000D03*
%TO.N,Net-(R1-Pad1)*%
X124460000Y-93411112D03*
%TO.N,THERMDC*%
X124390687Y-85794313D03*
X125730000Y-110490000D03*
%TO.N,THERMDA*%
X124445000Y-88250000D03*
%TO.N,STPCLK*%
X128400000Y-90280236D03*
%TO.N,VSS*%
X100330000Y-80645000D03*
X103505000Y-81280000D03*
X109220000Y-79375000D03*
X99060000Y-95885000D03*
X111760000Y-99695000D03*
X116840000Y-86995000D03*
X107950000Y-99695000D03*
X104140000Y-92075000D03*
X118110000Y-93345000D03*
X107950000Y-93345000D03*
X104140000Y-84455000D03*
X107950000Y-95885000D03*
D19*
X111760000Y-84455000D03*
D18*
X114300000Y-94615000D03*
X120650000Y-100965000D03*
X114300000Y-92075000D03*
X127000000Y-78105000D03*
X115570000Y-99695000D03*
X110490000Y-93345000D03*
X102870000Y-97155000D03*
X109220000Y-94615000D03*
X110490000Y-95885000D03*
X105410000Y-102235000D03*
X100330000Y-98425000D03*
X118110000Y-95885000D03*
X118110000Y-81915000D03*
X125730000Y-90805000D03*
X121920000Y-92075000D03*
X101600000Y-94615000D03*
X104140000Y-94615000D03*
X116840000Y-88265000D03*
X113030000Y-93345000D03*
X125730000Y-81915000D03*
X98425000Y-90170000D03*
X101600000Y-86995000D03*
X99060000Y-103505000D03*
X124460000Y-79375000D03*
X115570000Y-95885000D03*
X122109766Y-88454766D03*
X111760000Y-88265000D03*
X124468516Y-94499497D03*
X110490000Y-81915000D03*
X97861409Y-78668591D03*
X107950000Y-92075000D03*
X116840000Y-100965000D03*
X118110000Y-99695000D03*
X123190000Y-81915000D03*
X104140000Y-89535000D03*
X116840000Y-94615000D03*
X114300000Y-81915000D03*
X111760000Y-89535000D03*
X114300000Y-102235000D03*
X111760000Y-92075000D03*
X116840000Y-92075000D03*
X116840000Y-85725000D03*
X105410000Y-80645000D03*
X99060000Y-81915000D03*
X104140000Y-97155000D03*
X102870000Y-103505000D03*
X121920000Y-90805000D03*
X111760000Y-94615000D03*
X110490000Y-92075000D03*
X101600000Y-92075000D03*
X115570000Y-93345000D03*
X98425000Y-92710000D03*
X107950000Y-80645000D03*
X113030000Y-95885000D03*
%TO.N,REQ3*%
X120650000Y-102235000D03*
%TO.N,REQ2*%
X119380000Y-102235000D03*
%TO.N,REQ1*%
X119380000Y-99695000D03*
%TO.N,REQ4*%
X120650000Y-99695000D03*
%TO.N,PWRGD*%
X121920000Y-99695000D03*
%TO.N,TMS*%
X129042043Y-106959999D03*
X127000000Y-88265000D03*
%TO.N,PLL2*%
X113030000Y-102235000D03*
%TO.N,PLL1*%
X110490000Y-103505000D03*
%TO.N,HITM*%
X121920000Y-100965000D03*
%TO.N,TRST*%
X127000000Y-86995000D03*
%TO.N,RESET*%
X99060000Y-98425000D03*
%TO.N,AP1*%
X121920000Y-102235000D03*
%TO.N,CLKREF*%
X115570000Y-102235000D03*
X121920000Y-95885000D03*
%TO.N,Net-(R7-Pad2)*%
X123190000Y-83185000D03*
%TO.N,BINIT*%
X128270000Y-70093804D03*
X120100000Y-78105000D03*
%TO.N,INIT*%
X123205000Y-93461112D03*
X126280000Y-105884526D03*
%TO.N,RS1*%
X123190000Y-102235000D03*
%TO.N,SMI*%
X130857661Y-92935753D03*
%TO.N,BERR*%
X104140000Y-98425000D03*
%TO.N,D26*%
X101600813Y-83145187D03*
%TO.N,VCC*%
X111760000Y-95885000D03*
X111760000Y-85725000D03*
X110490000Y-94615000D03*
X109220000Y-92075000D03*
X115570000Y-94615000D03*
X111760000Y-90805000D03*
X107950000Y-94615000D03*
X116840000Y-93345000D03*
X111760000Y-93345000D03*
X118110000Y-92075000D03*
X113030000Y-94615000D03*
X111760000Y-86995000D03*
X109220000Y-93345000D03*
X118110000Y-94615000D03*
X114300000Y-93345000D03*
X116840000Y-95885000D03*
X109220000Y-95885000D03*
X114300000Y-95885000D03*
D19*
X116951648Y-84665736D03*
D18*
X116840000Y-90805000D03*
X113030000Y-92075000D03*
X115570000Y-92075000D03*
%TO.N,D63*%
X116840000Y-81915000D03*
%TO.N,D62*%
X118960000Y-77601396D03*
X119380000Y-81915000D03*
%TO.N,D19*%
X102870000Y-85725000D03*
%TO.N,D60*%
X111619489Y-79375000D03*
%TO.N,D48*%
X112425833Y-79210592D03*
X111760000Y-81915000D03*
%TO.N,D33*%
X100330002Y-79523403D03*
%TO.N,A21*%
X102870000Y-100965000D03*
%TO.N,A20M*%
X128228000Y-92860000D03*
%TO.N,RSP*%
X123740000Y-105217078D03*
X126365000Y-106680000D03*
%TO.N,A20*%
X100330000Y-100965000D03*
X97790000Y-100965000D03*
%TO.N,A26*%
X101600000Y-100965000D03*
X100330000Y-97083591D03*
%TO.N,RP*%
X122483591Y-106116409D03*
%TO.N,D8*%
X100330000Y-89535000D03*
%TO.N,D9*%
X100256143Y-88300000D03*
%TO.N,D17*%
X101600000Y-89535000D03*
%TO.N,A12*%
X110490000Y-99695000D03*
%TO.N,D32*%
X101600001Y-80496598D03*
%TO.N,D11*%
X96520000Y-86640000D03*
%TO.N,A28*%
X101600000Y-103505000D03*
%TO.N,A17*%
X105410000Y-100850000D03*
X101846091Y-105021091D03*
%TO.N,DEP1*%
X117560000Y-77787500D03*
X120074446Y-76283372D03*
%TO.N,D50*%
X115569999Y-81766597D03*
%TO.N,A5*%
X105338591Y-105973591D03*
X109220000Y-103505000D03*
%TO.N,DEP6*%
X114300000Y-80645000D03*
%TO.N,DEP7*%
X119380000Y-79375000D03*
%TO.N,D34*%
X104140000Y-83145187D03*
%TO.N,D28*%
X102862429Y-83026557D03*
%TO.N,A23*%
X102870000Y-102235000D03*
%TO.N,A34*%
X97370000Y-96520000D03*
X99060000Y-100965000D03*
%TO.N,DEP3*%
X116290000Y-77787500D03*
%TO.N,A35*%
X101600000Y-98425000D03*
%TO.N,D36*%
X104140000Y-81915000D03*
%TO.N,D41*%
X107950000Y-81915000D03*
%TO.N,A6*%
X110490000Y-100965000D03*
%TO.N,A25*%
X102870000Y-99695000D03*
%TO.N,A8*%
X109220000Y-99695000D03*
%TO.N,D15*%
X102870000Y-89535000D03*
%TO.N,A13*%
X101433832Y-106560532D03*
%TO.N,D43*%
X104140000Y-80645000D03*
%TO.N,A11*%
X109220000Y-100965000D03*
%TO.N,D3*%
X102870000Y-92075000D03*
%TO.N,D22*%
X100330000Y-83185000D03*
%TO.N,D51*%
X106045000Y-77470000D03*
%TO.N,D16*%
X101715000Y-85725000D03*
%TO.N,D12*%
X102870000Y-90805000D03*
%TO.N,D25*%
X101591355Y-84551195D03*
%TO.N,A15*%
X104140000Y-99695000D03*
%TO.N,D40*%
X105410000Y-81915000D03*
%TO.N,A14*%
X107530481Y-105408048D03*
%TO.N,D56*%
X115570000Y-80645000D03*
%TO.N,DEP4*%
X120650000Y-81915000D03*
%TO.N,D52*%
X109289313Y-81845687D03*
%TO.N,A29*%
X96520000Y-101600000D03*
%TO.N,D2*%
X100330000Y-95885000D03*
X90170000Y-95250000D03*
%TO.N,D23*%
X97240000Y-81670768D03*
%TO.N,A3*%
X110490000Y-102235000D03*
%TO.N,A32*%
X97329682Y-99636703D03*
%TO.N,D39*%
X106680000Y-81915000D03*
%TO.N,D20*%
X101600000Y-88265000D03*
%TO.N,A16*%
X103751091Y-105021091D03*
%TO.N,D54*%
X113030000Y-81915000D03*
%TO.N,D35*%
X101600000Y-79375000D03*
%TO.N,D53*%
X109855000Y-78105000D03*
%TO.N,A18*%
X104140000Y-102235000D03*
%TO.N,BPM1*%
X122001739Y-80702153D03*
%TO.N,BCLK*%
X113030000Y-100965000D03*
%TO.N,Net-(R6-Pad1)*%
X125730000Y-85725000D03*
%TO.N,PICCLK*%
X124460000Y-81915000D03*
D19*
%TO.N,SLP*%
X123311417Y-90814769D03*
D18*
%TO.N,BNR*%
X118110000Y-100965000D03*
%TO.N,Net-(R5-Pad1)*%
X125730000Y-89535000D03*
%TO.N,AERR*%
X123190000Y-103505000D03*
%TO.N,unconnected-(micro-PGA1-PadBREQ0)*%
X101600000Y-97155000D03*
%TO.N,VSS*%
X107950000Y-85725000D03*
%TD*%
D20*
%TO.N,Net-(R1-Pad1)*%
X130350274Y-82967726D02*
X129540000Y-83778000D01*
X131227726Y-82967726D02*
X130350274Y-82967726D01*
X131662273Y-83402273D02*
X131227726Y-82967726D01*
X132497727Y-83402273D02*
X131662273Y-83402273D01*
X132932274Y-82967726D02*
X132497727Y-83402273D01*
X134186003Y-83396401D02*
X133757328Y-82967726D01*
X135472274Y-82967726D02*
X135043599Y-83396401D01*
X137858500Y-83883500D02*
X136942726Y-82967726D01*
X135043599Y-83396401D02*
X134186003Y-83396401D01*
X136942726Y-82967726D02*
X135472274Y-82967726D01*
X133757328Y-82967726D02*
X132932274Y-82967726D01*
D21*
%TO.N,BSEL0*%
X129540000Y-109220000D02*
X130810000Y-109220000D01*
X128600000Y-108280000D02*
X129540000Y-109220000D01*
X128600000Y-107287258D02*
X128600000Y-108280000D01*
X128200000Y-106887258D02*
X128600000Y-107287258D01*
X126400000Y-103326472D02*
X128200000Y-105126472D01*
X128200000Y-105126472D02*
X128200000Y-106887258D01*
X126400000Y-91762072D02*
X126400000Y-103326472D01*
X126655900Y-91506172D02*
X126400000Y-91762072D01*
%TO.N,THERMDA*%
X124445000Y-90895368D02*
X124445000Y-88250000D01*
X125730000Y-92180368D02*
X124445000Y-90895368D01*
X125730000Y-103505000D02*
X125730000Y-92180368D01*
X127600000Y-107135786D02*
X127600000Y-105375000D01*
X127404935Y-109022847D02*
X128000000Y-108427782D01*
X127600000Y-105375000D02*
X125730000Y-103505000D01*
X127404935Y-109624935D02*
X127404935Y-109022847D01*
X128270000Y-110490000D02*
X127404935Y-109624935D01*
X128000000Y-107535786D02*
X127600000Y-107135786D01*
X128000000Y-108427782D02*
X128000000Y-107535786D01*
X128270000Y-111760000D02*
X128270000Y-110490000D01*
%TO.N,IERR*%
X132537526Y-101842054D02*
X133350000Y-102654528D01*
X133350000Y-102654528D02*
X133350000Y-104140000D01*
X133184781Y-100708209D02*
X132537526Y-101355464D01*
X132537526Y-101355464D02*
X132537526Y-101842054D01*
X131217571Y-97978468D02*
X133184781Y-99945678D01*
X131644657Y-96955343D02*
X131217571Y-97382429D01*
X131217571Y-97382429D02*
X131217571Y-97978468D01*
X133184781Y-99945678D02*
X133184781Y-100708209D01*
X131042102Y-95204176D02*
X131042102Y-95482102D01*
X131644657Y-96084657D02*
X131644657Y-96955343D01*
X131042102Y-95482102D02*
X131644657Y-96084657D01*
%TO.N,SMI*%
X133350000Y-107950000D02*
X133350000Y-109220000D01*
X132502303Y-107102303D02*
X133350000Y-107950000D01*
X132502303Y-106257697D02*
X132502303Y-107102303D01*
X132924407Y-105835593D02*
X132502303Y-106257697D01*
X132502303Y-104562303D02*
X132924407Y-104984407D01*
X132924407Y-104984407D02*
X132924407Y-105835593D01*
X132780000Y-103440000D02*
X132502303Y-103717697D01*
X132502303Y-103717697D02*
X132502303Y-104562303D01*
X132780000Y-102508792D02*
X132780000Y-103440000D01*
X132884781Y-100583945D02*
X132237526Y-101231200D01*
X132884781Y-100074593D02*
X132884781Y-100583945D01*
X132237526Y-101966318D02*
X132780000Y-102508792D01*
X130783023Y-97972835D02*
X132884781Y-100074593D01*
X130783023Y-97763023D02*
X130783023Y-97972835D01*
X129857102Y-96837102D02*
X130783023Y-97763023D01*
X129857102Y-96202898D02*
X129857102Y-96837102D01*
X130492102Y-95567898D02*
X129857102Y-96202898D01*
X130492102Y-94932102D02*
X130492102Y-95567898D01*
X130015354Y-94455354D02*
X130492102Y-94932102D01*
X130015354Y-93710000D02*
X130015354Y-94455354D01*
X132237526Y-101231200D02*
X132237526Y-101966318D01*
X130789601Y-92935753D02*
X130015354Y-93710000D01*
X130857661Y-92935753D02*
X130789601Y-92935753D01*
%TO.N,A20M*%
X131510000Y-101951073D02*
X130947337Y-102513736D01*
X130947337Y-102513736D02*
X130947337Y-104002663D01*
X128228000Y-92860000D02*
X127300000Y-93788000D01*
X127300000Y-93788000D02*
X127300000Y-97041941D01*
X127300000Y-97041941D02*
X131510000Y-101251941D01*
X130947337Y-104002663D02*
X130810000Y-104140000D01*
X131510000Y-101251941D02*
X131510000Y-101951073D01*
%TO.N,TCK*%
X130810000Y-110707294D02*
X130810000Y-111760000D01*
X131918662Y-109598632D02*
X130810000Y-110707294D01*
X131172476Y-108100884D02*
X131918662Y-108847070D01*
X131665005Y-107094995D02*
X131172476Y-107587524D01*
X131206660Y-105806660D02*
X131665005Y-106265005D01*
X131206660Y-105013340D02*
X131206660Y-105806660D01*
X131687006Y-104532994D02*
X131206660Y-105013340D01*
X131687006Y-103753065D02*
X131687006Y-104532994D01*
X131918662Y-108847070D02*
X131918662Y-109598632D01*
X131247337Y-103313396D02*
X131687006Y-103753065D01*
X131665005Y-106265005D02*
X131665005Y-107094995D01*
X131247337Y-102638000D02*
X131247337Y-103313396D01*
X131810000Y-102075337D02*
X131247337Y-102638000D01*
X127635000Y-96952677D02*
X131810000Y-101127677D01*
X131172476Y-107587524D02*
X131172476Y-108100884D01*
X128778000Y-93644525D02*
X127635000Y-94787525D01*
X127635000Y-94787525D02*
X127635000Y-96952677D01*
X128778000Y-92358050D02*
X128778000Y-93644525D01*
X131810000Y-101127677D02*
X131810000Y-102075337D01*
X128564897Y-92144947D02*
X128778000Y-92358050D01*
X128564897Y-91819456D02*
X128564897Y-92144947D01*
%TO.N,TMS*%
X127550000Y-88815000D02*
X127000000Y-88265000D01*
X127550000Y-91862736D02*
X127550000Y-88815000D01*
X126700000Y-92712736D02*
X127550000Y-91862736D01*
X126700000Y-97290469D02*
X126700000Y-92712736D01*
X127970000Y-100256259D02*
X127970000Y-98560469D01*
X130347337Y-102633596D02*
X127970000Y-100256259D01*
X130347337Y-103116182D02*
X130347337Y-102633596D01*
X129680661Y-103782858D02*
X130347337Y-103116182D01*
X129680661Y-104498529D02*
X129680661Y-103782858D01*
X129044741Y-106959999D02*
X130336337Y-105668403D01*
X130336337Y-105668403D02*
X130336337Y-105154205D01*
X127970000Y-98560469D02*
X126700000Y-97290469D01*
X130336337Y-105154205D02*
X129680661Y-104498529D01*
X129042043Y-106959999D02*
X129044741Y-106959999D01*
%TO.N,TRST*%
X129976728Y-112196728D02*
X130810000Y-113030000D01*
X130510000Y-110855000D02*
X129976728Y-111388272D01*
X130510000Y-110583030D02*
X130510000Y-110855000D01*
X129976728Y-111388272D02*
X129976728Y-112196728D01*
X131618662Y-108971334D02*
X131618662Y-109474368D01*
X130872476Y-108225148D02*
X131618662Y-108971334D01*
X130872476Y-108012476D02*
X130872476Y-108225148D01*
X129874840Y-107014840D02*
X130872476Y-108012476D01*
X130636337Y-105792667D02*
X129874840Y-106554164D01*
X130810000Y-113030000D02*
X130810000Y-114300000D01*
X130636337Y-105029941D02*
X130636337Y-105792667D01*
X129980661Y-104374265D02*
X130636337Y-105029941D01*
X129980661Y-103907122D02*
X129980661Y-104374265D01*
X130647337Y-103240446D02*
X129980661Y-103907122D01*
X130647337Y-102509332D02*
X130647337Y-103240446D01*
X128270000Y-100131995D02*
X130647337Y-102509332D01*
X127000000Y-97166205D02*
X128270000Y-98436205D01*
X131618662Y-109474368D02*
X130510000Y-110583030D01*
X127000000Y-92837000D02*
X127000000Y-97166205D01*
X127850000Y-91987000D02*
X127000000Y-92837000D01*
X128270000Y-98436205D02*
X128270000Y-100131995D01*
X127850000Y-87845000D02*
X127850000Y-91987000D01*
X127000000Y-86995000D02*
X127850000Y-87845000D01*
X129874840Y-106554164D02*
X129874840Y-107014840D01*
D20*
%TO.N,Net-(R1-Pad1)*%
X122416681Y-91405000D02*
X122640000Y-91181681D01*
X120777000Y-92329000D02*
X121701000Y-91405000D01*
X121701000Y-91405000D02*
X122416681Y-91405000D01*
%TO.N,VSS*%
X118211000Y-93345000D02*
X119227000Y-92329000D01*
X118110000Y-93345000D02*
X118211000Y-93345000D01*
%TO.N,Net-(R11-Pad2)*%
X128363000Y-83900000D02*
X127000000Y-82537000D01*
X128524000Y-83900000D02*
X128363000Y-83900000D01*
X127013000Y-82524000D02*
X127000000Y-82537000D01*
%TO.N,VSS*%
X125730000Y-82957000D02*
X125502000Y-83185000D01*
X125730000Y-81915000D02*
X125730000Y-82957000D01*
%TO.N,Net-(R2-Pad2)*%
X127669374Y-80564934D02*
X126492000Y-80564934D01*
X128388626Y-81284186D02*
X127669374Y-80564934D01*
%TO.N,VSS*%
X127000000Y-78506934D02*
X127000000Y-78105000D01*
X126492000Y-79014934D02*
X127000000Y-78506934D01*
%TO.N,VTT*%
X123330000Y-84328000D02*
X122568000Y-85090000D01*
X127127000Y-84328000D02*
X123330000Y-84328000D01*
X127381000Y-84074000D02*
X127127000Y-84328000D01*
D22*
X121552000Y-86360000D02*
X121285000Y-86360000D01*
X122441000Y-87249000D02*
X121552000Y-86360000D01*
%TO.N,Pullup*%
X121005000Y-87262000D02*
X121005000Y-87122000D01*
X120891000Y-87376000D02*
X121005000Y-87262000D01*
X119962000Y-87376000D02*
X120891000Y-87376000D01*
X119708000Y-87122000D02*
X119962000Y-87376000D01*
D20*
%TO.N,VTT*%
X121298000Y-83820000D02*
X121285000Y-83820000D01*
D22*
X122568000Y-85090000D02*
X121298000Y-83820000D01*
D20*
%TO.N,Net-(R1-Pad1)*%
X124460000Y-92624868D02*
X124460000Y-93411112D01*
X123403527Y-91568395D02*
X124460000Y-92624868D01*
X122640000Y-90466000D02*
X122640000Y-91181681D01*
X123545000Y-89561000D02*
X122640000Y-90466000D01*
X122640000Y-91181681D02*
X123026714Y-91568395D01*
X124246471Y-85090000D02*
X123545000Y-85791471D01*
X128228000Y-85090000D02*
X124246471Y-85090000D01*
X123026714Y-91568395D02*
X123403527Y-91568395D01*
X129540000Y-83778000D02*
X128228000Y-85090000D01*
X123545000Y-85791471D02*
X123545000Y-89561000D01*
D22*
%TO.N,Pullup*%
X119888000Y-85344000D02*
X121018000Y-85344000D01*
D20*
%TO.N,Net-(R7-Pad2)*%
X123190000Y-83185000D02*
X124320000Y-83185000D01*
D21*
%TO.N,SLP*%
X127000000Y-105752733D02*
X127000000Y-107950000D01*
X125095000Y-103847733D02*
X127000000Y-105752733D01*
X125095000Y-92598352D02*
X125095000Y-103847733D01*
X123311417Y-90814769D02*
X125095000Y-92598352D01*
%TO.N,BCLK*%
X115077818Y-100965000D02*
X113030000Y-100965000D01*
X116418529Y-99624289D02*
X115077818Y-100965000D01*
X116418529Y-98425000D02*
X116418529Y-99624289D01*
X120853235Y-93990294D02*
X116418529Y-98425000D01*
X120853235Y-93618947D02*
X120853235Y-93990294D01*
X121727182Y-92745000D02*
X120853235Y-93618947D01*
X122662350Y-92745000D02*
X121727182Y-92745000D01*
X123194186Y-92213164D02*
X122662350Y-92745000D01*
%TO.N,D12*%
X101003774Y-91401226D02*
X102273774Y-91401226D01*
X98425000Y-92075000D02*
X100330000Y-92075000D01*
X97790000Y-91440000D02*
X98425000Y-92075000D01*
X96290123Y-91440000D02*
X97790000Y-91440000D01*
X95442992Y-92287131D02*
X96290123Y-91440000D01*
X94858034Y-92287131D02*
X95442992Y-92287131D01*
X100330000Y-92075000D02*
X101003774Y-91401226D01*
X93565307Y-91854693D02*
X94425596Y-91854693D01*
X94425596Y-91854693D02*
X94858034Y-92287131D01*
X93126688Y-92293312D02*
X93565307Y-91854693D01*
X92293312Y-92293312D02*
X93126688Y-92293312D01*
X89300000Y-89300000D02*
X92293312Y-92293312D01*
X102273774Y-91401226D02*
X102870000Y-90805000D01*
X89300000Y-87230000D02*
X89300000Y-89300000D01*
X90170000Y-86360000D02*
X89300000Y-87230000D01*
D20*
%TO.N,VTT*%
X120650000Y-89535000D02*
X120457000Y-89535000D01*
X119949000Y-90805000D02*
X119822000Y-90678000D01*
D23*
X120650000Y-90805000D02*
X119949000Y-90805000D01*
D20*
%TO.N,VCC*%
X106413000Y-89535000D02*
X106032000Y-89916000D01*
X106680000Y-89535000D02*
X106413000Y-89535000D01*
D23*
%TO.N,VSS*%
X115443000Y-87122000D02*
X116840000Y-85725000D01*
X116840000Y-85725000D02*
X115819000Y-85725000D01*
X116840000Y-85725000D02*
X117541000Y-85725000D01*
%TO.N,VREF*%
X105095000Y-84643000D02*
X106045000Y-83693000D01*
D20*
X105095000Y-85217000D02*
X105095000Y-84643000D01*
X104460000Y-87630000D02*
X105095000Y-86995000D01*
X96520000Y-87630000D02*
X104460000Y-87630000D01*
D21*
%TO.N,D11*%
X96520000Y-86360000D02*
X93980000Y-83820000D01*
X93980000Y-83820000D02*
X93980000Y-82550000D01*
X96520000Y-86640000D02*
X96520000Y-86360000D01*
D24*
%TO.N,VREF*%
X88900000Y-69850000D02*
X88900000Y-80010000D01*
X91440000Y-67310000D02*
X88900000Y-69850000D01*
X111760000Y-67310000D02*
X91440000Y-67310000D01*
D23*
X105095000Y-85217000D02*
X105095000Y-86995000D01*
%TO.N,Net-(C9-Pad2)*%
X108209000Y-83693000D02*
X108844000Y-84328000D01*
X107595000Y-83693000D02*
X108209000Y-83693000D01*
D20*
%TO.N,VSS*%
X106995000Y-86680000D02*
X106995000Y-86995000D01*
D23*
X107950000Y-85725000D02*
X106995000Y-86680000D01*
X107950000Y-86868000D02*
X108712000Y-87630000D01*
X107950000Y-85725000D02*
X107950000Y-86868000D01*
D20*
X108712000Y-87630000D02*
X108839000Y-87630000D01*
X108590000Y-85725000D02*
X108844000Y-85979000D01*
D25*
X107950000Y-85725000D02*
X108590000Y-85725000D01*
D23*
X107442000Y-85217000D02*
X107950000Y-85725000D01*
X106995000Y-85217000D02*
X107442000Y-85217000D01*
D20*
X110871000Y-84455000D02*
X110744000Y-84328000D01*
%TO.N,VCC*%
X110998000Y-85725000D02*
X110744000Y-85979000D01*
D23*
X111760000Y-85725000D02*
X110998000Y-85725000D01*
X111374000Y-86995000D02*
X110739000Y-87630000D01*
X111760000Y-86995000D02*
X111374000Y-86995000D01*
D20*
%TO.N,VSS*%
X111760000Y-88265000D02*
X111755000Y-88265000D01*
D23*
X111755000Y-88265000D02*
X110739000Y-89281000D01*
D20*
X110993000Y-89535000D02*
X110739000Y-89281000D01*
D23*
X111760000Y-89535000D02*
X110993000Y-89535000D01*
D20*
X110490000Y-91208000D02*
X110766000Y-90932000D01*
D23*
X110490000Y-92075000D02*
X110490000Y-91208000D01*
%TO.N,VCC*%
X106045000Y-88935000D02*
X106680000Y-88300000D01*
X106045000Y-91059000D02*
X106045000Y-88935000D01*
D20*
%TO.N,Net-(C13-Pad2)*%
X108739000Y-91059000D02*
X108866000Y-90932000D01*
D23*
X107595000Y-91059000D02*
X108739000Y-91059000D01*
D25*
%TO.N,Net-(C12-Pad2)*%
X108204000Y-89916000D02*
X108839000Y-89281000D01*
X107582000Y-89916000D02*
X108204000Y-89916000D01*
%TO.N,VCC*%
X114300000Y-89982000D02*
X113604000Y-90678000D01*
X114300000Y-89535000D02*
X114300000Y-89982000D01*
X113665000Y-88900000D02*
X114300000Y-89535000D01*
D20*
X113604000Y-88900000D02*
X113665000Y-88900000D01*
D25*
X114239000Y-88265000D02*
X113604000Y-88900000D01*
D20*
X114300000Y-88265000D02*
X114239000Y-88265000D01*
D25*
X113543000Y-87508000D02*
X114300000Y-88265000D01*
D20*
X113543000Y-87122000D02*
X113543000Y-87508000D01*
D23*
X114300000Y-86365000D02*
X113543000Y-87122000D01*
X114300000Y-85725000D02*
X114300000Y-86365000D01*
D20*
X113919000Y-85725000D02*
X113538000Y-85344000D01*
X114300000Y-85725000D02*
X113919000Y-85725000D01*
D23*
%TO.N,VSS*%
X117541000Y-85725000D02*
X117922000Y-85344000D01*
D20*
X115819000Y-85725000D02*
X115438000Y-85344000D01*
X115570000Y-86995000D02*
X115443000Y-87122000D01*
D23*
X116840000Y-86995000D02*
X115570000Y-86995000D01*
D20*
X116967000Y-87122000D02*
X116840000Y-86995000D01*
X116840000Y-88265000D02*
X116840000Y-88204000D01*
D23*
X116205000Y-88900000D02*
X116840000Y-88265000D01*
X115504000Y-88900000D02*
X116205000Y-88900000D01*
X117287000Y-88265000D02*
X117922000Y-88900000D01*
X116840000Y-88265000D02*
X117287000Y-88265000D01*
X115697000Y-87122000D02*
X116840000Y-88265000D01*
D20*
X115443000Y-87122000D02*
X115697000Y-87122000D01*
D25*
X114305946Y-92075000D02*
X115504000Y-90876946D01*
D20*
X114300000Y-92075000D02*
X114305946Y-92075000D01*
X115504000Y-90876946D02*
X115504000Y-90678000D01*
D25*
X115504000Y-90740946D02*
X116838054Y-92075000D01*
D20*
X116838054Y-92075000D02*
X116840000Y-92075000D01*
X115504000Y-90678000D02*
X115504000Y-90740946D01*
X117922000Y-90993000D02*
X117922000Y-90678000D01*
D25*
X116840000Y-92075000D02*
X117922000Y-90993000D01*
D21*
%TO.N,D19*%
X98390000Y-82022818D02*
X98390000Y-79977793D01*
X98390000Y-79977793D02*
X96520000Y-78107793D01*
X100368377Y-84001195D02*
X98390000Y-82022818D01*
X101819173Y-84001195D02*
X100368377Y-84001195D01*
X102870000Y-85052022D02*
X101819173Y-84001195D01*
X102870000Y-85725000D02*
X102870000Y-85052022D01*
X96520000Y-78107793D02*
X96520000Y-77470000D01*
D23*
%TO.N,VTT*%
X120457000Y-89535000D02*
X119822000Y-88900000D01*
D21*
%TO.N,THERMDC*%
X127000000Y-109220000D02*
X125730000Y-110490000D01*
X127700000Y-108239950D02*
X127000000Y-108939950D01*
X127000000Y-108939950D02*
X127000000Y-109220000D01*
X127700000Y-107660050D02*
X127700000Y-108239950D01*
X127300000Y-107260050D02*
X127700000Y-107660050D01*
X127300000Y-105628469D02*
X127300000Y-107260050D01*
X123895000Y-90875000D02*
X125395000Y-92375000D01*
X124390687Y-85794313D02*
X123895000Y-86290000D01*
X125395000Y-92375000D02*
X125395000Y-103723469D01*
X123895000Y-86290000D02*
X123895000Y-90875000D01*
X125395000Y-103723469D02*
X127300000Y-105628469D01*
D20*
%TO.N,Net-(R5-Pad1)*%
X126234728Y-89535000D02*
X126655900Y-89956172D01*
X125730000Y-89535000D02*
X126234728Y-89535000D01*
%TO.N,Net-(R6-Pad1)*%
X125730000Y-85725000D02*
X125730000Y-86715000D01*
D21*
%TO.N,BSEL1*%
X125180000Y-88815000D02*
X125730000Y-88265000D01*
X127900000Y-105250736D02*
X126030000Y-103380736D01*
X126030000Y-92056104D02*
X125180000Y-91206104D01*
X126030000Y-103380736D02*
X126030000Y-92056104D01*
X125180000Y-91206104D02*
X125180000Y-88815000D01*
X127900000Y-107011522D02*
X127900000Y-105250736D01*
X128300000Y-109190000D02*
X128300000Y-107411522D01*
X128300000Y-107411522D02*
X127900000Y-107011522D01*
X128270000Y-109220000D02*
X128300000Y-109190000D01*
D20*
%TO.N,VSS*%
X119380000Y-98425000D02*
X118110000Y-99695000D01*
X120370000Y-98425000D02*
X119380000Y-98425000D01*
%TO.N,Net-(R4-Pad2)*%
X123190000Y-99695000D02*
X121920000Y-98425000D01*
%TO.N,VSS*%
X115570000Y-98920000D02*
X115075000Y-98425000D01*
X115570000Y-99695000D02*
X115570000Y-98920000D01*
%TO.N,Net-(R3-Pad2)*%
X113030000Y-98920000D02*
X113525000Y-98425000D01*
X113030000Y-99695000D02*
X113030000Y-98920000D01*
D21*
%TO.N,PLL2*%
X113665000Y-101600000D02*
X113030000Y-102235000D01*
X116718529Y-99181471D02*
X116718529Y-99782512D01*
X116718529Y-99782512D02*
X114901041Y-101600000D01*
X114901041Y-101600000D02*
X113665000Y-101600000D01*
X121905000Y-93995000D02*
X116718529Y-99181471D01*
X121905000Y-93344999D02*
X121905000Y-93995000D01*
%TO.N,CLKREF*%
X120650000Y-95885000D02*
X121920000Y-95885000D01*
X117018529Y-100008653D02*
X117018529Y-99516471D01*
X115570000Y-101457182D02*
X117018529Y-100008653D01*
X115570000Y-102235000D02*
X115570000Y-101457182D01*
X117018529Y-99516471D02*
X120650000Y-95885000D01*
%TO.N,A29*%
X93980000Y-99060000D02*
X93980000Y-97790000D01*
X96520000Y-101600000D02*
X93980000Y-99060000D01*
%TO.N,VID2_M*%
X127000000Y-100238736D02*
X128615912Y-101854648D01*
X127000000Y-99710000D02*
X127000000Y-100238736D01*
D20*
%TO.N,VID3*%
X136760000Y-103270000D02*
X138430000Y-101600000D01*
X136760000Y-108350000D02*
X136760000Y-103270000D01*
X135890000Y-109220000D02*
X136760000Y-108350000D01*
%TO.N,VID1*%
X137160000Y-110490000D02*
X138430000Y-109220000D01*
X136110607Y-112792173D02*
X137160000Y-111742780D01*
X134857827Y-112792173D02*
X136110607Y-112792173D01*
X134620000Y-113030000D02*
X134857827Y-112792173D01*
X137160000Y-111742780D02*
X137160000Y-110490000D01*
%TO.N,VID2*%
X137160000Y-109429017D02*
X137160000Y-106680000D01*
X135890000Y-110699017D02*
X137160000Y-109429017D01*
X135890000Y-111760000D02*
X135890000Y-110699017D01*
X137160000Y-106680000D02*
X138430000Y-105410000D01*
%TO.N,VID0*%
X138100480Y-113359520D02*
X138380000Y-113080000D01*
X135560480Y-113359520D02*
X138100480Y-113359520D01*
X135049163Y-113870837D02*
X135560480Y-113359520D01*
X133350000Y-112977665D02*
X134243172Y-113870837D01*
X134243172Y-113870837D02*
X135049163Y-113870837D01*
X133350000Y-111760000D02*
X133350000Y-112977665D01*
%TO.N,TMS*%
X129042044Y-106960000D02*
X129042043Y-106959999D01*
D21*
%TO.N,VID0*%
X138380000Y-113080000D02*
X138430000Y-113030000D01*
%TO.N,STPCLK*%
X133350000Y-105410000D02*
X133350000Y-106680000D01*
X134215975Y-104544025D02*
X133350000Y-105410000D01*
X134215975Y-103735975D02*
X134215975Y-104544025D01*
X133650000Y-103170000D02*
X134215975Y-103735975D01*
X134231635Y-101988365D02*
X133650000Y-102570000D01*
X133650000Y-102570000D02*
X133650000Y-103170000D01*
X133660661Y-100019339D02*
X133660661Y-100640661D01*
X134231635Y-101211635D02*
X134231635Y-101988365D01*
X134219890Y-99460110D02*
X133660661Y-100019339D01*
X132538831Y-96978831D02*
X134219890Y-98659890D01*
X133660661Y-100640661D02*
X134231635Y-101211635D01*
X132538831Y-96061169D02*
X132538831Y-96978831D01*
X132910742Y-95689258D02*
X132538831Y-96061169D01*
X132910742Y-94810742D02*
X132910742Y-95689258D01*
X132489815Y-94389815D02*
X132910742Y-94810742D01*
X134219890Y-98659890D02*
X134219890Y-99460110D01*
X132489815Y-93570185D02*
X132489815Y-94389815D01*
X132780000Y-93280000D02*
X132489815Y-93570185D01*
X132780000Y-92349339D02*
X132780000Y-93280000D01*
X130290000Y-90690000D02*
X131120661Y-90690000D01*
X129993755Y-90986245D02*
X130290000Y-90690000D01*
X128400000Y-90280236D02*
X129106009Y-90986245D01*
X129106009Y-90986245D02*
X129993755Y-90986245D01*
X131120661Y-90690000D02*
X132780000Y-92349339D01*
%TO.N,IGNNE*%
X135890000Y-105410000D02*
X135890000Y-106680000D01*
X135370000Y-103390000D02*
X134983285Y-103776715D01*
X135370000Y-102350000D02*
X135370000Y-103390000D01*
X135006774Y-101986774D02*
X135370000Y-102350000D01*
X135006774Y-101213226D02*
X135006774Y-101986774D01*
X135492215Y-100727785D02*
X135006774Y-101213226D01*
X135492215Y-99932215D02*
X135492215Y-100727785D01*
X135022434Y-99462434D02*
X135492215Y-99932215D01*
X135022434Y-98657566D02*
X135022434Y-99462434D01*
X135500045Y-97400045D02*
X135500045Y-98179955D01*
X135030264Y-96930264D02*
X135500045Y-97400045D01*
X135030264Y-96319075D02*
X135030264Y-96930264D01*
X134620000Y-93980000D02*
X135531364Y-94891364D01*
X134983285Y-104503285D02*
X135890000Y-105410000D01*
X134620000Y-93765075D02*
X134620000Y-93980000D01*
X135531364Y-94891364D02*
X135531364Y-95817975D01*
X129878311Y-89023386D02*
X134620000Y-93765075D01*
X135531364Y-95817975D02*
X135030264Y-96319075D01*
X134983285Y-103776715D02*
X134983285Y-104503285D01*
X128435003Y-89023386D02*
X129878311Y-89023386D01*
X135500045Y-98179955D02*
X135022434Y-98657566D01*
D20*
%TO.N,BCLK*%
X113030000Y-100891497D02*
X113030000Y-100965000D01*
D21*
%TO.N,D2*%
X95679426Y-94820574D02*
X96118930Y-94381070D01*
X98826070Y-94381070D02*
X100330000Y-95885000D01*
X94376256Y-94376256D02*
X94820574Y-94820574D01*
X94820574Y-94820574D02*
X95679426Y-94820574D01*
X96118930Y-94381070D02*
X98826070Y-94381070D01*
X93583744Y-94376256D02*
X94376256Y-94376256D01*
X93125511Y-94834489D02*
X93583744Y-94376256D01*
X92294489Y-94834489D02*
X93125511Y-94834489D01*
X91050841Y-94369159D02*
X91829159Y-94369159D01*
X90170000Y-95250000D02*
X91050841Y-94369159D01*
X91829159Y-94369159D02*
X92294489Y-94834489D01*
%TO.N,AP1*%
X106680000Y-114300000D02*
X105410000Y-114300000D01*
X108428019Y-113508019D02*
X107471981Y-113508019D01*
X108856340Y-113936340D02*
X108428019Y-113508019D01*
X109583660Y-113936340D02*
X108856340Y-113936340D01*
X107471981Y-113508019D02*
X106680000Y-114300000D01*
X110019830Y-113500170D02*
X109583660Y-113936340D01*
X110960170Y-113500170D02*
X110019830Y-113500170D01*
X111240000Y-113780000D02*
X110960170Y-113500170D01*
X116474506Y-109585494D02*
X112280000Y-113780000D01*
X116008420Y-108388420D02*
X116474506Y-108854506D01*
X116474506Y-108854506D02*
X116474506Y-109585494D01*
X116008420Y-107511580D02*
X116008420Y-108388420D01*
X116578928Y-106941072D02*
X116008420Y-107511580D01*
X117213928Y-106941072D02*
X116578928Y-106941072D01*
X121920000Y-102235000D02*
X117213928Y-106941072D01*
X112280000Y-113780000D02*
X111240000Y-113780000D01*
%TO.N,RS1*%
X117475000Y-107950000D02*
X123190000Y-102235000D01*
X116840000Y-107950000D02*
X117475000Y-107950000D01*
%TO.N,HITM*%
X119173375Y-111760000D02*
X118110000Y-111760000D01*
X120198988Y-110734387D02*
X119173375Y-111760000D01*
X119761993Y-109601993D02*
X120198988Y-110038988D01*
X120198988Y-110038988D02*
X120198988Y-110734387D01*
X120495173Y-108322122D02*
X119761993Y-109055302D01*
X120495173Y-106977645D02*
X120495173Y-108322122D01*
X123825000Y-102024264D02*
X123825000Y-103647818D01*
X123400736Y-101600000D02*
X123825000Y-102024264D01*
X122555000Y-101600000D02*
X123400736Y-101600000D01*
X121920000Y-100965000D02*
X122555000Y-101600000D01*
X123825000Y-103647818D02*
X120495173Y-106977645D01*
X119761993Y-109055302D02*
X119761993Y-109601993D01*
D24*
%TO.N,VREF*%
X88900000Y-80010000D02*
X88900000Y-86995000D01*
D20*
X111760000Y-68580000D02*
X111760000Y-67310000D01*
X110913075Y-69426925D02*
X111760000Y-68580000D01*
X90569284Y-93128815D02*
X88928958Y-93128815D01*
X110905226Y-71974774D02*
X111329075Y-71550925D01*
X110913075Y-70273075D02*
X110913075Y-69426925D01*
D24*
X88900000Y-102235000D02*
X88900000Y-93345000D01*
D20*
X111760000Y-74930000D02*
X111760000Y-73660000D01*
X90170000Y-80010000D02*
X88900000Y-80010000D01*
X96520000Y-102870000D02*
X95250000Y-102870000D01*
X94850000Y-87230000D02*
X96120000Y-87230000D01*
X116840000Y-110490000D02*
X116840000Y-111760000D01*
X111329075Y-70689075D02*
X110913075Y-70273075D01*
X91017797Y-102022203D02*
X90588716Y-102451284D01*
X130810000Y-72390000D02*
X131673144Y-71526856D01*
X110905226Y-72805226D02*
X110905226Y-71974774D01*
X91863848Y-102022203D02*
X91017797Y-102022203D01*
X116840000Y-111760000D02*
X113030000Y-115570000D01*
X92710000Y-80010000D02*
X91860495Y-80859505D01*
X93980000Y-80010000D02*
X92710000Y-80010000D01*
X131673144Y-71526856D02*
X131673144Y-70713144D01*
X111760000Y-73660000D02*
X110905226Y-72805226D01*
X88900000Y-85090000D02*
X90170000Y-85090000D01*
X90170000Y-85090000D02*
X92287796Y-87207796D01*
D24*
X92075000Y-115570000D02*
X88900000Y-112395000D01*
X88900000Y-112395000D02*
X88900000Y-102235000D01*
D20*
X93561285Y-102018715D02*
X93132204Y-102447796D01*
D24*
X100965000Y-115570000D02*
X92075000Y-115570000D01*
D20*
X93580321Y-93557895D02*
X93161706Y-93139280D01*
D24*
X128270000Y-67310000D02*
X111760000Y-67310000D01*
D20*
X91073746Y-93633277D02*
X90569284Y-93128815D01*
X96520000Y-92710000D02*
X96097664Y-93132336D01*
X88928958Y-93128815D02*
X88900000Y-93157773D01*
X92280720Y-93139280D02*
X91786723Y-93633277D01*
X104140000Y-110490000D02*
X104140000Y-111760000D01*
X93545387Y-86785692D02*
X94405692Y-86785692D01*
X96097664Y-93132336D02*
X94829398Y-93132336D01*
X93132204Y-102447796D02*
X92289441Y-102447796D01*
X90588716Y-102451284D02*
X89116284Y-102451284D01*
X94398715Y-102018715D02*
X93561285Y-102018715D01*
X101600000Y-114300000D02*
X101600000Y-115570000D01*
X94403839Y-93557895D02*
X93580321Y-93557895D01*
X91786723Y-93633277D02*
X91073746Y-93633277D01*
X93123283Y-87207796D02*
X93545387Y-86785692D01*
X104140000Y-111760000D02*
X101600000Y-114300000D01*
X92289441Y-102447796D02*
X91863848Y-102022203D01*
X96120000Y-87230000D02*
X96520000Y-87630000D01*
D24*
X113030000Y-115570000D02*
X100965000Y-115570000D01*
D20*
X91019505Y-80859505D02*
X90170000Y-80010000D01*
X91860495Y-80859505D02*
X91019505Y-80859505D01*
D24*
X88900000Y-93345000D02*
X88900000Y-86995000D01*
D20*
X95250000Y-102870000D02*
X94398715Y-102018715D01*
X92287796Y-87207796D02*
X93123283Y-87207796D01*
X131673144Y-70713144D02*
X128270000Y-67310000D01*
X111329075Y-71550925D02*
X111329075Y-70689075D01*
X94405692Y-86785692D02*
X94850000Y-87230000D01*
X89116284Y-102451284D02*
X88900000Y-102235000D01*
X93161706Y-93139280D02*
X92280720Y-93139280D01*
X130810000Y-73660000D02*
X130810000Y-72390000D01*
X94829398Y-93132336D02*
X94403839Y-93557895D01*
D21*
%TO.N,REQ3*%
X113030000Y-110490000D02*
X113030000Y-111760000D01*
X115570000Y-107315000D02*
X115570000Y-107950000D01*
X115570000Y-107950000D02*
X113030000Y-110490000D01*
X120650000Y-102235000D02*
X115570000Y-107315000D01*
%TO.N,REQ2*%
X115570000Y-104140000D02*
X111760000Y-107950000D01*
X117475000Y-104140000D02*
X115570000Y-104140000D01*
X119380000Y-102235000D02*
X117475000Y-104140000D01*
%TO.N,REQ1*%
X109220000Y-107315000D02*
X109220000Y-107950000D01*
X113030000Y-103505000D02*
X109220000Y-107315000D01*
X119380000Y-99695000D02*
X119380000Y-100540736D01*
X119380000Y-100540736D02*
X116415736Y-103505000D01*
X116415736Y-103505000D02*
X113030000Y-103505000D01*
%TO.N,REQ4*%
X114635000Y-103805000D02*
X110828932Y-107611068D01*
X111331705Y-108815131D02*
X111331705Y-109648295D01*
X110828932Y-108312358D02*
X111331705Y-108815131D01*
X110490000Y-110490000D02*
X110490000Y-111760000D01*
X120650000Y-99695000D02*
X116540000Y-103805000D01*
X116540000Y-103805000D02*
X114635000Y-103805000D01*
X111331705Y-109648295D02*
X110490000Y-110490000D01*
X110828932Y-107611068D02*
X110828932Y-108312358D01*
%TO.N,BINIT*%
X126979233Y-71354010D02*
X120258804Y-78074439D01*
X128148098Y-70093804D02*
X126979233Y-71262669D01*
X120258804Y-78074439D02*
X120258804Y-78105000D01*
D20*
X120100000Y-78105000D02*
X120258804Y-78105000D01*
D21*
X128270000Y-70093804D02*
X128148098Y-70093804D01*
X126979233Y-71262669D02*
X126979233Y-71354010D01*
%TO.N,INIT*%
X123205000Y-93461112D02*
X123190000Y-93476112D01*
%TO.N,BERR*%
X103505000Y-95742182D02*
X103505000Y-97790000D01*
X93980000Y-92710000D02*
X95444387Y-92710000D01*
X97680415Y-92398052D02*
X97680415Y-92989324D01*
X97137056Y-91854693D02*
X97680415Y-92398052D01*
X101107818Y-93345000D02*
X103505000Y-95742182D01*
X95444387Y-92710000D02*
X96299694Y-91854693D01*
X96299694Y-91854693D02*
X97137056Y-91854693D01*
X98036091Y-93345000D02*
X101107818Y-93345000D01*
X103505000Y-97790000D02*
X104140000Y-98425000D01*
X97680415Y-92989324D02*
X98036091Y-93345000D01*
%TO.N,D63*%
X109220000Y-78526471D02*
X109220000Y-74930000D01*
X116138403Y-82616597D02*
X110413779Y-82616597D01*
X116840000Y-81915000D02*
X116138403Y-82616597D01*
X109855000Y-79161471D02*
X109220000Y-78526471D01*
X109855000Y-82057818D02*
X109855000Y-79161471D01*
X110413779Y-82616597D02*
X109855000Y-82057818D01*
%TO.N,D62*%
X118830000Y-77731396D02*
X118830000Y-81365000D01*
X118960000Y-77601396D02*
X118830000Y-77731396D01*
X118830000Y-81365000D02*
X119380000Y-81915000D01*
%TO.N,D60*%
X118680000Y-70420000D02*
X117540000Y-70420000D01*
X116090000Y-70370000D02*
X115050000Y-70370000D01*
X113842911Y-73202911D02*
X113842911Y-74117089D01*
X117360000Y-70600000D02*
X116320000Y-70600000D01*
X116320000Y-70600000D02*
X116090000Y-70370000D01*
X113030000Y-76835000D02*
X111619489Y-78245511D01*
X115050000Y-70370000D02*
X113550000Y-71870000D01*
X117540000Y-70420000D02*
X117360000Y-70600000D01*
X119690661Y-70600000D02*
X118860000Y-70600000D01*
X120650000Y-69640661D02*
X119690661Y-70600000D01*
X113550000Y-71870000D02*
X113550000Y-72910000D01*
X113030000Y-74930000D02*
X113030000Y-76835000D01*
X113550000Y-72910000D02*
X113842911Y-73202911D01*
X118860000Y-70600000D02*
X118680000Y-70420000D01*
X113842911Y-74117089D02*
X113030000Y-74930000D01*
X120650000Y-68580000D02*
X120650000Y-69640661D01*
X111619489Y-78245511D02*
X111619489Y-79375000D01*
%TO.N,D48*%
X112425833Y-79210592D02*
X112425833Y-81249167D01*
X112425833Y-81249167D02*
X111760000Y-81915000D01*
%TO.N,D33*%
X100330002Y-79523403D02*
X100123453Y-79523403D01*
X100123453Y-79523403D02*
X91720050Y-71120000D01*
D20*
X100330002Y-79523403D02*
X100330002Y-79375002D01*
D21*
X91720050Y-71120000D02*
X90170000Y-71120000D01*
%TO.N,A21*%
X93133075Y-108373075D02*
X93575274Y-108815274D01*
X92313093Y-108373075D02*
X93133075Y-108373075D01*
X93575274Y-108815274D02*
X94168805Y-108815274D01*
X98509079Y-104475000D02*
X99360000Y-104475000D01*
X91466168Y-109220000D02*
X92313093Y-108373075D01*
X94168805Y-108815274D02*
X98509079Y-104475000D01*
X99360000Y-104475000D02*
X102870000Y-100965000D01*
X90170000Y-109220000D02*
X91466168Y-109220000D01*
%TO.N,RSP*%
X123740000Y-105217078D02*
X125202922Y-106680000D01*
X125202922Y-106680000D02*
X126365000Y-106680000D01*
%TO.N,A20*%
X98425000Y-101600000D02*
X99695000Y-101600000D01*
X97790000Y-100965000D02*
X98425000Y-101600000D01*
X99695000Y-101600000D02*
X100330000Y-100965000D01*
%TO.N,A26*%
X100750773Y-97083591D02*
X101542182Y-97875000D01*
X101827818Y-97875000D02*
X102233604Y-98280786D01*
X102233604Y-98280786D02*
X102233604Y-99907132D01*
X102233604Y-99907132D02*
X101600000Y-100540736D01*
X101600000Y-100540736D02*
X101600000Y-100965000D01*
X101542182Y-97875000D02*
X101827818Y-97875000D01*
X100330000Y-97083591D02*
X100750773Y-97083591D01*
%TO.N,RP*%
X120650000Y-110280343D02*
X122890000Y-108040343D01*
X118110000Y-113247639D02*
X120650000Y-110707639D01*
X122890000Y-106522818D02*
X122483591Y-106116409D01*
X122890000Y-108040343D02*
X122890000Y-106522818D01*
X118110000Y-114300000D02*
X118110000Y-113247639D01*
X120650000Y-110707639D02*
X120650000Y-110280343D01*
%TO.N,D8*%
X97250336Y-89535000D02*
X96963191Y-89247855D01*
X96172145Y-89247855D02*
X95770000Y-89650000D01*
X100330000Y-89535000D02*
X97250336Y-89535000D01*
X91440000Y-88900000D02*
X90170000Y-88900000D01*
X96963191Y-89247855D02*
X96172145Y-89247855D01*
X95770000Y-89650000D02*
X94730000Y-89650000D01*
X94730000Y-89650000D02*
X94500000Y-89420000D01*
X93230000Y-89650000D02*
X92190000Y-89650000D01*
X94500000Y-89420000D02*
X93460000Y-89420000D01*
X92190000Y-89650000D02*
X91440000Y-88900000D01*
X93460000Y-89420000D02*
X93230000Y-89650000D01*
%TO.N,D17*%
X96520000Y-88900000D02*
X100965000Y-88900000D01*
X95250000Y-87630000D02*
X96520000Y-88900000D01*
X93980000Y-87630000D02*
X95250000Y-87630000D01*
X100965000Y-88900000D02*
X101600000Y-89535000D01*
%TO.N,A12*%
X95250000Y-113030000D02*
X95250000Y-114300000D01*
X105178553Y-102785000D02*
X101953020Y-106010533D01*
X109890000Y-99095000D02*
X109042182Y-99095000D01*
X101953020Y-106010533D02*
X99948776Y-106010533D01*
X109042182Y-99095000D02*
X108585000Y-99552182D01*
X110490000Y-99695000D02*
X109890000Y-99095000D01*
X105702944Y-102785000D02*
X105178553Y-102785000D01*
X96907778Y-109649646D02*
X97418171Y-110160039D01*
X96907778Y-109051531D02*
X96907778Y-109649646D01*
X97418171Y-110160039D02*
X97418171Y-110861829D01*
X99948776Y-106010533D02*
X96907778Y-109051531D01*
X97418171Y-110861829D02*
X95250000Y-113030000D01*
X108585000Y-99552182D02*
X108585000Y-99902944D01*
X108585000Y-99902944D02*
X105702944Y-102785000D01*
%TO.N,D32*%
X101600001Y-80496598D02*
X100965000Y-79861597D01*
X100965000Y-79375000D02*
X96520000Y-74930000D01*
X100965000Y-79861597D02*
X100965000Y-79375000D01*
%TO.N,A28*%
X101600000Y-103903756D02*
X96520000Y-108983756D01*
X96520000Y-108983756D02*
X96520000Y-110490000D01*
X101600000Y-103505000D02*
X101600000Y-103903756D01*
%TO.N,A17*%
X101846091Y-105021091D02*
X102202438Y-105021091D01*
X102202438Y-105021091D02*
X104775000Y-102448529D01*
X104775000Y-102092182D02*
X105410000Y-101457182D01*
X104775000Y-102448529D02*
X104775000Y-102092182D01*
X105410000Y-101457182D02*
X105410000Y-100850000D01*
D20*
%TO.N,DEP1*%
X117475000Y-77872500D02*
X117475000Y-77964974D01*
X117560000Y-77787500D02*
X117475000Y-77872500D01*
D21*
X119064128Y-76283372D02*
X117560000Y-77787500D01*
X120074446Y-76283372D02*
X119064128Y-76283372D01*
%TO.N,D50*%
X120650000Y-72189477D02*
X120650000Y-71120000D01*
X114935000Y-81131598D02*
X114935000Y-77904477D01*
X115569999Y-81766597D02*
X114935000Y-81131598D01*
X114935000Y-77904477D02*
X120650000Y-72189477D01*
%TO.N,A5*%
X105481409Y-105973591D02*
X107950000Y-103505000D01*
D20*
X105338591Y-105973591D02*
X105481409Y-105973591D01*
D21*
X107950000Y-103505000D02*
X109220000Y-103505000D01*
%TO.N,DEP6*%
X116612182Y-81365000D02*
X117067818Y-81365000D01*
X119607818Y-82465000D02*
X119930000Y-82142818D01*
X116014139Y-82316597D02*
X116290000Y-82040736D01*
X115019999Y-81640861D02*
X115019999Y-81994415D01*
X119930000Y-82142818D02*
X119930000Y-80519264D01*
X116290000Y-81687182D02*
X116612182Y-81365000D01*
X114300000Y-80645000D02*
X114300000Y-80920862D01*
X117390000Y-81687182D02*
X117390000Y-81972818D01*
X117882182Y-82465000D02*
X119607818Y-82465000D01*
X117067818Y-81365000D02*
X117390000Y-81687182D01*
X119930000Y-80519264D02*
X125730000Y-74719264D01*
X125730000Y-74719264D02*
X125730000Y-73660000D01*
X114300000Y-80920862D02*
X115019999Y-81640861D01*
X115342181Y-82316597D02*
X116014139Y-82316597D01*
X117390000Y-81972818D02*
X117882182Y-82465000D01*
X116290000Y-82040736D02*
X116290000Y-81687182D01*
X115019999Y-81994415D02*
X115342181Y-82316597D01*
%TO.N,DEP7*%
X121147434Y-76279748D02*
X121629231Y-76279748D01*
X126679233Y-71229746D02*
X126679233Y-70734233D01*
X125730000Y-69785000D02*
X125730000Y-68580000D01*
X126679233Y-70734233D02*
X125730000Y-69785000D01*
X119380000Y-79375000D02*
X119380000Y-78047182D01*
X121629231Y-76279748D02*
X126679233Y-71229746D01*
X119380000Y-78047182D02*
X121147434Y-76279748D01*
%TO.N,D34*%
X98863965Y-73270953D02*
X98360000Y-72766988D01*
X104140000Y-83145187D02*
X104140000Y-82692828D01*
X102870000Y-81422828D02*
X102870000Y-77470000D01*
X98360000Y-71690000D02*
X97790000Y-71120000D01*
X98863965Y-73463965D02*
X98863965Y-73270953D01*
X102870000Y-77470000D02*
X98863965Y-73463965D01*
X104140000Y-82692828D02*
X102870000Y-81422828D01*
X98360000Y-72766988D02*
X98360000Y-71690000D01*
%TO.N,D28*%
X102235000Y-81953996D02*
X102235000Y-79094950D01*
X102235000Y-79094950D02*
X98239837Y-75099787D01*
X102862429Y-83026557D02*
X102862429Y-82581425D01*
X98239837Y-75099787D02*
X98239837Y-74348336D01*
X95250000Y-70081252D02*
X95250000Y-68580000D01*
X102862429Y-82581425D02*
X102235000Y-81953996D01*
X98563965Y-73395217D02*
X95250000Y-70081252D01*
X98239837Y-74348336D02*
X98563965Y-74024208D01*
X98563965Y-74024208D02*
X98563965Y-73395217D01*
D20*
%TO.N,A23*%
X96520000Y-100330000D02*
X96520000Y-100306075D01*
D21*
%TO.N,A34*%
X99695000Y-100330000D02*
X99060000Y-100965000D01*
X99695000Y-97155000D02*
X99695000Y-100330000D01*
X97370000Y-96520000D02*
X99060000Y-96520000D01*
X99060000Y-96520000D02*
X99695000Y-97155000D01*
%TO.N,DEP3*%
X124803040Y-68923040D02*
X124803040Y-68196169D01*
X125210000Y-69330000D02*
X124803040Y-68923040D01*
X118274251Y-75803249D02*
X119776751Y-75803249D01*
X125289209Y-67710000D02*
X127400000Y-67710000D01*
X124803040Y-68196169D02*
X125289209Y-67710000D01*
X119776751Y-75803249D02*
X125210000Y-70370000D01*
X116290000Y-77787500D02*
X118274251Y-75803249D01*
X125210000Y-70370000D02*
X125210000Y-69330000D01*
X127400000Y-67710000D02*
X128270000Y-68580000D01*
%TO.N,A35*%
X100965000Y-99060000D02*
X100965000Y-101600000D01*
X95473791Y-105410000D02*
X93980000Y-105410000D01*
X97148707Y-104638475D02*
X96245316Y-104638475D01*
X98917182Y-102870000D02*
X97148707Y-104638475D01*
X99695000Y-102870000D02*
X98917182Y-102870000D01*
X100965000Y-101600000D02*
X99695000Y-102870000D01*
X101600000Y-98425000D02*
X100965000Y-99060000D01*
X96245316Y-104638475D02*
X95473791Y-105410000D01*
%TO.N,D36*%
X100330000Y-72178433D02*
X100330000Y-71120000D01*
X104710000Y-81345000D02*
X104710000Y-76558433D01*
X104140000Y-81915000D02*
X104710000Y-81345000D01*
X104710000Y-76558433D02*
X100330000Y-72178433D01*
%TO.N,D41*%
X107519075Y-74499075D02*
X106680000Y-73660000D01*
X107519075Y-75620715D02*
X107519075Y-74499075D01*
X106680000Y-73660000D02*
X106680000Y-72390000D01*
X107950000Y-81915000D02*
X107950000Y-81493529D01*
X107950000Y-81493529D02*
X107315000Y-80858529D01*
X107315000Y-75824790D02*
X107519075Y-75620715D01*
X107315000Y-80858529D02*
X107315000Y-75824790D01*
%TO.N,A6*%
X100330000Y-113030000D02*
X105474454Y-107885546D01*
X109855000Y-103718529D02*
X109855000Y-101600000D01*
X105474454Y-107885546D02*
X105474454Y-106686257D01*
X105474454Y-106686257D02*
X108020711Y-104140000D01*
X109433529Y-104140000D02*
X109855000Y-103718529D01*
X109855000Y-101600000D02*
X110490000Y-100965000D01*
X100330000Y-114300000D02*
X100330000Y-113030000D01*
X108020711Y-104140000D02*
X109433529Y-104140000D01*
%TO.N,A25*%
X96520000Y-105410000D02*
X97149815Y-105410000D01*
X99167818Y-104175000D02*
X102150000Y-101192818D01*
X102150000Y-100415000D02*
X102870000Y-99695000D01*
X97149815Y-105410000D02*
X98384815Y-104175000D01*
X98384815Y-104175000D02*
X99167818Y-104175000D01*
X102150000Y-101192818D02*
X102150000Y-100415000D01*
D20*
%TO.N,A8*%
X109217208Y-99695000D02*
X109220000Y-99695000D01*
D21*
X107315000Y-102235000D02*
X107315000Y-101597208D01*
X107315000Y-101597208D02*
X109217208Y-99695000D01*
X101600000Y-107950000D02*
X107315000Y-102235000D01*
%TO.N,D15*%
X95673075Y-90593075D02*
X96081226Y-91001226D01*
X92710000Y-91440000D02*
X93980000Y-91440000D01*
X96081226Y-91001226D02*
X101403774Y-91001226D01*
X94826925Y-90593075D02*
X95673075Y-90593075D01*
X101403774Y-91001226D02*
X102870000Y-89535000D01*
X93980000Y-91440000D02*
X94826925Y-90593075D01*
%TO.N,A13*%
X101433832Y-106560532D02*
X101433832Y-106640912D01*
X101433832Y-106640912D02*
X97790000Y-110284744D01*
X97790000Y-110284744D02*
X97790000Y-111760000D01*
%TO.N,D43*%
X104140000Y-80645000D02*
X104140000Y-76412697D01*
X104140000Y-76412697D02*
X97790000Y-70062697D01*
X97790000Y-70062697D02*
X97790000Y-68580000D01*
%TO.N,A11*%
X105550026Y-105410000D02*
X109220000Y-101740026D01*
X104788591Y-105745773D02*
X105124364Y-105410000D01*
X105124364Y-105410000D02*
X105550026Y-105410000D01*
X109220000Y-101740026D02*
X109220000Y-100965000D01*
X104788591Y-106242743D02*
X104788591Y-105745773D01*
X101600000Y-110490000D02*
X101600000Y-109431334D01*
X101600000Y-109431334D02*
X104788591Y-106242743D01*
%TO.N,D22*%
X103412429Y-83254375D02*
X103412429Y-82553934D01*
X100330000Y-83185000D02*
X100840187Y-83695187D01*
X102971617Y-83695187D02*
X103412429Y-83254375D01*
X102535000Y-78405000D02*
X99060000Y-74930000D01*
X103412429Y-82553934D02*
X102535000Y-81676505D01*
X100840187Y-83695187D02*
X102971617Y-83695187D01*
X102535000Y-81676505D02*
X102535000Y-78405000D01*
%TO.N,D51*%
X105410000Y-68580000D02*
X105410000Y-69850000D01*
X106301673Y-71498327D02*
X105825999Y-71974001D01*
X105825999Y-72805999D02*
X106280000Y-73260000D01*
X106301673Y-70741673D02*
X106301673Y-71498327D01*
X105410000Y-74930000D02*
X105410000Y-76835000D01*
X106280000Y-74060000D02*
X105410000Y-74930000D01*
X105410000Y-76835000D02*
X106045000Y-77470000D01*
X105410000Y-69850000D02*
X106301673Y-70741673D01*
X105825999Y-71974001D02*
X105825999Y-72805999D01*
X106280000Y-73260000D02*
X106280000Y-74060000D01*
%TO.N,D16*%
X97790000Y-81442950D02*
X97412224Y-81065174D01*
X97790000Y-83185000D02*
X97790000Y-81442950D01*
X101715000Y-85725000D02*
X100330000Y-85725000D01*
X100330000Y-85725000D02*
X97790000Y-83185000D01*
X96527474Y-81065174D02*
X93980000Y-78517700D01*
X93980000Y-78517700D02*
X93980000Y-77470000D01*
X97412224Y-81065174D02*
X96527474Y-81065174D01*
%TO.N,D25*%
X98090000Y-80310000D02*
X92710000Y-74930000D01*
X99580459Y-84551195D02*
X98090000Y-83060736D01*
X101591355Y-84551195D02*
X99580459Y-84551195D01*
X98090000Y-83060736D02*
X98090000Y-80310000D01*
X92710000Y-74930000D02*
X92710000Y-73660000D01*
%TO.N,A15*%
X96081713Y-109658287D02*
X95250000Y-110490000D01*
X95661703Y-107746640D02*
X95661703Y-108296703D01*
X103505000Y-102377818D02*
X103012818Y-102870000D01*
X101457182Y-102870000D02*
X99552182Y-104775000D01*
X95250000Y-110490000D02*
X95250000Y-111760000D01*
X103505000Y-101107818D02*
X103505000Y-102377818D01*
X98633343Y-104775000D02*
X95661703Y-107746640D01*
X95661703Y-108296703D02*
X96081713Y-108716713D01*
X96081713Y-108716713D02*
X96081713Y-109658287D01*
X104140000Y-99695000D02*
X104140000Y-100472818D01*
X99552182Y-104775000D02*
X98633343Y-104775000D01*
X104140000Y-100472818D02*
X103505000Y-101107818D01*
X103012818Y-102870000D02*
X101457182Y-102870000D01*
%TO.N,D40*%
X108163529Y-82550000D02*
X108585000Y-82128529D01*
X107950000Y-72390000D02*
X107950000Y-71120000D01*
X105410000Y-81915000D02*
X106045000Y-82550000D01*
X108820000Y-73870434D02*
X108820000Y-73260000D01*
X108585000Y-80250293D02*
X107950000Y-79615293D01*
X107950000Y-74740434D02*
X108820000Y-73870434D01*
X108585000Y-82128529D02*
X108585000Y-80250293D01*
X108820000Y-73260000D02*
X107950000Y-72390000D01*
X106045000Y-82550000D02*
X108163529Y-82550000D01*
X107950000Y-79615293D02*
X107950000Y-74740434D01*
%TO.N,A14*%
X106680000Y-109285000D02*
X106680000Y-110490000D01*
X105824454Y-107114075D02*
X105824454Y-108429454D01*
X107530481Y-105408048D02*
X105824454Y-107114075D01*
X105824454Y-108429454D02*
X106680000Y-109285000D01*
%TO.N,D56*%
X122143741Y-71120000D02*
X123190000Y-71120000D01*
X115570000Y-77693741D02*
X122143741Y-71120000D01*
X115570000Y-80645000D02*
X115570000Y-77693741D01*
%TO.N,DEP4*%
X121285000Y-81280000D02*
X121285000Y-79588528D01*
X121285000Y-79588528D02*
X127213528Y-73660000D01*
X127213528Y-73660000D02*
X128270000Y-73660000D01*
X120650000Y-81915000D02*
X121285000Y-81280000D01*
%TO.N,D52*%
X109289313Y-81845687D02*
X108885000Y-81441374D01*
X108885000Y-81441374D02*
X108885000Y-80055803D01*
X108885000Y-80055803D02*
X108250000Y-79420803D01*
X108250000Y-79420803D02*
X108250000Y-74864698D01*
X108250000Y-74864698D02*
X109220000Y-73894698D01*
X109220000Y-73894698D02*
X109220000Y-72390000D01*
%TO.N,D23*%
X92710000Y-77671964D02*
X92710000Y-76200000D01*
X96708804Y-81670768D02*
X92710000Y-77671964D01*
X97240000Y-81670768D02*
X96708804Y-81670768D01*
%TO.N,A3*%
X111040000Y-100737182D02*
X111040000Y-101685000D01*
X111040000Y-101685000D02*
X110490000Y-102235000D01*
X100117070Y-110490000D02*
X104488591Y-106118479D01*
X107875100Y-101532082D02*
X108992182Y-100415000D01*
X104488591Y-106118479D02*
X104488591Y-105621509D01*
X99060000Y-110490000D02*
X100117070Y-110490000D01*
X104488591Y-105621509D02*
X107875100Y-102235000D01*
X110717818Y-100415000D02*
X111040000Y-100737182D01*
X108992182Y-100415000D02*
X110717818Y-100415000D01*
X107875100Y-102235000D02*
X107875100Y-101532082D01*
%TO.N,A32*%
X97329682Y-99636703D02*
X97096703Y-99636703D01*
X96520000Y-96520000D02*
X96520000Y-95250000D01*
X97096703Y-99636703D02*
X95645477Y-98185477D01*
X95645477Y-97394523D02*
X96520000Y-96520000D01*
X95645477Y-98185477D02*
X95645477Y-97394523D01*
%TO.N,D39*%
X106680000Y-81915000D02*
X106680000Y-79375000D01*
X102870000Y-72390000D02*
X101600000Y-72390000D01*
X105069276Y-74589276D02*
X102870000Y-72390000D01*
X105069276Y-77764276D02*
X105069276Y-74589276D01*
X106680000Y-79375000D02*
X105069276Y-77764276D01*
%TO.N,A16*%
X98678006Y-112141994D02*
X97790000Y-113030000D01*
X101661596Y-107110586D02*
X101388422Y-107110586D01*
X98192731Y-110306277D02*
X98192731Y-110827731D01*
X103751091Y-105021091D02*
X101661596Y-107110586D01*
X98678006Y-111313006D02*
X98678006Y-112141994D01*
X98192731Y-110827731D02*
X98678006Y-111313006D01*
X97790000Y-113030000D02*
X97790000Y-114300000D01*
X101388422Y-107110586D02*
X98192731Y-110306277D01*
%TO.N,D54*%
X115570000Y-72390000D02*
X114714454Y-73245546D01*
X114714454Y-74074454D02*
X115154773Y-74514773D01*
X115570000Y-71120000D02*
X115570000Y-72390000D01*
X115154773Y-74514773D02*
X115154773Y-76562892D01*
X114714454Y-73245546D02*
X114714454Y-74074454D01*
X113030000Y-78687665D02*
X113030000Y-81915000D01*
X115154773Y-76562892D02*
X113030000Y-78687665D01*
%TO.N,D35*%
X101600000Y-79375000D02*
X97790000Y-75565000D01*
X97790000Y-74930000D02*
X92710000Y-69850000D01*
X97790000Y-75565000D02*
X97790000Y-74930000D01*
X92710000Y-69850000D02*
X91440000Y-69850000D01*
%TO.N,D53*%
X112042991Y-71402991D02*
X112042991Y-70837009D01*
X112042991Y-70837009D02*
X113989339Y-68890661D01*
X112510000Y-72910000D02*
X112510000Y-71870000D01*
X112160000Y-73260000D02*
X112510000Y-72910000D01*
X113989339Y-68890661D02*
X114820000Y-68890661D01*
X112160000Y-73995000D02*
X112160000Y-73260000D01*
X116630661Y-68580000D02*
X118110000Y-68580000D01*
X115259339Y-69330000D02*
X115880661Y-69330000D01*
X115880661Y-69330000D02*
X116630661Y-68580000D01*
X109917144Y-78105000D02*
X112648611Y-75373533D01*
X112510000Y-71870000D02*
X112042991Y-71402991D01*
X112648611Y-74483611D02*
X112160000Y-73995000D01*
X112648611Y-75373533D02*
X112648611Y-74483611D01*
X114820000Y-68890661D02*
X115259339Y-69330000D01*
X109855000Y-78105000D02*
X109917144Y-78105000D01*
%TO.N,A18*%
X102235000Y-97012182D02*
X102235000Y-97297818D01*
X104690000Y-99297182D02*
X104690000Y-101685000D01*
X96820000Y-96220000D02*
X97790000Y-95250000D01*
X96520000Y-96944264D02*
X96820000Y-96644264D01*
X99780000Y-96112818D02*
X100200773Y-96533591D01*
X99270736Y-95250000D02*
X99780000Y-95759264D01*
X96520000Y-97790000D02*
X96520000Y-96944264D01*
X102235000Y-97297818D02*
X103912182Y-98975000D01*
X97790000Y-95250000D02*
X99270736Y-95250000D01*
X104367818Y-98975000D02*
X104690000Y-99297182D01*
X104690000Y-101685000D02*
X104140000Y-102235000D01*
X100200773Y-96533591D02*
X101756409Y-96533591D01*
X96820000Y-96644264D02*
X96820000Y-96220000D01*
X99780000Y-95759264D02*
X99780000Y-96112818D01*
X101756409Y-96533591D02*
X102235000Y-97012182D01*
X103912182Y-98975000D02*
X104367818Y-98975000D01*
%TO.N,AERR*%
X119380000Y-109013031D02*
X120195173Y-108197858D01*
X120195173Y-108197858D02*
X120195173Y-106499827D01*
X120195173Y-106499827D02*
X123190000Y-103505000D01*
X119380000Y-110490000D02*
X119380000Y-109013031D01*
%TO.N,PWRGD*%
X123190000Y-108164607D02*
X121920000Y-109434607D01*
X121920000Y-109434607D02*
X121920000Y-110490000D01*
X123190000Y-104989260D02*
X123190000Y-108164607D01*
X121920000Y-99695000D02*
X124460000Y-102235000D01*
X124460000Y-102235000D02*
X124460000Y-103719260D01*
X124460000Y-103719260D02*
X123190000Y-104989260D01*
D23*
%TO.N,VSS*%
X111760000Y-84455000D02*
X110871000Y-84455000D01*
D21*
%TO.N,INIT*%
X123825000Y-95885000D02*
X123825000Y-94081112D01*
X124760000Y-104364526D02*
X124760000Y-96820000D01*
X124760000Y-96820000D02*
X123825000Y-95885000D01*
X123825000Y-94081112D02*
X123205000Y-93461112D01*
X126280000Y-105884526D02*
X124760000Y-104364526D01*
%TO.N,PICCLK*%
X127947818Y-77555000D02*
X126772182Y-77555000D01*
X126772182Y-77555000D02*
X125730000Y-78597182D01*
X130810000Y-78740000D02*
X129132818Y-78740000D01*
X125730000Y-78882818D02*
X124460000Y-80152818D01*
X124460000Y-80152818D02*
X124460000Y-81915000D01*
X125730000Y-78597182D02*
X125730000Y-78882818D01*
X129132818Y-78740000D02*
X127947818Y-77555000D01*
D23*
%TO.N,VSS*%
X117922000Y-87122000D02*
X116967000Y-87122000D01*
X116840000Y-88204000D02*
X117922000Y-87122000D01*
D21*
%TO.N,D26*%
X98690000Y-78626193D02*
X92759178Y-72695371D01*
X98690000Y-80275000D02*
X98690000Y-78626193D01*
X101560187Y-83145187D02*
X98690000Y-80275000D01*
X92759178Y-72695371D02*
X92404629Y-72695371D01*
X92404629Y-72695371D02*
X91440000Y-73660000D01*
X101600813Y-83145187D02*
X101560187Y-83145187D01*
X91440000Y-73660000D02*
X90170000Y-73660000D01*
%TO.N,BPM1*%
X132080000Y-73660000D02*
X133350000Y-73660000D01*
X129540000Y-76200000D02*
X132080000Y-73660000D01*
X122001739Y-80563261D02*
X126365000Y-76200000D01*
X126365000Y-76200000D02*
X129540000Y-76200000D01*
X122001739Y-80702153D02*
X122001739Y-80563261D01*
%TO.N,BNR*%
X106822818Y-107950000D02*
X106680000Y-107950000D01*
X111902818Y-102870000D02*
X106822818Y-107950000D01*
X116205000Y-102870000D02*
X111902818Y-102870000D01*
X118110000Y-100965000D02*
X116205000Y-102870000D01*
%TD*%
M02*
