%TF.GenerationSoftware,KiCad,Pcbnew,8.0.2*%
%TF.CreationDate,2024-05-09T20:12:16+03:00*%
%TF.ProjectId,MobileAdapter,4d6f6269-6c65-4416-9461-707465722e6b,rev?*%
%TF.SameCoordinates,Original*%
%TF.FileFunction,Drillmap*%
%TF.FilePolarity,Positive*%
%FSLAX45Y45*%
G04 Gerber Fmt 4.5, Leading zero omitted, Abs format (unit mm)*
G04 Created by KiCad (PCBNEW 8.0.2) date 2024-05-09 20:12:16*
%MOMM*%
%LPD*%
G01*
G04 APERTURE LIST*
%ADD10C,0.100000*%
%ADD11C,0.200000*%
G04 APERTURE END LIST*
D10*
X8793200Y-6644500D02*
X13792200Y-6644500D01*
X13792200Y-11643500D01*
X8793200Y-11643500D01*
X8793200Y-6644500D01*
D11*
D10*
X9764000Y-10335500D02*
X9794000Y-10365500D01*
X9794000Y-10335500D02*
X9764000Y-10365500D01*
X9891000Y-9573500D02*
X9921000Y-9603500D01*
X9921000Y-9573500D02*
X9891000Y-9603500D01*
X10145000Y-8176500D02*
X10175000Y-8206500D01*
X10175000Y-8176500D02*
X10145000Y-8206500D01*
X10145000Y-9446500D02*
X10175000Y-9476500D01*
X10175000Y-9446500D02*
X10145000Y-9476500D01*
X10272000Y-9700500D02*
X10302000Y-9730500D01*
X10302000Y-9700500D02*
X10272000Y-9730500D01*
X10399000Y-8049500D02*
X10429000Y-8079500D01*
X10429000Y-8049500D02*
X10399000Y-8079500D01*
X10399000Y-8938500D02*
X10429000Y-8968500D01*
X10429000Y-8938500D02*
X10399000Y-8968500D01*
X10399000Y-9192500D02*
X10429000Y-9222500D01*
X10429000Y-9192500D02*
X10399000Y-9222500D01*
X10399000Y-9446500D02*
X10429000Y-9476500D01*
X10429000Y-9446500D02*
X10399000Y-9476500D01*
X10399000Y-9700500D02*
X10429000Y-9730500D01*
X10429000Y-9700500D02*
X10399000Y-9730500D01*
X10653000Y-7795500D02*
X10683000Y-7825500D01*
X10683000Y-7795500D02*
X10653000Y-7825500D01*
X10653000Y-8811500D02*
X10683000Y-8841500D01*
X10683000Y-8811500D02*
X10653000Y-8841500D01*
X10653000Y-8938500D02*
X10683000Y-8968500D01*
X10683000Y-8938500D02*
X10653000Y-8968500D01*
X10780000Y-8557500D02*
X10810000Y-8587500D01*
X10810000Y-8557500D02*
X10780000Y-8587500D01*
X10780000Y-9192500D02*
X10810000Y-9222500D01*
X10810000Y-9192500D02*
X10780000Y-9222500D01*
X10780000Y-9319500D02*
X10810000Y-9349500D01*
X10810000Y-9319500D02*
X10780000Y-9349500D01*
X10780000Y-9446500D02*
X10810000Y-9476500D01*
X10810000Y-9446500D02*
X10780000Y-9476500D01*
X10780000Y-9573500D02*
X10810000Y-9603500D01*
X10810000Y-9573500D02*
X10780000Y-9603500D01*
X10907000Y-7795500D02*
X10937000Y-7825500D01*
X10937000Y-7795500D02*
X10907000Y-7825500D01*
X10907000Y-9192500D02*
X10937000Y-9222500D01*
X10937000Y-9192500D02*
X10907000Y-9222500D01*
X10907000Y-9319500D02*
X10937000Y-9349500D01*
X10937000Y-9319500D02*
X10907000Y-9349500D01*
X10907000Y-9446500D02*
X10937000Y-9476500D01*
X10937000Y-9446500D02*
X10907000Y-9476500D01*
X10907000Y-9573500D02*
X10937000Y-9603500D01*
X10937000Y-9573500D02*
X10907000Y-9603500D01*
X11034000Y-9192500D02*
X11064000Y-9222500D01*
X11064000Y-9192500D02*
X11034000Y-9222500D01*
X11034000Y-9319500D02*
X11064000Y-9349500D01*
X11064000Y-9319500D02*
X11034000Y-9349500D01*
X11034000Y-9446500D02*
X11064000Y-9476500D01*
X11064000Y-9446500D02*
X11034000Y-9476500D01*
X11034000Y-9573500D02*
X11064000Y-9603500D01*
X11064000Y-9573500D02*
X11034000Y-9603500D01*
X11161000Y-8176500D02*
X11191000Y-8206500D01*
X11191000Y-8176500D02*
X11161000Y-8206500D01*
X11161000Y-8430500D02*
X11191000Y-8460500D01*
X11191000Y-8430500D02*
X11161000Y-8460500D01*
X11161000Y-8557500D02*
X11191000Y-8587500D01*
X11191000Y-8557500D02*
X11161000Y-8587500D01*
X11161000Y-8684500D02*
X11191000Y-8714500D01*
X11191000Y-8684500D02*
X11161000Y-8714500D01*
X11161000Y-8811500D02*
X11191000Y-8841500D01*
X11191000Y-8811500D02*
X11161000Y-8841500D01*
X11161000Y-8938500D02*
X11191000Y-8968500D01*
X11191000Y-8938500D02*
X11161000Y-8968500D01*
X11161000Y-9065500D02*
X11191000Y-9095500D01*
X11191000Y-9065500D02*
X11161000Y-9095500D01*
X11161000Y-9192500D02*
X11191000Y-9222500D01*
X11191000Y-9192500D02*
X11161000Y-9222500D01*
X11161000Y-9319500D02*
X11191000Y-9349500D01*
X11191000Y-9319500D02*
X11161000Y-9349500D01*
X11161000Y-9446500D02*
X11191000Y-9476500D01*
X11191000Y-9446500D02*
X11161000Y-9476500D01*
X11161000Y-9573500D02*
X11191000Y-9603500D01*
X11191000Y-9573500D02*
X11161000Y-9603500D01*
X11161000Y-9700500D02*
X11191000Y-9730500D01*
X11191000Y-9700500D02*
X11161000Y-9730500D01*
X11288000Y-9192500D02*
X11318000Y-9222500D01*
X11318000Y-9192500D02*
X11288000Y-9222500D01*
X11288000Y-9319500D02*
X11318000Y-9349500D01*
X11318000Y-9319500D02*
X11288000Y-9349500D01*
X11288000Y-9446500D02*
X11318000Y-9476500D01*
X11318000Y-9446500D02*
X11288000Y-9476500D01*
X11288000Y-9573500D02*
X11318000Y-9603500D01*
X11318000Y-9573500D02*
X11288000Y-9603500D01*
X11415000Y-8176500D02*
X11445000Y-8206500D01*
X11445000Y-8176500D02*
X11415000Y-8206500D01*
X11415000Y-9192500D02*
X11445000Y-9222500D01*
X11445000Y-9192500D02*
X11415000Y-9222500D01*
X11415000Y-9319500D02*
X11445000Y-9349500D01*
X11445000Y-9319500D02*
X11415000Y-9349500D01*
X11415000Y-9446500D02*
X11445000Y-9476500D01*
X11445000Y-9446500D02*
X11415000Y-9476500D01*
X11415000Y-9573500D02*
X11445000Y-9603500D01*
X11445000Y-9573500D02*
X11415000Y-9603500D01*
X11542000Y-9192500D02*
X11572000Y-9222500D01*
X11572000Y-9192500D02*
X11542000Y-9222500D01*
X11542000Y-9319500D02*
X11572000Y-9349500D01*
X11572000Y-9319500D02*
X11542000Y-9349500D01*
X11542000Y-9446500D02*
X11572000Y-9476500D01*
X11572000Y-9446500D02*
X11542000Y-9476500D01*
X11542000Y-9573500D02*
X11572000Y-9603500D01*
X11572000Y-9573500D02*
X11542000Y-9603500D01*
X11669000Y-8430500D02*
X11699000Y-8460500D01*
X11699000Y-8430500D02*
X11669000Y-8460500D01*
X11669000Y-8557500D02*
X11699000Y-8587500D01*
X11699000Y-8557500D02*
X11669000Y-8587500D01*
X11669000Y-8684500D02*
X11699000Y-8714500D01*
X11699000Y-8684500D02*
X11669000Y-8714500D01*
X11669000Y-8811500D02*
X11699000Y-8841500D01*
X11699000Y-8811500D02*
X11669000Y-8841500D01*
X11669000Y-9065500D02*
X11699000Y-9095500D01*
X11699000Y-9065500D02*
X11669000Y-9095500D01*
X11669000Y-9192500D02*
X11699000Y-9222500D01*
X11699000Y-9192500D02*
X11669000Y-9222500D01*
X11669000Y-9319500D02*
X11699000Y-9349500D01*
X11699000Y-9319500D02*
X11669000Y-9349500D01*
X11669000Y-9446500D02*
X11699000Y-9476500D01*
X11699000Y-9446500D02*
X11669000Y-9476500D01*
X11669000Y-9573500D02*
X11699000Y-9603500D01*
X11699000Y-9573500D02*
X11669000Y-9603500D01*
X11796000Y-8176500D02*
X11826000Y-8206500D01*
X11826000Y-8176500D02*
X11796000Y-8206500D01*
X11796000Y-9192500D02*
X11826000Y-9222500D01*
X11826000Y-9192500D02*
X11796000Y-9222500D01*
X11796000Y-9319500D02*
X11826000Y-9349500D01*
X11826000Y-9319500D02*
X11796000Y-9349500D01*
X11796000Y-9446500D02*
X11826000Y-9476500D01*
X11826000Y-9446500D02*
X11796000Y-9476500D01*
X11796000Y-9573500D02*
X11826000Y-9603500D01*
X11826000Y-9573500D02*
X11796000Y-9603500D01*
X12177000Y-8049500D02*
X12207000Y-8079500D01*
X12207000Y-8049500D02*
X12177000Y-8079500D01*
X12177000Y-8811500D02*
X12207000Y-8841500D01*
X12207000Y-8811500D02*
X12177000Y-8841500D01*
X12177000Y-9065500D02*
X12207000Y-9095500D01*
X12207000Y-9065500D02*
X12177000Y-9095500D01*
X12177000Y-9192500D02*
X12207000Y-9222500D01*
X12207000Y-9192500D02*
X12177000Y-9222500D01*
X12177000Y-9954500D02*
X12207000Y-9984500D01*
X12207000Y-9954500D02*
X12177000Y-9984500D01*
X12304000Y-9573500D02*
X12334000Y-9603500D01*
X12334000Y-9573500D02*
X12304000Y-9603500D01*
X12685000Y-7795500D02*
X12715000Y-7825500D01*
X12715000Y-7795500D02*
X12685000Y-7825500D01*
X9049500Y-7112000D02*
G75*
G02*
X8984500Y-7112000I-32500J0D01*
G01*
X8984500Y-7112000D02*
G75*
G02*
X9049500Y-7112000I32500J0D01*
G01*
X9049500Y-7366000D02*
G75*
G02*
X8984500Y-7366000I-32500J0D01*
G01*
X8984500Y-7366000D02*
G75*
G02*
X9049500Y-7366000I32500J0D01*
G01*
X9049500Y-7620000D02*
G75*
G02*
X8984500Y-7620000I-32500J0D01*
G01*
X8984500Y-7620000D02*
G75*
G02*
X9049500Y-7620000I32500J0D01*
G01*
X9049500Y-7874000D02*
G75*
G02*
X8984500Y-7874000I-32500J0D01*
G01*
X8984500Y-7874000D02*
G75*
G02*
X9049500Y-7874000I32500J0D01*
G01*
X9049500Y-8128000D02*
G75*
G02*
X8984500Y-8128000I-32500J0D01*
G01*
X8984500Y-8128000D02*
G75*
G02*
X9049500Y-8128000I32500J0D01*
G01*
X9049500Y-8382000D02*
G75*
G02*
X8984500Y-8382000I-32500J0D01*
G01*
X8984500Y-8382000D02*
G75*
G02*
X9049500Y-8382000I32500J0D01*
G01*
X9049500Y-8636000D02*
G75*
G02*
X8984500Y-8636000I-32500J0D01*
G01*
X8984500Y-8636000D02*
G75*
G02*
X9049500Y-8636000I32500J0D01*
G01*
X9049500Y-8890000D02*
G75*
G02*
X8984500Y-8890000I-32500J0D01*
G01*
X8984500Y-8890000D02*
G75*
G02*
X9049500Y-8890000I32500J0D01*
G01*
X9049500Y-9144000D02*
G75*
G02*
X8984500Y-9144000I-32500J0D01*
G01*
X8984500Y-9144000D02*
G75*
G02*
X9049500Y-9144000I32500J0D01*
G01*
X9049500Y-9398000D02*
G75*
G02*
X8984500Y-9398000I-32500J0D01*
G01*
X8984500Y-9398000D02*
G75*
G02*
X9049500Y-9398000I32500J0D01*
G01*
X9049500Y-9652000D02*
G75*
G02*
X8984500Y-9652000I-32500J0D01*
G01*
X8984500Y-9652000D02*
G75*
G02*
X9049500Y-9652000I32500J0D01*
G01*
X9049500Y-9906000D02*
G75*
G02*
X8984500Y-9906000I-32500J0D01*
G01*
X8984500Y-9906000D02*
G75*
G02*
X9049500Y-9906000I32500J0D01*
G01*
X9049500Y-10160000D02*
G75*
G02*
X8984500Y-10160000I-32500J0D01*
G01*
X8984500Y-10160000D02*
G75*
G02*
X9049500Y-10160000I32500J0D01*
G01*
X9049500Y-10414000D02*
G75*
G02*
X8984500Y-10414000I-32500J0D01*
G01*
X8984500Y-10414000D02*
G75*
G02*
X9049500Y-10414000I32500J0D01*
G01*
X9049500Y-10668000D02*
G75*
G02*
X8984500Y-10668000I-32500J0D01*
G01*
X8984500Y-10668000D02*
G75*
G02*
X9049500Y-10668000I32500J0D01*
G01*
X9049500Y-10922000D02*
G75*
G02*
X8984500Y-10922000I-32500J0D01*
G01*
X8984500Y-10922000D02*
G75*
G02*
X9049500Y-10922000I32500J0D01*
G01*
X9049500Y-11176000D02*
G75*
G02*
X8984500Y-11176000I-32500J0D01*
G01*
X8984500Y-11176000D02*
G75*
G02*
X9049500Y-11176000I32500J0D01*
G01*
X9176500Y-6985000D02*
G75*
G02*
X9111500Y-6985000I-32500J0D01*
G01*
X9111500Y-6985000D02*
G75*
G02*
X9176500Y-6985000I32500J0D01*
G01*
X9176500Y-7239000D02*
G75*
G02*
X9111500Y-7239000I-32500J0D01*
G01*
X9111500Y-7239000D02*
G75*
G02*
X9176500Y-7239000I32500J0D01*
G01*
X9176500Y-7493000D02*
G75*
G02*
X9111500Y-7493000I-32500J0D01*
G01*
X9111500Y-7493000D02*
G75*
G02*
X9176500Y-7493000I32500J0D01*
G01*
X9176500Y-7747000D02*
G75*
G02*
X9111500Y-7747000I-32500J0D01*
G01*
X9111500Y-7747000D02*
G75*
G02*
X9176500Y-7747000I32500J0D01*
G01*
X9176500Y-8001000D02*
G75*
G02*
X9111500Y-8001000I-32500J0D01*
G01*
X9111500Y-8001000D02*
G75*
G02*
X9176500Y-8001000I32500J0D01*
G01*
X9176500Y-8255000D02*
G75*
G02*
X9111500Y-8255000I-32500J0D01*
G01*
X9111500Y-8255000D02*
G75*
G02*
X9176500Y-8255000I32500J0D01*
G01*
X9176500Y-8509000D02*
G75*
G02*
X9111500Y-8509000I-32500J0D01*
G01*
X9111500Y-8509000D02*
G75*
G02*
X9176500Y-8509000I32500J0D01*
G01*
X9176500Y-8763000D02*
G75*
G02*
X9111500Y-8763000I-32500J0D01*
G01*
X9111500Y-8763000D02*
G75*
G02*
X9176500Y-8763000I32500J0D01*
G01*
X9176500Y-9017000D02*
G75*
G02*
X9111500Y-9017000I-32500J0D01*
G01*
X9111500Y-9017000D02*
G75*
G02*
X9176500Y-9017000I32500J0D01*
G01*
X9176500Y-9271000D02*
G75*
G02*
X9111500Y-9271000I-32500J0D01*
G01*
X9111500Y-9271000D02*
G75*
G02*
X9176500Y-9271000I32500J0D01*
G01*
X9176500Y-9525000D02*
G75*
G02*
X9111500Y-9525000I-32500J0D01*
G01*
X9111500Y-9525000D02*
G75*
G02*
X9176500Y-9525000I32500J0D01*
G01*
X9176500Y-9779000D02*
G75*
G02*
X9111500Y-9779000I-32500J0D01*
G01*
X9111500Y-9779000D02*
G75*
G02*
X9176500Y-9779000I32500J0D01*
G01*
X9176500Y-10033000D02*
G75*
G02*
X9111500Y-10033000I-32500J0D01*
G01*
X9111500Y-10033000D02*
G75*
G02*
X9176500Y-10033000I32500J0D01*
G01*
X9176500Y-10287000D02*
G75*
G02*
X9111500Y-10287000I-32500J0D01*
G01*
X9111500Y-10287000D02*
G75*
G02*
X9176500Y-10287000I32500J0D01*
G01*
X9176500Y-10541000D02*
G75*
G02*
X9111500Y-10541000I-32500J0D01*
G01*
X9111500Y-10541000D02*
G75*
G02*
X9176500Y-10541000I32500J0D01*
G01*
X9176500Y-10795000D02*
G75*
G02*
X9111500Y-10795000I-32500J0D01*
G01*
X9111500Y-10795000D02*
G75*
G02*
X9176500Y-10795000I32500J0D01*
G01*
X9176500Y-11049000D02*
G75*
G02*
X9111500Y-11049000I-32500J0D01*
G01*
X9111500Y-11049000D02*
G75*
G02*
X9176500Y-11049000I32500J0D01*
G01*
X9176500Y-11303000D02*
G75*
G02*
X9111500Y-11303000I-32500J0D01*
G01*
X9111500Y-11303000D02*
G75*
G02*
X9176500Y-11303000I32500J0D01*
G01*
X9303500Y-6858000D02*
G75*
G02*
X9238500Y-6858000I-32500J0D01*
G01*
X9238500Y-6858000D02*
G75*
G02*
X9303500Y-6858000I32500J0D01*
G01*
X9303500Y-7112000D02*
G75*
G02*
X9238500Y-7112000I-32500J0D01*
G01*
X9238500Y-7112000D02*
G75*
G02*
X9303500Y-7112000I32500J0D01*
G01*
X9303500Y-7366000D02*
G75*
G02*
X9238500Y-7366000I-32500J0D01*
G01*
X9238500Y-7366000D02*
G75*
G02*
X9303500Y-7366000I32500J0D01*
G01*
X9303500Y-7620000D02*
G75*
G02*
X9238500Y-7620000I-32500J0D01*
G01*
X9238500Y-7620000D02*
G75*
G02*
X9303500Y-7620000I32500J0D01*
G01*
X9303500Y-7874000D02*
G75*
G02*
X9238500Y-7874000I-32500J0D01*
G01*
X9238500Y-7874000D02*
G75*
G02*
X9303500Y-7874000I32500J0D01*
G01*
X9303500Y-8128000D02*
G75*
G02*
X9238500Y-8128000I-32500J0D01*
G01*
X9238500Y-8128000D02*
G75*
G02*
X9303500Y-8128000I32500J0D01*
G01*
X9303500Y-8382000D02*
G75*
G02*
X9238500Y-8382000I-32500J0D01*
G01*
X9238500Y-8382000D02*
G75*
G02*
X9303500Y-8382000I32500J0D01*
G01*
X9303500Y-8636000D02*
G75*
G02*
X9238500Y-8636000I-32500J0D01*
G01*
X9238500Y-8636000D02*
G75*
G02*
X9303500Y-8636000I32500J0D01*
G01*
X9303500Y-8890000D02*
G75*
G02*
X9238500Y-8890000I-32500J0D01*
G01*
X9238500Y-8890000D02*
G75*
G02*
X9303500Y-8890000I32500J0D01*
G01*
X9303500Y-9144000D02*
G75*
G02*
X9238500Y-9144000I-32500J0D01*
G01*
X9238500Y-9144000D02*
G75*
G02*
X9303500Y-9144000I32500J0D01*
G01*
X9303500Y-9398000D02*
G75*
G02*
X9238500Y-9398000I-32500J0D01*
G01*
X9238500Y-9398000D02*
G75*
G02*
X9303500Y-9398000I32500J0D01*
G01*
X9303500Y-9652000D02*
G75*
G02*
X9238500Y-9652000I-32500J0D01*
G01*
X9238500Y-9652000D02*
G75*
G02*
X9303500Y-9652000I32500J0D01*
G01*
X9303500Y-9906000D02*
G75*
G02*
X9238500Y-9906000I-32500J0D01*
G01*
X9238500Y-9906000D02*
G75*
G02*
X9303500Y-9906000I32500J0D01*
G01*
X9303500Y-10160000D02*
G75*
G02*
X9238500Y-10160000I-32500J0D01*
G01*
X9238500Y-10160000D02*
G75*
G02*
X9303500Y-10160000I32500J0D01*
G01*
X9303500Y-10414000D02*
G75*
G02*
X9238500Y-10414000I-32500J0D01*
G01*
X9238500Y-10414000D02*
G75*
G02*
X9303500Y-10414000I32500J0D01*
G01*
X9303500Y-10668000D02*
G75*
G02*
X9238500Y-10668000I-32500J0D01*
G01*
X9238500Y-10668000D02*
G75*
G02*
X9303500Y-10668000I32500J0D01*
G01*
X9303500Y-10922000D02*
G75*
G02*
X9238500Y-10922000I-32500J0D01*
G01*
X9238500Y-10922000D02*
G75*
G02*
X9303500Y-10922000I32500J0D01*
G01*
X9303500Y-11176000D02*
G75*
G02*
X9238500Y-11176000I-32500J0D01*
G01*
X9238500Y-11176000D02*
G75*
G02*
X9303500Y-11176000I32500J0D01*
G01*
X9303500Y-11430000D02*
G75*
G02*
X9238500Y-11430000I-32500J0D01*
G01*
X9238500Y-11430000D02*
G75*
G02*
X9303500Y-11430000I32500J0D01*
G01*
X9430500Y-6985000D02*
G75*
G02*
X9365500Y-6985000I-32500J0D01*
G01*
X9365500Y-6985000D02*
G75*
G02*
X9430500Y-6985000I32500J0D01*
G01*
X9430500Y-7239000D02*
G75*
G02*
X9365500Y-7239000I-32500J0D01*
G01*
X9365500Y-7239000D02*
G75*
G02*
X9430500Y-7239000I32500J0D01*
G01*
X9430500Y-7493000D02*
G75*
G02*
X9365500Y-7493000I-32500J0D01*
G01*
X9365500Y-7493000D02*
G75*
G02*
X9430500Y-7493000I32500J0D01*
G01*
X9430500Y-7747000D02*
G75*
G02*
X9365500Y-7747000I-32500J0D01*
G01*
X9365500Y-7747000D02*
G75*
G02*
X9430500Y-7747000I32500J0D01*
G01*
X9430500Y-8001000D02*
G75*
G02*
X9365500Y-8001000I-32500J0D01*
G01*
X9365500Y-8001000D02*
G75*
G02*
X9430500Y-8001000I32500J0D01*
G01*
X9430500Y-8255000D02*
G75*
G02*
X9365500Y-8255000I-32500J0D01*
G01*
X9365500Y-8255000D02*
G75*
G02*
X9430500Y-8255000I32500J0D01*
G01*
X9430500Y-8509000D02*
G75*
G02*
X9365500Y-8509000I-32500J0D01*
G01*
X9365500Y-8509000D02*
G75*
G02*
X9430500Y-8509000I32500J0D01*
G01*
X9430500Y-8763000D02*
G75*
G02*
X9365500Y-8763000I-32500J0D01*
G01*
X9365500Y-8763000D02*
G75*
G02*
X9430500Y-8763000I32500J0D01*
G01*
X9430500Y-9017000D02*
G75*
G02*
X9365500Y-9017000I-32500J0D01*
G01*
X9365500Y-9017000D02*
G75*
G02*
X9430500Y-9017000I32500J0D01*
G01*
X9430500Y-9271000D02*
G75*
G02*
X9365500Y-9271000I-32500J0D01*
G01*
X9365500Y-9271000D02*
G75*
G02*
X9430500Y-9271000I32500J0D01*
G01*
X9430500Y-9525000D02*
G75*
G02*
X9365500Y-9525000I-32500J0D01*
G01*
X9365500Y-9525000D02*
G75*
G02*
X9430500Y-9525000I32500J0D01*
G01*
X9430500Y-9779000D02*
G75*
G02*
X9365500Y-9779000I-32500J0D01*
G01*
X9365500Y-9779000D02*
G75*
G02*
X9430500Y-9779000I32500J0D01*
G01*
X9430500Y-10033000D02*
G75*
G02*
X9365500Y-10033000I-32500J0D01*
G01*
X9365500Y-10033000D02*
G75*
G02*
X9430500Y-10033000I32500J0D01*
G01*
X9430500Y-10287000D02*
G75*
G02*
X9365500Y-10287000I-32500J0D01*
G01*
X9365500Y-10287000D02*
G75*
G02*
X9430500Y-10287000I32500J0D01*
G01*
X9430500Y-10541000D02*
G75*
G02*
X9365500Y-10541000I-32500J0D01*
G01*
X9365500Y-10541000D02*
G75*
G02*
X9430500Y-10541000I32500J0D01*
G01*
X9430500Y-10795000D02*
G75*
G02*
X9365500Y-10795000I-32500J0D01*
G01*
X9365500Y-10795000D02*
G75*
G02*
X9430500Y-10795000I32500J0D01*
G01*
X9430500Y-11049000D02*
G75*
G02*
X9365500Y-11049000I-32500J0D01*
G01*
X9365500Y-11049000D02*
G75*
G02*
X9430500Y-11049000I32500J0D01*
G01*
X9430500Y-11303000D02*
G75*
G02*
X9365500Y-11303000I-32500J0D01*
G01*
X9365500Y-11303000D02*
G75*
G02*
X9430500Y-11303000I32500J0D01*
G01*
X9557500Y-6858000D02*
G75*
G02*
X9492500Y-6858000I-32500J0D01*
G01*
X9492500Y-6858000D02*
G75*
G02*
X9557500Y-6858000I32500J0D01*
G01*
X9557500Y-7112000D02*
G75*
G02*
X9492500Y-7112000I-32500J0D01*
G01*
X9492500Y-7112000D02*
G75*
G02*
X9557500Y-7112000I32500J0D01*
G01*
X9557500Y-7366000D02*
G75*
G02*
X9492500Y-7366000I-32500J0D01*
G01*
X9492500Y-7366000D02*
G75*
G02*
X9557500Y-7366000I32500J0D01*
G01*
X9557500Y-7620000D02*
G75*
G02*
X9492500Y-7620000I-32500J0D01*
G01*
X9492500Y-7620000D02*
G75*
G02*
X9557500Y-7620000I32500J0D01*
G01*
X9557500Y-7874000D02*
G75*
G02*
X9492500Y-7874000I-32500J0D01*
G01*
X9492500Y-7874000D02*
G75*
G02*
X9557500Y-7874000I32500J0D01*
G01*
X9557500Y-8128000D02*
G75*
G02*
X9492500Y-8128000I-32500J0D01*
G01*
X9492500Y-8128000D02*
G75*
G02*
X9557500Y-8128000I32500J0D01*
G01*
X9557500Y-8382000D02*
G75*
G02*
X9492500Y-8382000I-32500J0D01*
G01*
X9492500Y-8382000D02*
G75*
G02*
X9557500Y-8382000I32500J0D01*
G01*
X9557500Y-8636000D02*
G75*
G02*
X9492500Y-8636000I-32500J0D01*
G01*
X9492500Y-8636000D02*
G75*
G02*
X9557500Y-8636000I32500J0D01*
G01*
X9557500Y-8890000D02*
G75*
G02*
X9492500Y-8890000I-32500J0D01*
G01*
X9492500Y-8890000D02*
G75*
G02*
X9557500Y-8890000I32500J0D01*
G01*
X9557500Y-9144000D02*
G75*
G02*
X9492500Y-9144000I-32500J0D01*
G01*
X9492500Y-9144000D02*
G75*
G02*
X9557500Y-9144000I32500J0D01*
G01*
X9557500Y-9398000D02*
G75*
G02*
X9492500Y-9398000I-32500J0D01*
G01*
X9492500Y-9398000D02*
G75*
G02*
X9557500Y-9398000I32500J0D01*
G01*
X9557500Y-9652000D02*
G75*
G02*
X9492500Y-9652000I-32500J0D01*
G01*
X9492500Y-9652000D02*
G75*
G02*
X9557500Y-9652000I32500J0D01*
G01*
X9557500Y-9906000D02*
G75*
G02*
X9492500Y-9906000I-32500J0D01*
G01*
X9492500Y-9906000D02*
G75*
G02*
X9557500Y-9906000I32500J0D01*
G01*
X9557500Y-10160000D02*
G75*
G02*
X9492500Y-10160000I-32500J0D01*
G01*
X9492500Y-10160000D02*
G75*
G02*
X9557500Y-10160000I32500J0D01*
G01*
X9557500Y-10414000D02*
G75*
G02*
X9492500Y-10414000I-32500J0D01*
G01*
X9492500Y-10414000D02*
G75*
G02*
X9557500Y-10414000I32500J0D01*
G01*
X9557500Y-10668000D02*
G75*
G02*
X9492500Y-10668000I-32500J0D01*
G01*
X9492500Y-10668000D02*
G75*
G02*
X9557500Y-10668000I32500J0D01*
G01*
X9557500Y-10922000D02*
G75*
G02*
X9492500Y-10922000I-32500J0D01*
G01*
X9492500Y-10922000D02*
G75*
G02*
X9557500Y-10922000I32500J0D01*
G01*
X9557500Y-11176000D02*
G75*
G02*
X9492500Y-11176000I-32500J0D01*
G01*
X9492500Y-11176000D02*
G75*
G02*
X9557500Y-11176000I32500J0D01*
G01*
X9557500Y-11430000D02*
G75*
G02*
X9492500Y-11430000I-32500J0D01*
G01*
X9492500Y-11430000D02*
G75*
G02*
X9557500Y-11430000I32500J0D01*
G01*
X9684500Y-6985000D02*
G75*
G02*
X9619500Y-6985000I-32500J0D01*
G01*
X9619500Y-6985000D02*
G75*
G02*
X9684500Y-6985000I32500J0D01*
G01*
X9684500Y-7239000D02*
G75*
G02*
X9619500Y-7239000I-32500J0D01*
G01*
X9619500Y-7239000D02*
G75*
G02*
X9684500Y-7239000I32500J0D01*
G01*
X9684500Y-7493000D02*
G75*
G02*
X9619500Y-7493000I-32500J0D01*
G01*
X9619500Y-7493000D02*
G75*
G02*
X9684500Y-7493000I32500J0D01*
G01*
X9684500Y-7747000D02*
G75*
G02*
X9619500Y-7747000I-32500J0D01*
G01*
X9619500Y-7747000D02*
G75*
G02*
X9684500Y-7747000I32500J0D01*
G01*
X9684500Y-8001000D02*
G75*
G02*
X9619500Y-8001000I-32500J0D01*
G01*
X9619500Y-8001000D02*
G75*
G02*
X9684500Y-8001000I32500J0D01*
G01*
X9684500Y-8255000D02*
G75*
G02*
X9619500Y-8255000I-32500J0D01*
G01*
X9619500Y-8255000D02*
G75*
G02*
X9684500Y-8255000I32500J0D01*
G01*
X9684500Y-8509000D02*
G75*
G02*
X9619500Y-8509000I-32500J0D01*
G01*
X9619500Y-8509000D02*
G75*
G02*
X9684500Y-8509000I32500J0D01*
G01*
X9684500Y-8763000D02*
G75*
G02*
X9619500Y-8763000I-32500J0D01*
G01*
X9619500Y-8763000D02*
G75*
G02*
X9684500Y-8763000I32500J0D01*
G01*
X9684500Y-9017000D02*
G75*
G02*
X9619500Y-9017000I-32500J0D01*
G01*
X9619500Y-9017000D02*
G75*
G02*
X9684500Y-9017000I32500J0D01*
G01*
X9684500Y-9271000D02*
G75*
G02*
X9619500Y-9271000I-32500J0D01*
G01*
X9619500Y-9271000D02*
G75*
G02*
X9684500Y-9271000I32500J0D01*
G01*
X9684500Y-9525000D02*
G75*
G02*
X9619500Y-9525000I-32500J0D01*
G01*
X9619500Y-9525000D02*
G75*
G02*
X9684500Y-9525000I32500J0D01*
G01*
X9684500Y-9779000D02*
G75*
G02*
X9619500Y-9779000I-32500J0D01*
G01*
X9619500Y-9779000D02*
G75*
G02*
X9684500Y-9779000I32500J0D01*
G01*
X9684500Y-10033000D02*
G75*
G02*
X9619500Y-10033000I-32500J0D01*
G01*
X9619500Y-10033000D02*
G75*
G02*
X9684500Y-10033000I32500J0D01*
G01*
X9684500Y-10287000D02*
G75*
G02*
X9619500Y-10287000I-32500J0D01*
G01*
X9619500Y-10287000D02*
G75*
G02*
X9684500Y-10287000I32500J0D01*
G01*
X9684500Y-10541000D02*
G75*
G02*
X9619500Y-10541000I-32500J0D01*
G01*
X9619500Y-10541000D02*
G75*
G02*
X9684500Y-10541000I32500J0D01*
G01*
X9684500Y-10795000D02*
G75*
G02*
X9619500Y-10795000I-32500J0D01*
G01*
X9619500Y-10795000D02*
G75*
G02*
X9684500Y-10795000I32500J0D01*
G01*
X9684500Y-11049000D02*
G75*
G02*
X9619500Y-11049000I-32500J0D01*
G01*
X9619500Y-11049000D02*
G75*
G02*
X9684500Y-11049000I32500J0D01*
G01*
X9684500Y-11303000D02*
G75*
G02*
X9619500Y-11303000I-32500J0D01*
G01*
X9619500Y-11303000D02*
G75*
G02*
X9684500Y-11303000I32500J0D01*
G01*
X9811500Y-6858000D02*
G75*
G02*
X9746500Y-6858000I-32500J0D01*
G01*
X9746500Y-6858000D02*
G75*
G02*
X9811500Y-6858000I32500J0D01*
G01*
X9811500Y-7112000D02*
G75*
G02*
X9746500Y-7112000I-32500J0D01*
G01*
X9746500Y-7112000D02*
G75*
G02*
X9811500Y-7112000I32500J0D01*
G01*
X9811500Y-7366000D02*
G75*
G02*
X9746500Y-7366000I-32500J0D01*
G01*
X9746500Y-7366000D02*
G75*
G02*
X9811500Y-7366000I32500J0D01*
G01*
X9811500Y-10922000D02*
G75*
G02*
X9746500Y-10922000I-32500J0D01*
G01*
X9746500Y-10922000D02*
G75*
G02*
X9811500Y-10922000I32500J0D01*
G01*
X9811500Y-11176000D02*
G75*
G02*
X9746500Y-11176000I-32500J0D01*
G01*
X9746500Y-11176000D02*
G75*
G02*
X9811500Y-11176000I32500J0D01*
G01*
X9811500Y-11430000D02*
G75*
G02*
X9746500Y-11430000I-32500J0D01*
G01*
X9746500Y-11430000D02*
G75*
G02*
X9811500Y-11430000I32500J0D01*
G01*
X9938500Y-6985000D02*
G75*
G02*
X9873500Y-6985000I-32500J0D01*
G01*
X9873500Y-6985000D02*
G75*
G02*
X9938500Y-6985000I32500J0D01*
G01*
X9938500Y-7239000D02*
G75*
G02*
X9873500Y-7239000I-32500J0D01*
G01*
X9873500Y-7239000D02*
G75*
G02*
X9938500Y-7239000I32500J0D01*
G01*
X9938500Y-7493000D02*
G75*
G02*
X9873500Y-7493000I-32500J0D01*
G01*
X9873500Y-7493000D02*
G75*
G02*
X9938500Y-7493000I32500J0D01*
G01*
X9938500Y-10795000D02*
G75*
G02*
X9873500Y-10795000I-32500J0D01*
G01*
X9873500Y-10795000D02*
G75*
G02*
X9938500Y-10795000I32500J0D01*
G01*
X9938500Y-11049000D02*
G75*
G02*
X9873500Y-11049000I-32500J0D01*
G01*
X9873500Y-11049000D02*
G75*
G02*
X9938500Y-11049000I32500J0D01*
G01*
X9938500Y-11303000D02*
G75*
G02*
X9873500Y-11303000I-32500J0D01*
G01*
X9873500Y-11303000D02*
G75*
G02*
X9938500Y-11303000I32500J0D01*
G01*
X10065500Y-6858000D02*
G75*
G02*
X10000500Y-6858000I-32500J0D01*
G01*
X10000500Y-6858000D02*
G75*
G02*
X10065500Y-6858000I32500J0D01*
G01*
X10065500Y-7112000D02*
G75*
G02*
X10000500Y-7112000I-32500J0D01*
G01*
X10000500Y-7112000D02*
G75*
G02*
X10065500Y-7112000I32500J0D01*
G01*
X10065500Y-7366000D02*
G75*
G02*
X10000500Y-7366000I-32500J0D01*
G01*
X10000500Y-7366000D02*
G75*
G02*
X10065500Y-7366000I32500J0D01*
G01*
X10065500Y-10922000D02*
G75*
G02*
X10000500Y-10922000I-32500J0D01*
G01*
X10000500Y-10922000D02*
G75*
G02*
X10065500Y-10922000I32500J0D01*
G01*
X10065500Y-11176000D02*
G75*
G02*
X10000500Y-11176000I-32500J0D01*
G01*
X10000500Y-11176000D02*
G75*
G02*
X10065500Y-11176000I32500J0D01*
G01*
X10065500Y-11430000D02*
G75*
G02*
X10000500Y-11430000I-32500J0D01*
G01*
X10000500Y-11430000D02*
G75*
G02*
X10065500Y-11430000I32500J0D01*
G01*
X10192500Y-6985000D02*
G75*
G02*
X10127500Y-6985000I-32500J0D01*
G01*
X10127500Y-6985000D02*
G75*
G02*
X10192500Y-6985000I32500J0D01*
G01*
X10192500Y-7239000D02*
G75*
G02*
X10127500Y-7239000I-32500J0D01*
G01*
X10127500Y-7239000D02*
G75*
G02*
X10192500Y-7239000I32500J0D01*
G01*
X10192500Y-7493000D02*
G75*
G02*
X10127500Y-7493000I-32500J0D01*
G01*
X10127500Y-7493000D02*
G75*
G02*
X10192500Y-7493000I32500J0D01*
G01*
X10192500Y-10795000D02*
G75*
G02*
X10127500Y-10795000I-32500J0D01*
G01*
X10127500Y-10795000D02*
G75*
G02*
X10192500Y-10795000I32500J0D01*
G01*
X10192500Y-11049000D02*
G75*
G02*
X10127500Y-11049000I-32500J0D01*
G01*
X10127500Y-11049000D02*
G75*
G02*
X10192500Y-11049000I32500J0D01*
G01*
X10192500Y-11303000D02*
G75*
G02*
X10127500Y-11303000I-32500J0D01*
G01*
X10127500Y-11303000D02*
G75*
G02*
X10192500Y-11303000I32500J0D01*
G01*
X10319500Y-6858000D02*
G75*
G02*
X10254500Y-6858000I-32500J0D01*
G01*
X10254500Y-6858000D02*
G75*
G02*
X10319500Y-6858000I32500J0D01*
G01*
X10319500Y-7112000D02*
G75*
G02*
X10254500Y-7112000I-32500J0D01*
G01*
X10254500Y-7112000D02*
G75*
G02*
X10319500Y-7112000I32500J0D01*
G01*
X10319500Y-7366000D02*
G75*
G02*
X10254500Y-7366000I-32500J0D01*
G01*
X10254500Y-7366000D02*
G75*
G02*
X10319500Y-7366000I32500J0D01*
G01*
X10319500Y-10922000D02*
G75*
G02*
X10254500Y-10922000I-32500J0D01*
G01*
X10254500Y-10922000D02*
G75*
G02*
X10319500Y-10922000I32500J0D01*
G01*
X10319500Y-11176000D02*
G75*
G02*
X10254500Y-11176000I-32500J0D01*
G01*
X10254500Y-11176000D02*
G75*
G02*
X10319500Y-11176000I32500J0D01*
G01*
X10319500Y-11430000D02*
G75*
G02*
X10254500Y-11430000I-32500J0D01*
G01*
X10254500Y-11430000D02*
G75*
G02*
X10319500Y-11430000I32500J0D01*
G01*
X10446500Y-6985000D02*
G75*
G02*
X10381500Y-6985000I-32500J0D01*
G01*
X10381500Y-6985000D02*
G75*
G02*
X10446500Y-6985000I32500J0D01*
G01*
X10446500Y-7239000D02*
G75*
G02*
X10381500Y-7239000I-32500J0D01*
G01*
X10381500Y-7239000D02*
G75*
G02*
X10446500Y-7239000I32500J0D01*
G01*
X10446500Y-7493000D02*
G75*
G02*
X10381500Y-7493000I-32500J0D01*
G01*
X10381500Y-7493000D02*
G75*
G02*
X10446500Y-7493000I32500J0D01*
G01*
X10446500Y-10795000D02*
G75*
G02*
X10381500Y-10795000I-32500J0D01*
G01*
X10381500Y-10795000D02*
G75*
G02*
X10446500Y-10795000I32500J0D01*
G01*
X10446500Y-11049000D02*
G75*
G02*
X10381500Y-11049000I-32500J0D01*
G01*
X10381500Y-11049000D02*
G75*
G02*
X10446500Y-11049000I32500J0D01*
G01*
X10446500Y-11303000D02*
G75*
G02*
X10381500Y-11303000I-32500J0D01*
G01*
X10381500Y-11303000D02*
G75*
G02*
X10446500Y-11303000I32500J0D01*
G01*
X10573500Y-6858000D02*
G75*
G02*
X10508500Y-6858000I-32500J0D01*
G01*
X10508500Y-6858000D02*
G75*
G02*
X10573500Y-6858000I32500J0D01*
G01*
X10573500Y-7112000D02*
G75*
G02*
X10508500Y-7112000I-32500J0D01*
G01*
X10508500Y-7112000D02*
G75*
G02*
X10573500Y-7112000I32500J0D01*
G01*
X10573500Y-7366000D02*
G75*
G02*
X10508500Y-7366000I-32500J0D01*
G01*
X10508500Y-7366000D02*
G75*
G02*
X10573500Y-7366000I32500J0D01*
G01*
X10573500Y-10922000D02*
G75*
G02*
X10508500Y-10922000I-32500J0D01*
G01*
X10508500Y-10922000D02*
G75*
G02*
X10573500Y-10922000I32500J0D01*
G01*
X10573500Y-11176000D02*
G75*
G02*
X10508500Y-11176000I-32500J0D01*
G01*
X10508500Y-11176000D02*
G75*
G02*
X10573500Y-11176000I32500J0D01*
G01*
X10573500Y-11430000D02*
G75*
G02*
X10508500Y-11430000I-32500J0D01*
G01*
X10508500Y-11430000D02*
G75*
G02*
X10573500Y-11430000I32500J0D01*
G01*
X10700500Y-6985000D02*
G75*
G02*
X10635500Y-6985000I-32500J0D01*
G01*
X10635500Y-6985000D02*
G75*
G02*
X10700500Y-6985000I32500J0D01*
G01*
X10700500Y-7239000D02*
G75*
G02*
X10635500Y-7239000I-32500J0D01*
G01*
X10635500Y-7239000D02*
G75*
G02*
X10700500Y-7239000I32500J0D01*
G01*
X10700500Y-7493000D02*
G75*
G02*
X10635500Y-7493000I-32500J0D01*
G01*
X10635500Y-7493000D02*
G75*
G02*
X10700500Y-7493000I32500J0D01*
G01*
X10700500Y-10795000D02*
G75*
G02*
X10635500Y-10795000I-32500J0D01*
G01*
X10635500Y-10795000D02*
G75*
G02*
X10700500Y-10795000I32500J0D01*
G01*
X10700500Y-11049000D02*
G75*
G02*
X10635500Y-11049000I-32500J0D01*
G01*
X10635500Y-11049000D02*
G75*
G02*
X10700500Y-11049000I32500J0D01*
G01*
X10700500Y-11303000D02*
G75*
G02*
X10635500Y-11303000I-32500J0D01*
G01*
X10635500Y-11303000D02*
G75*
G02*
X10700500Y-11303000I32500J0D01*
G01*
X10827500Y-6858000D02*
G75*
G02*
X10762500Y-6858000I-32500J0D01*
G01*
X10762500Y-6858000D02*
G75*
G02*
X10827500Y-6858000I32500J0D01*
G01*
X10827500Y-7112000D02*
G75*
G02*
X10762500Y-7112000I-32500J0D01*
G01*
X10762500Y-7112000D02*
G75*
G02*
X10827500Y-7112000I32500J0D01*
G01*
X10827500Y-7366000D02*
G75*
G02*
X10762500Y-7366000I-32500J0D01*
G01*
X10762500Y-7366000D02*
G75*
G02*
X10827500Y-7366000I32500J0D01*
G01*
X10827500Y-10922000D02*
G75*
G02*
X10762500Y-10922000I-32500J0D01*
G01*
X10762500Y-10922000D02*
G75*
G02*
X10827500Y-10922000I32500J0D01*
G01*
X10827500Y-11176000D02*
G75*
G02*
X10762500Y-11176000I-32500J0D01*
G01*
X10762500Y-11176000D02*
G75*
G02*
X10827500Y-11176000I32500J0D01*
G01*
X10827500Y-11430000D02*
G75*
G02*
X10762500Y-11430000I-32500J0D01*
G01*
X10762500Y-11430000D02*
G75*
G02*
X10827500Y-11430000I32500J0D01*
G01*
X10954500Y-6985000D02*
G75*
G02*
X10889500Y-6985000I-32500J0D01*
G01*
X10889500Y-6985000D02*
G75*
G02*
X10954500Y-6985000I32500J0D01*
G01*
X10954500Y-7239000D02*
G75*
G02*
X10889500Y-7239000I-32500J0D01*
G01*
X10889500Y-7239000D02*
G75*
G02*
X10954500Y-7239000I32500J0D01*
G01*
X10954500Y-7493000D02*
G75*
G02*
X10889500Y-7493000I-32500J0D01*
G01*
X10889500Y-7493000D02*
G75*
G02*
X10954500Y-7493000I32500J0D01*
G01*
X10954500Y-10795000D02*
G75*
G02*
X10889500Y-10795000I-32500J0D01*
G01*
X10889500Y-10795000D02*
G75*
G02*
X10954500Y-10795000I32500J0D01*
G01*
X10954500Y-11049000D02*
G75*
G02*
X10889500Y-11049000I-32500J0D01*
G01*
X10889500Y-11049000D02*
G75*
G02*
X10954500Y-11049000I32500J0D01*
G01*
X10954500Y-11303000D02*
G75*
G02*
X10889500Y-11303000I-32500J0D01*
G01*
X10889500Y-11303000D02*
G75*
G02*
X10954500Y-11303000I32500J0D01*
G01*
X11081500Y-6858000D02*
G75*
G02*
X11016500Y-6858000I-32500J0D01*
G01*
X11016500Y-6858000D02*
G75*
G02*
X11081500Y-6858000I32500J0D01*
G01*
X11081500Y-7112000D02*
G75*
G02*
X11016500Y-7112000I-32500J0D01*
G01*
X11016500Y-7112000D02*
G75*
G02*
X11081500Y-7112000I32500J0D01*
G01*
X11081500Y-7366000D02*
G75*
G02*
X11016500Y-7366000I-32500J0D01*
G01*
X11016500Y-7366000D02*
G75*
G02*
X11081500Y-7366000I32500J0D01*
G01*
X11081500Y-10922000D02*
G75*
G02*
X11016500Y-10922000I-32500J0D01*
G01*
X11016500Y-10922000D02*
G75*
G02*
X11081500Y-10922000I32500J0D01*
G01*
X11081500Y-11176000D02*
G75*
G02*
X11016500Y-11176000I-32500J0D01*
G01*
X11016500Y-11176000D02*
G75*
G02*
X11081500Y-11176000I32500J0D01*
G01*
X11081500Y-11430000D02*
G75*
G02*
X11016500Y-11430000I-32500J0D01*
G01*
X11016500Y-11430000D02*
G75*
G02*
X11081500Y-11430000I32500J0D01*
G01*
X11208500Y-6985000D02*
G75*
G02*
X11143500Y-6985000I-32500J0D01*
G01*
X11143500Y-6985000D02*
G75*
G02*
X11208500Y-6985000I32500J0D01*
G01*
X11208500Y-7239000D02*
G75*
G02*
X11143500Y-7239000I-32500J0D01*
G01*
X11143500Y-7239000D02*
G75*
G02*
X11208500Y-7239000I32500J0D01*
G01*
X11208500Y-7493000D02*
G75*
G02*
X11143500Y-7493000I-32500J0D01*
G01*
X11143500Y-7493000D02*
G75*
G02*
X11208500Y-7493000I32500J0D01*
G01*
X11208500Y-10795000D02*
G75*
G02*
X11143500Y-10795000I-32500J0D01*
G01*
X11143500Y-10795000D02*
G75*
G02*
X11208500Y-10795000I32500J0D01*
G01*
X11208500Y-11049000D02*
G75*
G02*
X11143500Y-11049000I-32500J0D01*
G01*
X11143500Y-11049000D02*
G75*
G02*
X11208500Y-11049000I32500J0D01*
G01*
X11208500Y-11303000D02*
G75*
G02*
X11143500Y-11303000I-32500J0D01*
G01*
X11143500Y-11303000D02*
G75*
G02*
X11208500Y-11303000I32500J0D01*
G01*
X11335500Y-6858000D02*
G75*
G02*
X11270500Y-6858000I-32500J0D01*
G01*
X11270500Y-6858000D02*
G75*
G02*
X11335500Y-6858000I32500J0D01*
G01*
X11335500Y-7112000D02*
G75*
G02*
X11270500Y-7112000I-32500J0D01*
G01*
X11270500Y-7112000D02*
G75*
G02*
X11335500Y-7112000I32500J0D01*
G01*
X11335500Y-7366000D02*
G75*
G02*
X11270500Y-7366000I-32500J0D01*
G01*
X11270500Y-7366000D02*
G75*
G02*
X11335500Y-7366000I32500J0D01*
G01*
X11335500Y-10922000D02*
G75*
G02*
X11270500Y-10922000I-32500J0D01*
G01*
X11270500Y-10922000D02*
G75*
G02*
X11335500Y-10922000I32500J0D01*
G01*
X11335500Y-11176000D02*
G75*
G02*
X11270500Y-11176000I-32500J0D01*
G01*
X11270500Y-11176000D02*
G75*
G02*
X11335500Y-11176000I32500J0D01*
G01*
X11335500Y-11430000D02*
G75*
G02*
X11270500Y-11430000I-32500J0D01*
G01*
X11270500Y-11430000D02*
G75*
G02*
X11335500Y-11430000I32500J0D01*
G01*
X11462500Y-6985000D02*
G75*
G02*
X11397500Y-6985000I-32500J0D01*
G01*
X11397500Y-6985000D02*
G75*
G02*
X11462500Y-6985000I32500J0D01*
G01*
X11462500Y-7239000D02*
G75*
G02*
X11397500Y-7239000I-32500J0D01*
G01*
X11397500Y-7239000D02*
G75*
G02*
X11462500Y-7239000I32500J0D01*
G01*
X11462500Y-7493000D02*
G75*
G02*
X11397500Y-7493000I-32500J0D01*
G01*
X11397500Y-7493000D02*
G75*
G02*
X11462500Y-7493000I32500J0D01*
G01*
X11462500Y-10795000D02*
G75*
G02*
X11397500Y-10795000I-32500J0D01*
G01*
X11397500Y-10795000D02*
G75*
G02*
X11462500Y-10795000I32500J0D01*
G01*
X11462500Y-11049000D02*
G75*
G02*
X11397500Y-11049000I-32500J0D01*
G01*
X11397500Y-11049000D02*
G75*
G02*
X11462500Y-11049000I32500J0D01*
G01*
X11462500Y-11303000D02*
G75*
G02*
X11397500Y-11303000I-32500J0D01*
G01*
X11397500Y-11303000D02*
G75*
G02*
X11462500Y-11303000I32500J0D01*
G01*
X11589500Y-6858000D02*
G75*
G02*
X11524500Y-6858000I-32500J0D01*
G01*
X11524500Y-6858000D02*
G75*
G02*
X11589500Y-6858000I32500J0D01*
G01*
X11589500Y-7112000D02*
G75*
G02*
X11524500Y-7112000I-32500J0D01*
G01*
X11524500Y-7112000D02*
G75*
G02*
X11589500Y-7112000I32500J0D01*
G01*
X11589500Y-7366000D02*
G75*
G02*
X11524500Y-7366000I-32500J0D01*
G01*
X11524500Y-7366000D02*
G75*
G02*
X11589500Y-7366000I32500J0D01*
G01*
X11589500Y-10922000D02*
G75*
G02*
X11524500Y-10922000I-32500J0D01*
G01*
X11524500Y-10922000D02*
G75*
G02*
X11589500Y-10922000I32500J0D01*
G01*
X11589500Y-11176000D02*
G75*
G02*
X11524500Y-11176000I-32500J0D01*
G01*
X11524500Y-11176000D02*
G75*
G02*
X11589500Y-11176000I32500J0D01*
G01*
X11589500Y-11430000D02*
G75*
G02*
X11524500Y-11430000I-32500J0D01*
G01*
X11524500Y-11430000D02*
G75*
G02*
X11589500Y-11430000I32500J0D01*
G01*
X11716500Y-6985000D02*
G75*
G02*
X11651500Y-6985000I-32500J0D01*
G01*
X11651500Y-6985000D02*
G75*
G02*
X11716500Y-6985000I32500J0D01*
G01*
X11716500Y-7239000D02*
G75*
G02*
X11651500Y-7239000I-32500J0D01*
G01*
X11651500Y-7239000D02*
G75*
G02*
X11716500Y-7239000I32500J0D01*
G01*
X11716500Y-7493000D02*
G75*
G02*
X11651500Y-7493000I-32500J0D01*
G01*
X11651500Y-7493000D02*
G75*
G02*
X11716500Y-7493000I32500J0D01*
G01*
X11716500Y-10795000D02*
G75*
G02*
X11651500Y-10795000I-32500J0D01*
G01*
X11651500Y-10795000D02*
G75*
G02*
X11716500Y-10795000I32500J0D01*
G01*
X11716500Y-11049000D02*
G75*
G02*
X11651500Y-11049000I-32500J0D01*
G01*
X11651500Y-11049000D02*
G75*
G02*
X11716500Y-11049000I32500J0D01*
G01*
X11716500Y-11303000D02*
G75*
G02*
X11651500Y-11303000I-32500J0D01*
G01*
X11651500Y-11303000D02*
G75*
G02*
X11716500Y-11303000I32500J0D01*
G01*
X11843500Y-6858000D02*
G75*
G02*
X11778500Y-6858000I-32500J0D01*
G01*
X11778500Y-6858000D02*
G75*
G02*
X11843500Y-6858000I32500J0D01*
G01*
X11843500Y-7112000D02*
G75*
G02*
X11778500Y-7112000I-32500J0D01*
G01*
X11778500Y-7112000D02*
G75*
G02*
X11843500Y-7112000I32500J0D01*
G01*
X11843500Y-7366000D02*
G75*
G02*
X11778500Y-7366000I-32500J0D01*
G01*
X11778500Y-7366000D02*
G75*
G02*
X11843500Y-7366000I32500J0D01*
G01*
X11843500Y-10922000D02*
G75*
G02*
X11778500Y-10922000I-32500J0D01*
G01*
X11778500Y-10922000D02*
G75*
G02*
X11843500Y-10922000I32500J0D01*
G01*
X11843500Y-11176000D02*
G75*
G02*
X11778500Y-11176000I-32500J0D01*
G01*
X11778500Y-11176000D02*
G75*
G02*
X11843500Y-11176000I32500J0D01*
G01*
X11843500Y-11430000D02*
G75*
G02*
X11778500Y-11430000I-32500J0D01*
G01*
X11778500Y-11430000D02*
G75*
G02*
X11843500Y-11430000I32500J0D01*
G01*
X11970500Y-6985000D02*
G75*
G02*
X11905500Y-6985000I-32500J0D01*
G01*
X11905500Y-6985000D02*
G75*
G02*
X11970500Y-6985000I32500J0D01*
G01*
X11970500Y-7239000D02*
G75*
G02*
X11905500Y-7239000I-32500J0D01*
G01*
X11905500Y-7239000D02*
G75*
G02*
X11970500Y-7239000I32500J0D01*
G01*
X11970500Y-7493000D02*
G75*
G02*
X11905500Y-7493000I-32500J0D01*
G01*
X11905500Y-7493000D02*
G75*
G02*
X11970500Y-7493000I32500J0D01*
G01*
X11970500Y-10795000D02*
G75*
G02*
X11905500Y-10795000I-32500J0D01*
G01*
X11905500Y-10795000D02*
G75*
G02*
X11970500Y-10795000I32500J0D01*
G01*
X11970500Y-11049000D02*
G75*
G02*
X11905500Y-11049000I-32500J0D01*
G01*
X11905500Y-11049000D02*
G75*
G02*
X11970500Y-11049000I32500J0D01*
G01*
X11970500Y-11303000D02*
G75*
G02*
X11905500Y-11303000I-32500J0D01*
G01*
X11905500Y-11303000D02*
G75*
G02*
X11970500Y-11303000I32500J0D01*
G01*
X12097500Y-6858000D02*
G75*
G02*
X12032500Y-6858000I-32500J0D01*
G01*
X12032500Y-6858000D02*
G75*
G02*
X12097500Y-6858000I32500J0D01*
G01*
X12097500Y-7112000D02*
G75*
G02*
X12032500Y-7112000I-32500J0D01*
G01*
X12032500Y-7112000D02*
G75*
G02*
X12097500Y-7112000I32500J0D01*
G01*
X12097500Y-7366000D02*
G75*
G02*
X12032500Y-7366000I-32500J0D01*
G01*
X12032500Y-7366000D02*
G75*
G02*
X12097500Y-7366000I32500J0D01*
G01*
X12097500Y-10922000D02*
G75*
G02*
X12032500Y-10922000I-32500J0D01*
G01*
X12032500Y-10922000D02*
G75*
G02*
X12097500Y-10922000I32500J0D01*
G01*
X12097500Y-11176000D02*
G75*
G02*
X12032500Y-11176000I-32500J0D01*
G01*
X12032500Y-11176000D02*
G75*
G02*
X12097500Y-11176000I32500J0D01*
G01*
X12097500Y-11430000D02*
G75*
G02*
X12032500Y-11430000I-32500J0D01*
G01*
X12032500Y-11430000D02*
G75*
G02*
X12097500Y-11430000I32500J0D01*
G01*
X12224500Y-6985000D02*
G75*
G02*
X12159500Y-6985000I-32500J0D01*
G01*
X12159500Y-6985000D02*
G75*
G02*
X12224500Y-6985000I32500J0D01*
G01*
X12224500Y-7239000D02*
G75*
G02*
X12159500Y-7239000I-32500J0D01*
G01*
X12159500Y-7239000D02*
G75*
G02*
X12224500Y-7239000I32500J0D01*
G01*
X12224500Y-7493000D02*
G75*
G02*
X12159500Y-7493000I-32500J0D01*
G01*
X12159500Y-7493000D02*
G75*
G02*
X12224500Y-7493000I32500J0D01*
G01*
X12224500Y-10795000D02*
G75*
G02*
X12159500Y-10795000I-32500J0D01*
G01*
X12159500Y-10795000D02*
G75*
G02*
X12224500Y-10795000I32500J0D01*
G01*
X12224500Y-11049000D02*
G75*
G02*
X12159500Y-11049000I-32500J0D01*
G01*
X12159500Y-11049000D02*
G75*
G02*
X12224500Y-11049000I32500J0D01*
G01*
X12224500Y-11303000D02*
G75*
G02*
X12159500Y-11303000I-32500J0D01*
G01*
X12159500Y-11303000D02*
G75*
G02*
X12224500Y-11303000I32500J0D01*
G01*
X12351500Y-6858000D02*
G75*
G02*
X12286500Y-6858000I-32500J0D01*
G01*
X12286500Y-6858000D02*
G75*
G02*
X12351500Y-6858000I32500J0D01*
G01*
X12351500Y-7112000D02*
G75*
G02*
X12286500Y-7112000I-32500J0D01*
G01*
X12286500Y-7112000D02*
G75*
G02*
X12351500Y-7112000I32500J0D01*
G01*
X12351500Y-7366000D02*
G75*
G02*
X12286500Y-7366000I-32500J0D01*
G01*
X12286500Y-7366000D02*
G75*
G02*
X12351500Y-7366000I32500J0D01*
G01*
X12351500Y-10922000D02*
G75*
G02*
X12286500Y-10922000I-32500J0D01*
G01*
X12286500Y-10922000D02*
G75*
G02*
X12351500Y-10922000I32500J0D01*
G01*
X12351500Y-11176000D02*
G75*
G02*
X12286500Y-11176000I-32500J0D01*
G01*
X12286500Y-11176000D02*
G75*
G02*
X12351500Y-11176000I32500J0D01*
G01*
X12351500Y-11430000D02*
G75*
G02*
X12286500Y-11430000I-32500J0D01*
G01*
X12286500Y-11430000D02*
G75*
G02*
X12351500Y-11430000I32500J0D01*
G01*
X12478500Y-6985000D02*
G75*
G02*
X12413500Y-6985000I-32500J0D01*
G01*
X12413500Y-6985000D02*
G75*
G02*
X12478500Y-6985000I32500J0D01*
G01*
X12478500Y-7239000D02*
G75*
G02*
X12413500Y-7239000I-32500J0D01*
G01*
X12413500Y-7239000D02*
G75*
G02*
X12478500Y-7239000I32500J0D01*
G01*
X12478500Y-7493000D02*
G75*
G02*
X12413500Y-7493000I-32500J0D01*
G01*
X12413500Y-7493000D02*
G75*
G02*
X12478500Y-7493000I32500J0D01*
G01*
X12478500Y-10795000D02*
G75*
G02*
X12413500Y-10795000I-32500J0D01*
G01*
X12413500Y-10795000D02*
G75*
G02*
X12478500Y-10795000I32500J0D01*
G01*
X12478500Y-11049000D02*
G75*
G02*
X12413500Y-11049000I-32500J0D01*
G01*
X12413500Y-11049000D02*
G75*
G02*
X12478500Y-11049000I32500J0D01*
G01*
X12478500Y-11303000D02*
G75*
G02*
X12413500Y-11303000I-32500J0D01*
G01*
X12413500Y-11303000D02*
G75*
G02*
X12478500Y-11303000I32500J0D01*
G01*
X12605500Y-6858000D02*
G75*
G02*
X12540500Y-6858000I-32500J0D01*
G01*
X12540500Y-6858000D02*
G75*
G02*
X12605500Y-6858000I32500J0D01*
G01*
X12605500Y-7112000D02*
G75*
G02*
X12540500Y-7112000I-32500J0D01*
G01*
X12540500Y-7112000D02*
G75*
G02*
X12605500Y-7112000I32500J0D01*
G01*
X12605500Y-7366000D02*
G75*
G02*
X12540500Y-7366000I-32500J0D01*
G01*
X12540500Y-7366000D02*
G75*
G02*
X12605500Y-7366000I32500J0D01*
G01*
X12605500Y-10922000D02*
G75*
G02*
X12540500Y-10922000I-32500J0D01*
G01*
X12540500Y-10922000D02*
G75*
G02*
X12605500Y-10922000I32500J0D01*
G01*
X12605500Y-11176000D02*
G75*
G02*
X12540500Y-11176000I-32500J0D01*
G01*
X12540500Y-11176000D02*
G75*
G02*
X12605500Y-11176000I32500J0D01*
G01*
X12605500Y-11430000D02*
G75*
G02*
X12540500Y-11430000I-32500J0D01*
G01*
X12540500Y-11430000D02*
G75*
G02*
X12605500Y-11430000I32500J0D01*
G01*
X12732500Y-6985000D02*
G75*
G02*
X12667500Y-6985000I-32500J0D01*
G01*
X12667500Y-6985000D02*
G75*
G02*
X12732500Y-6985000I32500J0D01*
G01*
X12732500Y-7239000D02*
G75*
G02*
X12667500Y-7239000I-32500J0D01*
G01*
X12667500Y-7239000D02*
G75*
G02*
X12732500Y-7239000I32500J0D01*
G01*
X12732500Y-7493000D02*
G75*
G02*
X12667500Y-7493000I-32500J0D01*
G01*
X12667500Y-7493000D02*
G75*
G02*
X12732500Y-7493000I32500J0D01*
G01*
X12732500Y-10795000D02*
G75*
G02*
X12667500Y-10795000I-32500J0D01*
G01*
X12667500Y-10795000D02*
G75*
G02*
X12732500Y-10795000I32500J0D01*
G01*
X12732500Y-11049000D02*
G75*
G02*
X12667500Y-11049000I-32500J0D01*
G01*
X12667500Y-11049000D02*
G75*
G02*
X12732500Y-11049000I32500J0D01*
G01*
X12732500Y-11303000D02*
G75*
G02*
X12667500Y-11303000I-32500J0D01*
G01*
X12667500Y-11303000D02*
G75*
G02*
X12732500Y-11303000I32500J0D01*
G01*
X12859500Y-6858000D02*
G75*
G02*
X12794500Y-6858000I-32500J0D01*
G01*
X12794500Y-6858000D02*
G75*
G02*
X12859500Y-6858000I32500J0D01*
G01*
X12859500Y-7112000D02*
G75*
G02*
X12794500Y-7112000I-32500J0D01*
G01*
X12794500Y-7112000D02*
G75*
G02*
X12859500Y-7112000I32500J0D01*
G01*
X12859500Y-7366000D02*
G75*
G02*
X12794500Y-7366000I-32500J0D01*
G01*
X12794500Y-7366000D02*
G75*
G02*
X12859500Y-7366000I32500J0D01*
G01*
X12859500Y-10922000D02*
G75*
G02*
X12794500Y-10922000I-32500J0D01*
G01*
X12794500Y-10922000D02*
G75*
G02*
X12859500Y-10922000I32500J0D01*
G01*
X12859500Y-11176000D02*
G75*
G02*
X12794500Y-11176000I-32500J0D01*
G01*
X12794500Y-11176000D02*
G75*
G02*
X12859500Y-11176000I32500J0D01*
G01*
X12859500Y-11430000D02*
G75*
G02*
X12794500Y-11430000I-32500J0D01*
G01*
X12794500Y-11430000D02*
G75*
G02*
X12859500Y-11430000I32500J0D01*
G01*
X12986500Y-6985000D02*
G75*
G02*
X12921500Y-6985000I-32500J0D01*
G01*
X12921500Y-6985000D02*
G75*
G02*
X12986500Y-6985000I32500J0D01*
G01*
X12986500Y-7239000D02*
G75*
G02*
X12921500Y-7239000I-32500J0D01*
G01*
X12921500Y-7239000D02*
G75*
G02*
X12986500Y-7239000I32500J0D01*
G01*
X12986500Y-7493000D02*
G75*
G02*
X12921500Y-7493000I-32500J0D01*
G01*
X12921500Y-7493000D02*
G75*
G02*
X12986500Y-7493000I32500J0D01*
G01*
X12986500Y-7747000D02*
G75*
G02*
X12921500Y-7747000I-32500J0D01*
G01*
X12921500Y-7747000D02*
G75*
G02*
X12986500Y-7747000I32500J0D01*
G01*
X12986500Y-8001000D02*
G75*
G02*
X12921500Y-8001000I-32500J0D01*
G01*
X12921500Y-8001000D02*
G75*
G02*
X12986500Y-8001000I32500J0D01*
G01*
X12986500Y-8255000D02*
G75*
G02*
X12921500Y-8255000I-32500J0D01*
G01*
X12921500Y-8255000D02*
G75*
G02*
X12986500Y-8255000I32500J0D01*
G01*
X12986500Y-8509000D02*
G75*
G02*
X12921500Y-8509000I-32500J0D01*
G01*
X12921500Y-8509000D02*
G75*
G02*
X12986500Y-8509000I32500J0D01*
G01*
X12986500Y-8763000D02*
G75*
G02*
X12921500Y-8763000I-32500J0D01*
G01*
X12921500Y-8763000D02*
G75*
G02*
X12986500Y-8763000I32500J0D01*
G01*
X12986500Y-9017000D02*
G75*
G02*
X12921500Y-9017000I-32500J0D01*
G01*
X12921500Y-9017000D02*
G75*
G02*
X12986500Y-9017000I32500J0D01*
G01*
X12986500Y-9271000D02*
G75*
G02*
X12921500Y-9271000I-32500J0D01*
G01*
X12921500Y-9271000D02*
G75*
G02*
X12986500Y-9271000I32500J0D01*
G01*
X12986500Y-9525000D02*
G75*
G02*
X12921500Y-9525000I-32500J0D01*
G01*
X12921500Y-9525000D02*
G75*
G02*
X12986500Y-9525000I32500J0D01*
G01*
X12986500Y-9779000D02*
G75*
G02*
X12921500Y-9779000I-32500J0D01*
G01*
X12921500Y-9779000D02*
G75*
G02*
X12986500Y-9779000I32500J0D01*
G01*
X12986500Y-10033000D02*
G75*
G02*
X12921500Y-10033000I-32500J0D01*
G01*
X12921500Y-10033000D02*
G75*
G02*
X12986500Y-10033000I32500J0D01*
G01*
X12986500Y-10287000D02*
G75*
G02*
X12921500Y-10287000I-32500J0D01*
G01*
X12921500Y-10287000D02*
G75*
G02*
X12986500Y-10287000I32500J0D01*
G01*
X12986500Y-10541000D02*
G75*
G02*
X12921500Y-10541000I-32500J0D01*
G01*
X12921500Y-10541000D02*
G75*
G02*
X12986500Y-10541000I32500J0D01*
G01*
X12986500Y-10795000D02*
G75*
G02*
X12921500Y-10795000I-32500J0D01*
G01*
X12921500Y-10795000D02*
G75*
G02*
X12986500Y-10795000I32500J0D01*
G01*
X12986500Y-11049000D02*
G75*
G02*
X12921500Y-11049000I-32500J0D01*
G01*
X12921500Y-11049000D02*
G75*
G02*
X12986500Y-11049000I32500J0D01*
G01*
X12986500Y-11303000D02*
G75*
G02*
X12921500Y-11303000I-32500J0D01*
G01*
X12921500Y-11303000D02*
G75*
G02*
X12986500Y-11303000I32500J0D01*
G01*
X13113500Y-6858000D02*
G75*
G02*
X13048500Y-6858000I-32500J0D01*
G01*
X13048500Y-6858000D02*
G75*
G02*
X13113500Y-6858000I32500J0D01*
G01*
X13113500Y-7112000D02*
G75*
G02*
X13048500Y-7112000I-32500J0D01*
G01*
X13048500Y-7112000D02*
G75*
G02*
X13113500Y-7112000I32500J0D01*
G01*
X13113500Y-7366000D02*
G75*
G02*
X13048500Y-7366000I-32500J0D01*
G01*
X13048500Y-7366000D02*
G75*
G02*
X13113500Y-7366000I32500J0D01*
G01*
X13113500Y-7620000D02*
G75*
G02*
X13048500Y-7620000I-32500J0D01*
G01*
X13048500Y-7620000D02*
G75*
G02*
X13113500Y-7620000I32500J0D01*
G01*
X13113500Y-7874000D02*
G75*
G02*
X13048500Y-7874000I-32500J0D01*
G01*
X13048500Y-7874000D02*
G75*
G02*
X13113500Y-7874000I32500J0D01*
G01*
X13113500Y-8128000D02*
G75*
G02*
X13048500Y-8128000I-32500J0D01*
G01*
X13048500Y-8128000D02*
G75*
G02*
X13113500Y-8128000I32500J0D01*
G01*
X13113500Y-8382000D02*
G75*
G02*
X13048500Y-8382000I-32500J0D01*
G01*
X13048500Y-8382000D02*
G75*
G02*
X13113500Y-8382000I32500J0D01*
G01*
X13113500Y-8636000D02*
G75*
G02*
X13048500Y-8636000I-32500J0D01*
G01*
X13048500Y-8636000D02*
G75*
G02*
X13113500Y-8636000I32500J0D01*
G01*
X13113500Y-8890000D02*
G75*
G02*
X13048500Y-8890000I-32500J0D01*
G01*
X13048500Y-8890000D02*
G75*
G02*
X13113500Y-8890000I32500J0D01*
G01*
X13113500Y-9144000D02*
G75*
G02*
X13048500Y-9144000I-32500J0D01*
G01*
X13048500Y-9144000D02*
G75*
G02*
X13113500Y-9144000I32500J0D01*
G01*
X13113500Y-9398000D02*
G75*
G02*
X13048500Y-9398000I-32500J0D01*
G01*
X13048500Y-9398000D02*
G75*
G02*
X13113500Y-9398000I32500J0D01*
G01*
X13113500Y-9652000D02*
G75*
G02*
X13048500Y-9652000I-32500J0D01*
G01*
X13048500Y-9652000D02*
G75*
G02*
X13113500Y-9652000I32500J0D01*
G01*
X13113500Y-9906000D02*
G75*
G02*
X13048500Y-9906000I-32500J0D01*
G01*
X13048500Y-9906000D02*
G75*
G02*
X13113500Y-9906000I32500J0D01*
G01*
X13113500Y-10160000D02*
G75*
G02*
X13048500Y-10160000I-32500J0D01*
G01*
X13048500Y-10160000D02*
G75*
G02*
X13113500Y-10160000I32500J0D01*
G01*
X13113500Y-10414000D02*
G75*
G02*
X13048500Y-10414000I-32500J0D01*
G01*
X13048500Y-10414000D02*
G75*
G02*
X13113500Y-10414000I32500J0D01*
G01*
X13113500Y-10668000D02*
G75*
G02*
X13048500Y-10668000I-32500J0D01*
G01*
X13048500Y-10668000D02*
G75*
G02*
X13113500Y-10668000I32500J0D01*
G01*
X13113500Y-10922000D02*
G75*
G02*
X13048500Y-10922000I-32500J0D01*
G01*
X13048500Y-10922000D02*
G75*
G02*
X13113500Y-10922000I32500J0D01*
G01*
X13113500Y-11176000D02*
G75*
G02*
X13048500Y-11176000I-32500J0D01*
G01*
X13048500Y-11176000D02*
G75*
G02*
X13113500Y-11176000I32500J0D01*
G01*
X13113500Y-11430000D02*
G75*
G02*
X13048500Y-11430000I-32500J0D01*
G01*
X13048500Y-11430000D02*
G75*
G02*
X13113500Y-11430000I32500J0D01*
G01*
X13240500Y-6985000D02*
G75*
G02*
X13175500Y-6985000I-32500J0D01*
G01*
X13175500Y-6985000D02*
G75*
G02*
X13240500Y-6985000I32500J0D01*
G01*
X13240500Y-7239000D02*
G75*
G02*
X13175500Y-7239000I-32500J0D01*
G01*
X13175500Y-7239000D02*
G75*
G02*
X13240500Y-7239000I32500J0D01*
G01*
X13240500Y-7493000D02*
G75*
G02*
X13175500Y-7493000I-32500J0D01*
G01*
X13175500Y-7493000D02*
G75*
G02*
X13240500Y-7493000I32500J0D01*
G01*
X13240500Y-7747000D02*
G75*
G02*
X13175500Y-7747000I-32500J0D01*
G01*
X13175500Y-7747000D02*
G75*
G02*
X13240500Y-7747000I32500J0D01*
G01*
X13240500Y-8001000D02*
G75*
G02*
X13175500Y-8001000I-32500J0D01*
G01*
X13175500Y-8001000D02*
G75*
G02*
X13240500Y-8001000I32500J0D01*
G01*
X13240500Y-8255000D02*
G75*
G02*
X13175500Y-8255000I-32500J0D01*
G01*
X13175500Y-8255000D02*
G75*
G02*
X13240500Y-8255000I32500J0D01*
G01*
X13240500Y-8509000D02*
G75*
G02*
X13175500Y-8509000I-32500J0D01*
G01*
X13175500Y-8509000D02*
G75*
G02*
X13240500Y-8509000I32500J0D01*
G01*
X13240500Y-8763000D02*
G75*
G02*
X13175500Y-8763000I-32500J0D01*
G01*
X13175500Y-8763000D02*
G75*
G02*
X13240500Y-8763000I32500J0D01*
G01*
X13240500Y-9017000D02*
G75*
G02*
X13175500Y-9017000I-32500J0D01*
G01*
X13175500Y-9017000D02*
G75*
G02*
X13240500Y-9017000I32500J0D01*
G01*
X13240500Y-9271000D02*
G75*
G02*
X13175500Y-9271000I-32500J0D01*
G01*
X13175500Y-9271000D02*
G75*
G02*
X13240500Y-9271000I32500J0D01*
G01*
X13240500Y-9525000D02*
G75*
G02*
X13175500Y-9525000I-32500J0D01*
G01*
X13175500Y-9525000D02*
G75*
G02*
X13240500Y-9525000I32500J0D01*
G01*
X13240500Y-9779000D02*
G75*
G02*
X13175500Y-9779000I-32500J0D01*
G01*
X13175500Y-9779000D02*
G75*
G02*
X13240500Y-9779000I32500J0D01*
G01*
X13240500Y-10033000D02*
G75*
G02*
X13175500Y-10033000I-32500J0D01*
G01*
X13175500Y-10033000D02*
G75*
G02*
X13240500Y-10033000I32500J0D01*
G01*
X13240500Y-10287000D02*
G75*
G02*
X13175500Y-10287000I-32500J0D01*
G01*
X13175500Y-10287000D02*
G75*
G02*
X13240500Y-10287000I32500J0D01*
G01*
X13240500Y-10541000D02*
G75*
G02*
X13175500Y-10541000I-32500J0D01*
G01*
X13175500Y-10541000D02*
G75*
G02*
X13240500Y-10541000I32500J0D01*
G01*
X13240500Y-10795000D02*
G75*
G02*
X13175500Y-10795000I-32500J0D01*
G01*
X13175500Y-10795000D02*
G75*
G02*
X13240500Y-10795000I32500J0D01*
G01*
X13240500Y-11049000D02*
G75*
G02*
X13175500Y-11049000I-32500J0D01*
G01*
X13175500Y-11049000D02*
G75*
G02*
X13240500Y-11049000I32500J0D01*
G01*
X13240500Y-11303000D02*
G75*
G02*
X13175500Y-11303000I-32500J0D01*
G01*
X13175500Y-11303000D02*
G75*
G02*
X13240500Y-11303000I32500J0D01*
G01*
X13367500Y-6858000D02*
G75*
G02*
X13302500Y-6858000I-32500J0D01*
G01*
X13302500Y-6858000D02*
G75*
G02*
X13367500Y-6858000I32500J0D01*
G01*
X13367500Y-7112000D02*
G75*
G02*
X13302500Y-7112000I-32500J0D01*
G01*
X13302500Y-7112000D02*
G75*
G02*
X13367500Y-7112000I32500J0D01*
G01*
X13367500Y-7366000D02*
G75*
G02*
X13302500Y-7366000I-32500J0D01*
G01*
X13302500Y-7366000D02*
G75*
G02*
X13367500Y-7366000I32500J0D01*
G01*
X13367500Y-7620000D02*
G75*
G02*
X13302500Y-7620000I-32500J0D01*
G01*
X13302500Y-7620000D02*
G75*
G02*
X13367500Y-7620000I32500J0D01*
G01*
X13367500Y-7874000D02*
G75*
G02*
X13302500Y-7874000I-32500J0D01*
G01*
X13302500Y-7874000D02*
G75*
G02*
X13367500Y-7874000I32500J0D01*
G01*
X13367500Y-8128000D02*
G75*
G02*
X13302500Y-8128000I-32500J0D01*
G01*
X13302500Y-8128000D02*
G75*
G02*
X13367500Y-8128000I32500J0D01*
G01*
X13367500Y-8382000D02*
G75*
G02*
X13302500Y-8382000I-32500J0D01*
G01*
X13302500Y-8382000D02*
G75*
G02*
X13367500Y-8382000I32500J0D01*
G01*
X13367500Y-8636000D02*
G75*
G02*
X13302500Y-8636000I-32500J0D01*
G01*
X13302500Y-8636000D02*
G75*
G02*
X13367500Y-8636000I32500J0D01*
G01*
X13367500Y-8890000D02*
G75*
G02*
X13302500Y-8890000I-32500J0D01*
G01*
X13302500Y-8890000D02*
G75*
G02*
X13367500Y-8890000I32500J0D01*
G01*
X13367500Y-9144000D02*
G75*
G02*
X13302500Y-9144000I-32500J0D01*
G01*
X13302500Y-9144000D02*
G75*
G02*
X13367500Y-9144000I32500J0D01*
G01*
X13367500Y-9398000D02*
G75*
G02*
X13302500Y-9398000I-32500J0D01*
G01*
X13302500Y-9398000D02*
G75*
G02*
X13367500Y-9398000I32500J0D01*
G01*
X13367500Y-9652000D02*
G75*
G02*
X13302500Y-9652000I-32500J0D01*
G01*
X13302500Y-9652000D02*
G75*
G02*
X13367500Y-9652000I32500J0D01*
G01*
X13367500Y-9906000D02*
G75*
G02*
X13302500Y-9906000I-32500J0D01*
G01*
X13302500Y-9906000D02*
G75*
G02*
X13367500Y-9906000I32500J0D01*
G01*
X13367500Y-10160000D02*
G75*
G02*
X13302500Y-10160000I-32500J0D01*
G01*
X13302500Y-10160000D02*
G75*
G02*
X13367500Y-10160000I32500J0D01*
G01*
X13367500Y-10414000D02*
G75*
G02*
X13302500Y-10414000I-32500J0D01*
G01*
X13302500Y-10414000D02*
G75*
G02*
X13367500Y-10414000I32500J0D01*
G01*
X13367500Y-10668000D02*
G75*
G02*
X13302500Y-10668000I-32500J0D01*
G01*
X13302500Y-10668000D02*
G75*
G02*
X13367500Y-10668000I32500J0D01*
G01*
X13367500Y-10922000D02*
G75*
G02*
X13302500Y-10922000I-32500J0D01*
G01*
X13302500Y-10922000D02*
G75*
G02*
X13367500Y-10922000I32500J0D01*
G01*
X13367500Y-11176000D02*
G75*
G02*
X13302500Y-11176000I-32500J0D01*
G01*
X13302500Y-11176000D02*
G75*
G02*
X13367500Y-11176000I32500J0D01*
G01*
X13367500Y-11430000D02*
G75*
G02*
X13302500Y-11430000I-32500J0D01*
G01*
X13302500Y-11430000D02*
G75*
G02*
X13367500Y-11430000I32500J0D01*
G01*
X13494500Y-6985000D02*
G75*
G02*
X13429500Y-6985000I-32500J0D01*
G01*
X13429500Y-6985000D02*
G75*
G02*
X13494500Y-6985000I32500J0D01*
G01*
X13494500Y-7239000D02*
G75*
G02*
X13429500Y-7239000I-32500J0D01*
G01*
X13429500Y-7239000D02*
G75*
G02*
X13494500Y-7239000I32500J0D01*
G01*
X13494500Y-7493000D02*
G75*
G02*
X13429500Y-7493000I-32500J0D01*
G01*
X13429500Y-7493000D02*
G75*
G02*
X13494500Y-7493000I32500J0D01*
G01*
X13494500Y-7747000D02*
G75*
G02*
X13429500Y-7747000I-32500J0D01*
G01*
X13429500Y-7747000D02*
G75*
G02*
X13494500Y-7747000I32500J0D01*
G01*
X13494500Y-8001000D02*
G75*
G02*
X13429500Y-8001000I-32500J0D01*
G01*
X13429500Y-8001000D02*
G75*
G02*
X13494500Y-8001000I32500J0D01*
G01*
X13494500Y-8255000D02*
G75*
G02*
X13429500Y-8255000I-32500J0D01*
G01*
X13429500Y-8255000D02*
G75*
G02*
X13494500Y-8255000I32500J0D01*
G01*
X13494500Y-8509000D02*
G75*
G02*
X13429500Y-8509000I-32500J0D01*
G01*
X13429500Y-8509000D02*
G75*
G02*
X13494500Y-8509000I32500J0D01*
G01*
X13494500Y-8763000D02*
G75*
G02*
X13429500Y-8763000I-32500J0D01*
G01*
X13429500Y-8763000D02*
G75*
G02*
X13494500Y-8763000I32500J0D01*
G01*
X13494500Y-9017000D02*
G75*
G02*
X13429500Y-9017000I-32500J0D01*
G01*
X13429500Y-9017000D02*
G75*
G02*
X13494500Y-9017000I32500J0D01*
G01*
X13494500Y-9271000D02*
G75*
G02*
X13429500Y-9271000I-32500J0D01*
G01*
X13429500Y-9271000D02*
G75*
G02*
X13494500Y-9271000I32500J0D01*
G01*
X13494500Y-9525000D02*
G75*
G02*
X13429500Y-9525000I-32500J0D01*
G01*
X13429500Y-9525000D02*
G75*
G02*
X13494500Y-9525000I32500J0D01*
G01*
X13494500Y-9779000D02*
G75*
G02*
X13429500Y-9779000I-32500J0D01*
G01*
X13429500Y-9779000D02*
G75*
G02*
X13494500Y-9779000I32500J0D01*
G01*
X13494500Y-10033000D02*
G75*
G02*
X13429500Y-10033000I-32500J0D01*
G01*
X13429500Y-10033000D02*
G75*
G02*
X13494500Y-10033000I32500J0D01*
G01*
X13494500Y-10287000D02*
G75*
G02*
X13429500Y-10287000I-32500J0D01*
G01*
X13429500Y-10287000D02*
G75*
G02*
X13494500Y-10287000I32500J0D01*
G01*
X13494500Y-10541000D02*
G75*
G02*
X13429500Y-10541000I-32500J0D01*
G01*
X13429500Y-10541000D02*
G75*
G02*
X13494500Y-10541000I32500J0D01*
G01*
X13494500Y-10795000D02*
G75*
G02*
X13429500Y-10795000I-32500J0D01*
G01*
X13429500Y-10795000D02*
G75*
G02*
X13494500Y-10795000I32500J0D01*
G01*
X13494500Y-11049000D02*
G75*
G02*
X13429500Y-11049000I-32500J0D01*
G01*
X13429500Y-11049000D02*
G75*
G02*
X13494500Y-11049000I32500J0D01*
G01*
X13494500Y-11303000D02*
G75*
G02*
X13429500Y-11303000I-32500J0D01*
G01*
X13429500Y-11303000D02*
G75*
G02*
X13494500Y-11303000I32500J0D01*
G01*
X13621500Y-6858000D02*
G75*
G02*
X13556500Y-6858000I-32500J0D01*
G01*
X13556500Y-6858000D02*
G75*
G02*
X13621500Y-6858000I32500J0D01*
G01*
X13621500Y-7112000D02*
G75*
G02*
X13556500Y-7112000I-32500J0D01*
G01*
X13556500Y-7112000D02*
G75*
G02*
X13621500Y-7112000I32500J0D01*
G01*
X13621500Y-7366000D02*
G75*
G02*
X13556500Y-7366000I-32500J0D01*
G01*
X13556500Y-7366000D02*
G75*
G02*
X13621500Y-7366000I32500J0D01*
G01*
X13621500Y-7620000D02*
G75*
G02*
X13556500Y-7620000I-32500J0D01*
G01*
X13556500Y-7620000D02*
G75*
G02*
X13621500Y-7620000I32500J0D01*
G01*
X13621500Y-7874000D02*
G75*
G02*
X13556500Y-7874000I-32500J0D01*
G01*
X13556500Y-7874000D02*
G75*
G02*
X13621500Y-7874000I32500J0D01*
G01*
X13621500Y-8128000D02*
G75*
G02*
X13556500Y-8128000I-32500J0D01*
G01*
X13556500Y-8128000D02*
G75*
G02*
X13621500Y-8128000I32500J0D01*
G01*
X13621500Y-8382000D02*
G75*
G02*
X13556500Y-8382000I-32500J0D01*
G01*
X13556500Y-8382000D02*
G75*
G02*
X13621500Y-8382000I32500J0D01*
G01*
X13621500Y-8636000D02*
G75*
G02*
X13556500Y-8636000I-32500J0D01*
G01*
X13556500Y-8636000D02*
G75*
G02*
X13621500Y-8636000I32500J0D01*
G01*
X13621500Y-8890000D02*
G75*
G02*
X13556500Y-8890000I-32500J0D01*
G01*
X13556500Y-8890000D02*
G75*
G02*
X13621500Y-8890000I32500J0D01*
G01*
X13621500Y-9144000D02*
G75*
G02*
X13556500Y-9144000I-32500J0D01*
G01*
X13556500Y-9144000D02*
G75*
G02*
X13621500Y-9144000I32500J0D01*
G01*
X13621500Y-9398000D02*
G75*
G02*
X13556500Y-9398000I-32500J0D01*
G01*
X13556500Y-9398000D02*
G75*
G02*
X13621500Y-9398000I32500J0D01*
G01*
X13621500Y-9652000D02*
G75*
G02*
X13556500Y-9652000I-32500J0D01*
G01*
X13556500Y-9652000D02*
G75*
G02*
X13621500Y-9652000I32500J0D01*
G01*
X13621500Y-9906000D02*
G75*
G02*
X13556500Y-9906000I-32500J0D01*
G01*
X13556500Y-9906000D02*
G75*
G02*
X13621500Y-9906000I32500J0D01*
G01*
X13621500Y-10160000D02*
G75*
G02*
X13556500Y-10160000I-32500J0D01*
G01*
X13556500Y-10160000D02*
G75*
G02*
X13621500Y-10160000I32500J0D01*
G01*
X13621500Y-10414000D02*
G75*
G02*
X13556500Y-10414000I-32500J0D01*
G01*
X13556500Y-10414000D02*
G75*
G02*
X13621500Y-10414000I32500J0D01*
G01*
X13621500Y-10668000D02*
G75*
G02*
X13556500Y-10668000I-32500J0D01*
G01*
X13556500Y-10668000D02*
G75*
G02*
X13621500Y-10668000I32500J0D01*
G01*
X13621500Y-10922000D02*
G75*
G02*
X13556500Y-10922000I-32500J0D01*
G01*
X13556500Y-10922000D02*
G75*
G02*
X13621500Y-10922000I32500J0D01*
G01*
X13621500Y-11176000D02*
G75*
G02*
X13556500Y-11176000I-32500J0D01*
G01*
X13556500Y-11176000D02*
G75*
G02*
X13621500Y-11176000I32500J0D01*
G01*
X13621500Y-11430000D02*
G75*
G02*
X13556500Y-11430000I-32500J0D01*
G01*
X13556500Y-11430000D02*
G75*
G02*
X13621500Y-11430000I32500J0D01*
G01*
X15336000Y-9588500D02*
G75*
G02*
X15271000Y-9588500I-32500J0D01*
G01*
X15271000Y-9588500D02*
G75*
G02*
X15336000Y-9588500I32500J0D01*
G01*
X15336000Y-9715500D02*
G75*
G02*
X15271000Y-9715500I-32500J0D01*
G01*
X15271000Y-9715500D02*
G75*
G02*
X15336000Y-9715500I32500J0D01*
G01*
X15336000Y-9842500D02*
G75*
G02*
X15271000Y-9842500I-32500J0D01*
G01*
X15271000Y-9842500D02*
G75*
G02*
X15336000Y-9842500I32500J0D01*
G01*
X15336000Y-10033000D02*
G75*
G02*
X15271000Y-10033000I-32500J0D01*
G01*
X15271000Y-10033000D02*
G75*
G02*
X15336000Y-10033000I32500J0D01*
G01*
X15336000Y-10160000D02*
G75*
G02*
X15271000Y-10160000I-32500J0D01*
G01*
X15271000Y-10160000D02*
G75*
G02*
X15336000Y-10160000I32500J0D01*
G01*
X15336000Y-10287000D02*
G75*
G02*
X15271000Y-10287000I-32500J0D01*
G01*
X15271000Y-10287000D02*
G75*
G02*
X15336000Y-10287000I32500J0D01*
G01*
X15336000Y-10474250D02*
G75*
G02*
X15271000Y-10474250I-32500J0D01*
G01*
X15271000Y-10474250D02*
G75*
G02*
X15336000Y-10474250I32500J0D01*
G01*
X15336000Y-10601250D02*
G75*
G02*
X15271000Y-10601250I-32500J0D01*
G01*
X15271000Y-10601250D02*
G75*
G02*
X15336000Y-10601250I32500J0D01*
G01*
X15336000Y-10728250D02*
G75*
G02*
X15271000Y-10728250I-32500J0D01*
G01*
X15271000Y-10728250D02*
G75*
G02*
X15336000Y-10728250I32500J0D01*
G01*
X15336000Y-10918750D02*
G75*
G02*
X15271000Y-10918750I-32500J0D01*
G01*
X15271000Y-10918750D02*
G75*
G02*
X15336000Y-10918750I32500J0D01*
G01*
X15336000Y-11045750D02*
G75*
G02*
X15271000Y-11045750I-32500J0D01*
G01*
X15271000Y-11045750D02*
G75*
G02*
X15336000Y-11045750I32500J0D01*
G01*
X15336000Y-11172750D02*
G75*
G02*
X15271000Y-11172750I-32500J0D01*
G01*
X15271000Y-11172750D02*
G75*
G02*
X15336000Y-11172750I32500J0D01*
G01*
D11*
X9048977Y-11959984D02*
X9048977Y-11759984D01*
X9048977Y-11759984D02*
X9096596Y-11759984D01*
X9096596Y-11759984D02*
X9125167Y-11769508D01*
X9125167Y-11769508D02*
X9144215Y-11788555D01*
X9144215Y-11788555D02*
X9153739Y-11807603D01*
X9153739Y-11807603D02*
X9163263Y-11845698D01*
X9163263Y-11845698D02*
X9163263Y-11874269D01*
X9163263Y-11874269D02*
X9153739Y-11912365D01*
X9153739Y-11912365D02*
X9144215Y-11931412D01*
X9144215Y-11931412D02*
X9125167Y-11950460D01*
X9125167Y-11950460D02*
X9096596Y-11959984D01*
X9096596Y-11959984D02*
X9048977Y-11959984D01*
X9248977Y-11959984D02*
X9248977Y-11826650D01*
X9248977Y-11864746D02*
X9258501Y-11845698D01*
X9258501Y-11845698D02*
X9268024Y-11836174D01*
X9268024Y-11836174D02*
X9287072Y-11826650D01*
X9287072Y-11826650D02*
X9306120Y-11826650D01*
X9372786Y-11959984D02*
X9372786Y-11826650D01*
X9372786Y-11759984D02*
X9363263Y-11769508D01*
X9363263Y-11769508D02*
X9372786Y-11779031D01*
X9372786Y-11779031D02*
X9382310Y-11769508D01*
X9382310Y-11769508D02*
X9372786Y-11759984D01*
X9372786Y-11759984D02*
X9372786Y-11779031D01*
X9496596Y-11959984D02*
X9477548Y-11950460D01*
X9477548Y-11950460D02*
X9468024Y-11931412D01*
X9468024Y-11931412D02*
X9468024Y-11759984D01*
X9601358Y-11959984D02*
X9582310Y-11950460D01*
X9582310Y-11950460D02*
X9572786Y-11931412D01*
X9572786Y-11931412D02*
X9572786Y-11759984D01*
X9829929Y-11959984D02*
X9829929Y-11759984D01*
X9829929Y-11759984D02*
X9896596Y-11902841D01*
X9896596Y-11902841D02*
X9963263Y-11759984D01*
X9963263Y-11759984D02*
X9963263Y-11959984D01*
X10144215Y-11959984D02*
X10144215Y-11855222D01*
X10144215Y-11855222D02*
X10134691Y-11836174D01*
X10134691Y-11836174D02*
X10115644Y-11826650D01*
X10115644Y-11826650D02*
X10077548Y-11826650D01*
X10077548Y-11826650D02*
X10058501Y-11836174D01*
X10144215Y-11950460D02*
X10125167Y-11959984D01*
X10125167Y-11959984D02*
X10077548Y-11959984D01*
X10077548Y-11959984D02*
X10058501Y-11950460D01*
X10058501Y-11950460D02*
X10048977Y-11931412D01*
X10048977Y-11931412D02*
X10048977Y-11912365D01*
X10048977Y-11912365D02*
X10058501Y-11893317D01*
X10058501Y-11893317D02*
X10077548Y-11883793D01*
X10077548Y-11883793D02*
X10125167Y-11883793D01*
X10125167Y-11883793D02*
X10144215Y-11874269D01*
X10239453Y-11826650D02*
X10239453Y-12026650D01*
X10239453Y-11836174D02*
X10258501Y-11826650D01*
X10258501Y-11826650D02*
X10296596Y-11826650D01*
X10296596Y-11826650D02*
X10315644Y-11836174D01*
X10315644Y-11836174D02*
X10325167Y-11845698D01*
X10325167Y-11845698D02*
X10334691Y-11864746D01*
X10334691Y-11864746D02*
X10334691Y-11921888D01*
X10334691Y-11921888D02*
X10325167Y-11940936D01*
X10325167Y-11940936D02*
X10315644Y-11950460D01*
X10315644Y-11950460D02*
X10296596Y-11959984D01*
X10296596Y-11959984D02*
X10258501Y-11959984D01*
X10258501Y-11959984D02*
X10239453Y-11950460D01*
X10420405Y-11940936D02*
X10429929Y-11950460D01*
X10429929Y-11950460D02*
X10420405Y-11959984D01*
X10420405Y-11959984D02*
X10410882Y-11950460D01*
X10410882Y-11950460D02*
X10420405Y-11940936D01*
X10420405Y-11940936D02*
X10420405Y-11959984D01*
X10420405Y-11836174D02*
X10429929Y-11845698D01*
X10429929Y-11845698D02*
X10420405Y-11855222D01*
X10420405Y-11855222D02*
X10410882Y-11845698D01*
X10410882Y-11845698D02*
X10420405Y-11836174D01*
X10420405Y-11836174D02*
X10420405Y-11855222D01*
D10*
X8758200Y-12273500D02*
X8788200Y-12303500D01*
X8788200Y-12273500D02*
X8758200Y-12303500D01*
D11*
X9087072Y-12179984D02*
X9106120Y-12179984D01*
X9106120Y-12179984D02*
X9125167Y-12189508D01*
X9125167Y-12189508D02*
X9134691Y-12199031D01*
X9134691Y-12199031D02*
X9144215Y-12218079D01*
X9144215Y-12218079D02*
X9153739Y-12256174D01*
X9153739Y-12256174D02*
X9153739Y-12303793D01*
X9153739Y-12303793D02*
X9144215Y-12341888D01*
X9144215Y-12341888D02*
X9134691Y-12360936D01*
X9134691Y-12360936D02*
X9125167Y-12370460D01*
X9125167Y-12370460D02*
X9106120Y-12379984D01*
X9106120Y-12379984D02*
X9087072Y-12379984D01*
X9087072Y-12379984D02*
X9068024Y-12370460D01*
X9068024Y-12370460D02*
X9058501Y-12360936D01*
X9058501Y-12360936D02*
X9048977Y-12341888D01*
X9048977Y-12341888D02*
X9039453Y-12303793D01*
X9039453Y-12303793D02*
X9039453Y-12256174D01*
X9039453Y-12256174D02*
X9048977Y-12218079D01*
X9048977Y-12218079D02*
X9058501Y-12199031D01*
X9058501Y-12199031D02*
X9068024Y-12189508D01*
X9068024Y-12189508D02*
X9087072Y-12179984D01*
X9239453Y-12360936D02*
X9248977Y-12370460D01*
X9248977Y-12370460D02*
X9239453Y-12379984D01*
X9239453Y-12379984D02*
X9229929Y-12370460D01*
X9229929Y-12370460D02*
X9239453Y-12360936D01*
X9239453Y-12360936D02*
X9239453Y-12379984D01*
X9315644Y-12179984D02*
X9439453Y-12179984D01*
X9439453Y-12179984D02*
X9372786Y-12256174D01*
X9372786Y-12256174D02*
X9401358Y-12256174D01*
X9401358Y-12256174D02*
X9420405Y-12265698D01*
X9420405Y-12265698D02*
X9429929Y-12275222D01*
X9429929Y-12275222D02*
X9439453Y-12294269D01*
X9439453Y-12294269D02*
X9439453Y-12341888D01*
X9439453Y-12341888D02*
X9429929Y-12360936D01*
X9429929Y-12360936D02*
X9420405Y-12370460D01*
X9420405Y-12370460D02*
X9401358Y-12379984D01*
X9401358Y-12379984D02*
X9344215Y-12379984D01*
X9344215Y-12379984D02*
X9325167Y-12370460D01*
X9325167Y-12370460D02*
X9315644Y-12360936D01*
X9563263Y-12179984D02*
X9582310Y-12179984D01*
X9582310Y-12179984D02*
X9601358Y-12189508D01*
X9601358Y-12189508D02*
X9610882Y-12199031D01*
X9610882Y-12199031D02*
X9620405Y-12218079D01*
X9620405Y-12218079D02*
X9629929Y-12256174D01*
X9629929Y-12256174D02*
X9629929Y-12303793D01*
X9629929Y-12303793D02*
X9620405Y-12341888D01*
X9620405Y-12341888D02*
X9610882Y-12360936D01*
X9610882Y-12360936D02*
X9601358Y-12370460D01*
X9601358Y-12370460D02*
X9582310Y-12379984D01*
X9582310Y-12379984D02*
X9563263Y-12379984D01*
X9563263Y-12379984D02*
X9544215Y-12370460D01*
X9544215Y-12370460D02*
X9534691Y-12360936D01*
X9534691Y-12360936D02*
X9525167Y-12341888D01*
X9525167Y-12341888D02*
X9515644Y-12303793D01*
X9515644Y-12303793D02*
X9515644Y-12256174D01*
X9515644Y-12256174D02*
X9525167Y-12218079D01*
X9525167Y-12218079D02*
X9534691Y-12199031D01*
X9534691Y-12199031D02*
X9544215Y-12189508D01*
X9544215Y-12189508D02*
X9563263Y-12179984D01*
X9753739Y-12179984D02*
X9772786Y-12179984D01*
X9772786Y-12179984D02*
X9791834Y-12189508D01*
X9791834Y-12189508D02*
X9801358Y-12199031D01*
X9801358Y-12199031D02*
X9810882Y-12218079D01*
X9810882Y-12218079D02*
X9820405Y-12256174D01*
X9820405Y-12256174D02*
X9820405Y-12303793D01*
X9820405Y-12303793D02*
X9810882Y-12341888D01*
X9810882Y-12341888D02*
X9801358Y-12360936D01*
X9801358Y-12360936D02*
X9791834Y-12370460D01*
X9791834Y-12370460D02*
X9772786Y-12379984D01*
X9772786Y-12379984D02*
X9753739Y-12379984D01*
X9753739Y-12379984D02*
X9734691Y-12370460D01*
X9734691Y-12370460D02*
X9725167Y-12360936D01*
X9725167Y-12360936D02*
X9715644Y-12341888D01*
X9715644Y-12341888D02*
X9706120Y-12303793D01*
X9706120Y-12303793D02*
X9706120Y-12256174D01*
X9706120Y-12256174D02*
X9715644Y-12218079D01*
X9715644Y-12218079D02*
X9725167Y-12199031D01*
X9725167Y-12199031D02*
X9734691Y-12189508D01*
X9734691Y-12189508D02*
X9753739Y-12179984D01*
X9906120Y-12379984D02*
X9906120Y-12246650D01*
X9906120Y-12265698D02*
X9915644Y-12256174D01*
X9915644Y-12256174D02*
X9934691Y-12246650D01*
X9934691Y-12246650D02*
X9963263Y-12246650D01*
X9963263Y-12246650D02*
X9982310Y-12256174D01*
X9982310Y-12256174D02*
X9991834Y-12275222D01*
X9991834Y-12275222D02*
X9991834Y-12379984D01*
X9991834Y-12275222D02*
X10001358Y-12256174D01*
X10001358Y-12256174D02*
X10020405Y-12246650D01*
X10020405Y-12246650D02*
X10048977Y-12246650D01*
X10048977Y-12246650D02*
X10068025Y-12256174D01*
X10068025Y-12256174D02*
X10077548Y-12275222D01*
X10077548Y-12275222D02*
X10077548Y-12379984D01*
X10172786Y-12379984D02*
X10172786Y-12246650D01*
X10172786Y-12265698D02*
X10182310Y-12256174D01*
X10182310Y-12256174D02*
X10201358Y-12246650D01*
X10201358Y-12246650D02*
X10229929Y-12246650D01*
X10229929Y-12246650D02*
X10248977Y-12256174D01*
X10248977Y-12256174D02*
X10258501Y-12275222D01*
X10258501Y-12275222D02*
X10258501Y-12379984D01*
X10258501Y-12275222D02*
X10268025Y-12256174D01*
X10268025Y-12256174D02*
X10287072Y-12246650D01*
X10287072Y-12246650D02*
X10315644Y-12246650D01*
X10315644Y-12246650D02*
X10334691Y-12256174D01*
X10334691Y-12256174D02*
X10344215Y-12275222D01*
X10344215Y-12275222D02*
X10344215Y-12379984D01*
X10734691Y-12170460D02*
X10563263Y-12427603D01*
X10991834Y-12179984D02*
X11010882Y-12179984D01*
X11010882Y-12179984D02*
X11029929Y-12189508D01*
X11029929Y-12189508D02*
X11039453Y-12199031D01*
X11039453Y-12199031D02*
X11048977Y-12218079D01*
X11048977Y-12218079D02*
X11058501Y-12256174D01*
X11058501Y-12256174D02*
X11058501Y-12303793D01*
X11058501Y-12303793D02*
X11048977Y-12341888D01*
X11048977Y-12341888D02*
X11039453Y-12360936D01*
X11039453Y-12360936D02*
X11029929Y-12370460D01*
X11029929Y-12370460D02*
X11010882Y-12379984D01*
X11010882Y-12379984D02*
X10991834Y-12379984D01*
X10991834Y-12379984D02*
X10972787Y-12370460D01*
X10972787Y-12370460D02*
X10963263Y-12360936D01*
X10963263Y-12360936D02*
X10953739Y-12341888D01*
X10953739Y-12341888D02*
X10944215Y-12303793D01*
X10944215Y-12303793D02*
X10944215Y-12256174D01*
X10944215Y-12256174D02*
X10953739Y-12218079D01*
X10953739Y-12218079D02*
X10963263Y-12199031D01*
X10963263Y-12199031D02*
X10972787Y-12189508D01*
X10972787Y-12189508D02*
X10991834Y-12179984D01*
X11144215Y-12360936D02*
X11153739Y-12370460D01*
X11153739Y-12370460D02*
X11144215Y-12379984D01*
X11144215Y-12379984D02*
X11134691Y-12370460D01*
X11134691Y-12370460D02*
X11144215Y-12360936D01*
X11144215Y-12360936D02*
X11144215Y-12379984D01*
X11277548Y-12179984D02*
X11296596Y-12179984D01*
X11296596Y-12179984D02*
X11315644Y-12189508D01*
X11315644Y-12189508D02*
X11325167Y-12199031D01*
X11325167Y-12199031D02*
X11334691Y-12218079D01*
X11334691Y-12218079D02*
X11344215Y-12256174D01*
X11344215Y-12256174D02*
X11344215Y-12303793D01*
X11344215Y-12303793D02*
X11334691Y-12341888D01*
X11334691Y-12341888D02*
X11325167Y-12360936D01*
X11325167Y-12360936D02*
X11315644Y-12370460D01*
X11315644Y-12370460D02*
X11296596Y-12379984D01*
X11296596Y-12379984D02*
X11277548Y-12379984D01*
X11277548Y-12379984D02*
X11258501Y-12370460D01*
X11258501Y-12370460D02*
X11248977Y-12360936D01*
X11248977Y-12360936D02*
X11239453Y-12341888D01*
X11239453Y-12341888D02*
X11229929Y-12303793D01*
X11229929Y-12303793D02*
X11229929Y-12256174D01*
X11229929Y-12256174D02*
X11239453Y-12218079D01*
X11239453Y-12218079D02*
X11248977Y-12199031D01*
X11248977Y-12199031D02*
X11258501Y-12189508D01*
X11258501Y-12189508D02*
X11277548Y-12179984D01*
X11534691Y-12379984D02*
X11420406Y-12379984D01*
X11477548Y-12379984D02*
X11477548Y-12179984D01*
X11477548Y-12179984D02*
X11458501Y-12208555D01*
X11458501Y-12208555D02*
X11439453Y-12227603D01*
X11439453Y-12227603D02*
X11420406Y-12237127D01*
X11725167Y-12379984D02*
X11610882Y-12379984D01*
X11668025Y-12379984D02*
X11668025Y-12179984D01*
X11668025Y-12179984D02*
X11648977Y-12208555D01*
X11648977Y-12208555D02*
X11629929Y-12227603D01*
X11629929Y-12227603D02*
X11610882Y-12237127D01*
X11839453Y-12265698D02*
X11820406Y-12256174D01*
X11820406Y-12256174D02*
X11810882Y-12246650D01*
X11810882Y-12246650D02*
X11801358Y-12227603D01*
X11801358Y-12227603D02*
X11801358Y-12218079D01*
X11801358Y-12218079D02*
X11810882Y-12199031D01*
X11810882Y-12199031D02*
X11820406Y-12189508D01*
X11820406Y-12189508D02*
X11839453Y-12179984D01*
X11839453Y-12179984D02*
X11877548Y-12179984D01*
X11877548Y-12179984D02*
X11896596Y-12189508D01*
X11896596Y-12189508D02*
X11906120Y-12199031D01*
X11906120Y-12199031D02*
X11915644Y-12218079D01*
X11915644Y-12218079D02*
X11915644Y-12227603D01*
X11915644Y-12227603D02*
X11906120Y-12246650D01*
X11906120Y-12246650D02*
X11896596Y-12256174D01*
X11896596Y-12256174D02*
X11877548Y-12265698D01*
X11877548Y-12265698D02*
X11839453Y-12265698D01*
X11839453Y-12265698D02*
X11820406Y-12275222D01*
X11820406Y-12275222D02*
X11810882Y-12284746D01*
X11810882Y-12284746D02*
X11801358Y-12303793D01*
X11801358Y-12303793D02*
X11801358Y-12341888D01*
X11801358Y-12341888D02*
X11810882Y-12360936D01*
X11810882Y-12360936D02*
X11820406Y-12370460D01*
X11820406Y-12370460D02*
X11839453Y-12379984D01*
X11839453Y-12379984D02*
X11877548Y-12379984D01*
X11877548Y-12379984D02*
X11896596Y-12370460D01*
X11896596Y-12370460D02*
X11906120Y-12360936D01*
X11906120Y-12360936D02*
X11915644Y-12341888D01*
X11915644Y-12341888D02*
X11915644Y-12303793D01*
X11915644Y-12303793D02*
X11906120Y-12284746D01*
X11906120Y-12284746D02*
X11896596Y-12275222D01*
X11896596Y-12275222D02*
X11877548Y-12265698D01*
X11991834Y-12179984D02*
X11991834Y-12218079D01*
X12068025Y-12179984D02*
X12068025Y-12218079D01*
X12363263Y-12456174D02*
X12353739Y-12446650D01*
X12353739Y-12446650D02*
X12334691Y-12418079D01*
X12334691Y-12418079D02*
X12325168Y-12399031D01*
X12325168Y-12399031D02*
X12315644Y-12370460D01*
X12315644Y-12370460D02*
X12306120Y-12322841D01*
X12306120Y-12322841D02*
X12306120Y-12284746D01*
X12306120Y-12284746D02*
X12315644Y-12237127D01*
X12315644Y-12237127D02*
X12325168Y-12208555D01*
X12325168Y-12208555D02*
X12334691Y-12189508D01*
X12334691Y-12189508D02*
X12353739Y-12160936D01*
X12353739Y-12160936D02*
X12363263Y-12151412D01*
X12420406Y-12179984D02*
X12553739Y-12179984D01*
X12553739Y-12179984D02*
X12468025Y-12379984D01*
X12610882Y-12179984D02*
X12734691Y-12179984D01*
X12734691Y-12179984D02*
X12668025Y-12256174D01*
X12668025Y-12256174D02*
X12696596Y-12256174D01*
X12696596Y-12256174D02*
X12715644Y-12265698D01*
X12715644Y-12265698D02*
X12725168Y-12275222D01*
X12725168Y-12275222D02*
X12734691Y-12294269D01*
X12734691Y-12294269D02*
X12734691Y-12341888D01*
X12734691Y-12341888D02*
X12725168Y-12360936D01*
X12725168Y-12360936D02*
X12715644Y-12370460D01*
X12715644Y-12370460D02*
X12696596Y-12379984D01*
X12696596Y-12379984D02*
X12639453Y-12379984D01*
X12639453Y-12379984D02*
X12620406Y-12370460D01*
X12620406Y-12370460D02*
X12610882Y-12360936D01*
X12972787Y-12379984D02*
X12972787Y-12179984D01*
X13058501Y-12379984D02*
X13058501Y-12275222D01*
X13058501Y-12275222D02*
X13048977Y-12256174D01*
X13048977Y-12256174D02*
X13029930Y-12246650D01*
X13029930Y-12246650D02*
X13001358Y-12246650D01*
X13001358Y-12246650D02*
X12982310Y-12256174D01*
X12982310Y-12256174D02*
X12972787Y-12265698D01*
X13182310Y-12379984D02*
X13163263Y-12370460D01*
X13163263Y-12370460D02*
X13153739Y-12360936D01*
X13153739Y-12360936D02*
X13144215Y-12341888D01*
X13144215Y-12341888D02*
X13144215Y-12284746D01*
X13144215Y-12284746D02*
X13153739Y-12265698D01*
X13153739Y-12265698D02*
X13163263Y-12256174D01*
X13163263Y-12256174D02*
X13182310Y-12246650D01*
X13182310Y-12246650D02*
X13210882Y-12246650D01*
X13210882Y-12246650D02*
X13229930Y-12256174D01*
X13229930Y-12256174D02*
X13239453Y-12265698D01*
X13239453Y-12265698D02*
X13248977Y-12284746D01*
X13248977Y-12284746D02*
X13248977Y-12341888D01*
X13248977Y-12341888D02*
X13239453Y-12360936D01*
X13239453Y-12360936D02*
X13229930Y-12370460D01*
X13229930Y-12370460D02*
X13210882Y-12379984D01*
X13210882Y-12379984D02*
X13182310Y-12379984D01*
X13363263Y-12379984D02*
X13344215Y-12370460D01*
X13344215Y-12370460D02*
X13334691Y-12351412D01*
X13334691Y-12351412D02*
X13334691Y-12179984D01*
X13515644Y-12370460D02*
X13496596Y-12379984D01*
X13496596Y-12379984D02*
X13458501Y-12379984D01*
X13458501Y-12379984D02*
X13439453Y-12370460D01*
X13439453Y-12370460D02*
X13429930Y-12351412D01*
X13429930Y-12351412D02*
X13429930Y-12275222D01*
X13429930Y-12275222D02*
X13439453Y-12256174D01*
X13439453Y-12256174D02*
X13458501Y-12246650D01*
X13458501Y-12246650D02*
X13496596Y-12246650D01*
X13496596Y-12246650D02*
X13515644Y-12256174D01*
X13515644Y-12256174D02*
X13525168Y-12275222D01*
X13525168Y-12275222D02*
X13525168Y-12294269D01*
X13525168Y-12294269D02*
X13429930Y-12313317D01*
X13601358Y-12370460D02*
X13620406Y-12379984D01*
X13620406Y-12379984D02*
X13658501Y-12379984D01*
X13658501Y-12379984D02*
X13677549Y-12370460D01*
X13677549Y-12370460D02*
X13687072Y-12351412D01*
X13687072Y-12351412D02*
X13687072Y-12341888D01*
X13687072Y-12341888D02*
X13677549Y-12322841D01*
X13677549Y-12322841D02*
X13658501Y-12313317D01*
X13658501Y-12313317D02*
X13629930Y-12313317D01*
X13629930Y-12313317D02*
X13610882Y-12303793D01*
X13610882Y-12303793D02*
X13601358Y-12284746D01*
X13601358Y-12284746D02*
X13601358Y-12275222D01*
X13601358Y-12275222D02*
X13610882Y-12256174D01*
X13610882Y-12256174D02*
X13629930Y-12246650D01*
X13629930Y-12246650D02*
X13658501Y-12246650D01*
X13658501Y-12246650D02*
X13677549Y-12256174D01*
X13753739Y-12456174D02*
X13763263Y-12446650D01*
X13763263Y-12446650D02*
X13782311Y-12418079D01*
X13782311Y-12418079D02*
X13791834Y-12399031D01*
X13791834Y-12399031D02*
X13801358Y-12370460D01*
X13801358Y-12370460D02*
X13810882Y-12322841D01*
X13810882Y-12322841D02*
X13810882Y-12284746D01*
X13810882Y-12284746D02*
X13801358Y-12237127D01*
X13801358Y-12237127D02*
X13791834Y-12208555D01*
X13791834Y-12208555D02*
X13782311Y-12189508D01*
X13782311Y-12189508D02*
X13763263Y-12160936D01*
X13763263Y-12160936D02*
X13753739Y-12151412D01*
D10*
X8788200Y-12552500D02*
G75*
G02*
X8723200Y-12552500I-32500J0D01*
G01*
X8723200Y-12552500D02*
G75*
G02*
X8788200Y-12552500I32500J0D01*
G01*
D11*
X9087072Y-12443984D02*
X9106120Y-12443984D01*
X9106120Y-12443984D02*
X9125167Y-12453508D01*
X9125167Y-12453508D02*
X9134691Y-12463031D01*
X9134691Y-12463031D02*
X9144215Y-12482079D01*
X9144215Y-12482079D02*
X9153739Y-12520174D01*
X9153739Y-12520174D02*
X9153739Y-12567793D01*
X9153739Y-12567793D02*
X9144215Y-12605888D01*
X9144215Y-12605888D02*
X9134691Y-12624936D01*
X9134691Y-12624936D02*
X9125167Y-12634460D01*
X9125167Y-12634460D02*
X9106120Y-12643984D01*
X9106120Y-12643984D02*
X9087072Y-12643984D01*
X9087072Y-12643984D02*
X9068024Y-12634460D01*
X9068024Y-12634460D02*
X9058501Y-12624936D01*
X9058501Y-12624936D02*
X9048977Y-12605888D01*
X9048977Y-12605888D02*
X9039453Y-12567793D01*
X9039453Y-12567793D02*
X9039453Y-12520174D01*
X9039453Y-12520174D02*
X9048977Y-12482079D01*
X9048977Y-12482079D02*
X9058501Y-12463031D01*
X9058501Y-12463031D02*
X9068024Y-12453508D01*
X9068024Y-12453508D02*
X9087072Y-12443984D01*
X9239453Y-12624936D02*
X9248977Y-12634460D01*
X9248977Y-12634460D02*
X9239453Y-12643984D01*
X9239453Y-12643984D02*
X9229929Y-12634460D01*
X9229929Y-12634460D02*
X9239453Y-12624936D01*
X9239453Y-12624936D02*
X9239453Y-12643984D01*
X9420405Y-12443984D02*
X9382310Y-12443984D01*
X9382310Y-12443984D02*
X9363263Y-12453508D01*
X9363263Y-12453508D02*
X9353739Y-12463031D01*
X9353739Y-12463031D02*
X9334691Y-12491603D01*
X9334691Y-12491603D02*
X9325167Y-12529698D01*
X9325167Y-12529698D02*
X9325167Y-12605888D01*
X9325167Y-12605888D02*
X9334691Y-12624936D01*
X9334691Y-12624936D02*
X9344215Y-12634460D01*
X9344215Y-12634460D02*
X9363263Y-12643984D01*
X9363263Y-12643984D02*
X9401358Y-12643984D01*
X9401358Y-12643984D02*
X9420405Y-12634460D01*
X9420405Y-12634460D02*
X9429929Y-12624936D01*
X9429929Y-12624936D02*
X9439453Y-12605888D01*
X9439453Y-12605888D02*
X9439453Y-12558269D01*
X9439453Y-12558269D02*
X9429929Y-12539222D01*
X9429929Y-12539222D02*
X9420405Y-12529698D01*
X9420405Y-12529698D02*
X9401358Y-12520174D01*
X9401358Y-12520174D02*
X9363263Y-12520174D01*
X9363263Y-12520174D02*
X9344215Y-12529698D01*
X9344215Y-12529698D02*
X9334691Y-12539222D01*
X9334691Y-12539222D02*
X9325167Y-12558269D01*
X9620405Y-12443984D02*
X9525167Y-12443984D01*
X9525167Y-12443984D02*
X9515644Y-12539222D01*
X9515644Y-12539222D02*
X9525167Y-12529698D01*
X9525167Y-12529698D02*
X9544215Y-12520174D01*
X9544215Y-12520174D02*
X9591834Y-12520174D01*
X9591834Y-12520174D02*
X9610882Y-12529698D01*
X9610882Y-12529698D02*
X9620405Y-12539222D01*
X9620405Y-12539222D02*
X9629929Y-12558269D01*
X9629929Y-12558269D02*
X9629929Y-12605888D01*
X9629929Y-12605888D02*
X9620405Y-12624936D01*
X9620405Y-12624936D02*
X9610882Y-12634460D01*
X9610882Y-12634460D02*
X9591834Y-12643984D01*
X9591834Y-12643984D02*
X9544215Y-12643984D01*
X9544215Y-12643984D02*
X9525167Y-12634460D01*
X9525167Y-12634460D02*
X9515644Y-12624936D01*
X9753739Y-12443984D02*
X9772786Y-12443984D01*
X9772786Y-12443984D02*
X9791834Y-12453508D01*
X9791834Y-12453508D02*
X9801358Y-12463031D01*
X9801358Y-12463031D02*
X9810882Y-12482079D01*
X9810882Y-12482079D02*
X9820405Y-12520174D01*
X9820405Y-12520174D02*
X9820405Y-12567793D01*
X9820405Y-12567793D02*
X9810882Y-12605888D01*
X9810882Y-12605888D02*
X9801358Y-12624936D01*
X9801358Y-12624936D02*
X9791834Y-12634460D01*
X9791834Y-12634460D02*
X9772786Y-12643984D01*
X9772786Y-12643984D02*
X9753739Y-12643984D01*
X9753739Y-12643984D02*
X9734691Y-12634460D01*
X9734691Y-12634460D02*
X9725167Y-12624936D01*
X9725167Y-12624936D02*
X9715644Y-12605888D01*
X9715644Y-12605888D02*
X9706120Y-12567793D01*
X9706120Y-12567793D02*
X9706120Y-12520174D01*
X9706120Y-12520174D02*
X9715644Y-12482079D01*
X9715644Y-12482079D02*
X9725167Y-12463031D01*
X9725167Y-12463031D02*
X9734691Y-12453508D01*
X9734691Y-12453508D02*
X9753739Y-12443984D01*
X9906120Y-12643984D02*
X9906120Y-12510650D01*
X9906120Y-12529698D02*
X9915644Y-12520174D01*
X9915644Y-12520174D02*
X9934691Y-12510650D01*
X9934691Y-12510650D02*
X9963263Y-12510650D01*
X9963263Y-12510650D02*
X9982310Y-12520174D01*
X9982310Y-12520174D02*
X9991834Y-12539222D01*
X9991834Y-12539222D02*
X9991834Y-12643984D01*
X9991834Y-12539222D02*
X10001358Y-12520174D01*
X10001358Y-12520174D02*
X10020405Y-12510650D01*
X10020405Y-12510650D02*
X10048977Y-12510650D01*
X10048977Y-12510650D02*
X10068025Y-12520174D01*
X10068025Y-12520174D02*
X10077548Y-12539222D01*
X10077548Y-12539222D02*
X10077548Y-12643984D01*
X10172786Y-12643984D02*
X10172786Y-12510650D01*
X10172786Y-12529698D02*
X10182310Y-12520174D01*
X10182310Y-12520174D02*
X10201358Y-12510650D01*
X10201358Y-12510650D02*
X10229929Y-12510650D01*
X10229929Y-12510650D02*
X10248977Y-12520174D01*
X10248977Y-12520174D02*
X10258501Y-12539222D01*
X10258501Y-12539222D02*
X10258501Y-12643984D01*
X10258501Y-12539222D02*
X10268025Y-12520174D01*
X10268025Y-12520174D02*
X10287072Y-12510650D01*
X10287072Y-12510650D02*
X10315644Y-12510650D01*
X10315644Y-12510650D02*
X10334691Y-12520174D01*
X10334691Y-12520174D02*
X10344215Y-12539222D01*
X10344215Y-12539222D02*
X10344215Y-12643984D01*
X10734691Y-12434460D02*
X10563263Y-12691603D01*
X10991834Y-12443984D02*
X11010882Y-12443984D01*
X11010882Y-12443984D02*
X11029929Y-12453508D01*
X11029929Y-12453508D02*
X11039453Y-12463031D01*
X11039453Y-12463031D02*
X11048977Y-12482079D01*
X11048977Y-12482079D02*
X11058501Y-12520174D01*
X11058501Y-12520174D02*
X11058501Y-12567793D01*
X11058501Y-12567793D02*
X11048977Y-12605888D01*
X11048977Y-12605888D02*
X11039453Y-12624936D01*
X11039453Y-12624936D02*
X11029929Y-12634460D01*
X11029929Y-12634460D02*
X11010882Y-12643984D01*
X11010882Y-12643984D02*
X10991834Y-12643984D01*
X10991834Y-12643984D02*
X10972787Y-12634460D01*
X10972787Y-12634460D02*
X10963263Y-12624936D01*
X10963263Y-12624936D02*
X10953739Y-12605888D01*
X10953739Y-12605888D02*
X10944215Y-12567793D01*
X10944215Y-12567793D02*
X10944215Y-12520174D01*
X10944215Y-12520174D02*
X10953739Y-12482079D01*
X10953739Y-12482079D02*
X10963263Y-12463031D01*
X10963263Y-12463031D02*
X10972787Y-12453508D01*
X10972787Y-12453508D02*
X10991834Y-12443984D01*
X11144215Y-12624936D02*
X11153739Y-12634460D01*
X11153739Y-12634460D02*
X11144215Y-12643984D01*
X11144215Y-12643984D02*
X11134691Y-12634460D01*
X11134691Y-12634460D02*
X11144215Y-12624936D01*
X11144215Y-12624936D02*
X11144215Y-12643984D01*
X11277548Y-12443984D02*
X11296596Y-12443984D01*
X11296596Y-12443984D02*
X11315644Y-12453508D01*
X11315644Y-12453508D02*
X11325167Y-12463031D01*
X11325167Y-12463031D02*
X11334691Y-12482079D01*
X11334691Y-12482079D02*
X11344215Y-12520174D01*
X11344215Y-12520174D02*
X11344215Y-12567793D01*
X11344215Y-12567793D02*
X11334691Y-12605888D01*
X11334691Y-12605888D02*
X11325167Y-12624936D01*
X11325167Y-12624936D02*
X11315644Y-12634460D01*
X11315644Y-12634460D02*
X11296596Y-12643984D01*
X11296596Y-12643984D02*
X11277548Y-12643984D01*
X11277548Y-12643984D02*
X11258501Y-12634460D01*
X11258501Y-12634460D02*
X11248977Y-12624936D01*
X11248977Y-12624936D02*
X11239453Y-12605888D01*
X11239453Y-12605888D02*
X11229929Y-12567793D01*
X11229929Y-12567793D02*
X11229929Y-12520174D01*
X11229929Y-12520174D02*
X11239453Y-12482079D01*
X11239453Y-12482079D02*
X11248977Y-12463031D01*
X11248977Y-12463031D02*
X11258501Y-12453508D01*
X11258501Y-12453508D02*
X11277548Y-12443984D01*
X11420406Y-12463031D02*
X11429929Y-12453508D01*
X11429929Y-12453508D02*
X11448977Y-12443984D01*
X11448977Y-12443984D02*
X11496596Y-12443984D01*
X11496596Y-12443984D02*
X11515644Y-12453508D01*
X11515644Y-12453508D02*
X11525167Y-12463031D01*
X11525167Y-12463031D02*
X11534691Y-12482079D01*
X11534691Y-12482079D02*
X11534691Y-12501127D01*
X11534691Y-12501127D02*
X11525167Y-12529698D01*
X11525167Y-12529698D02*
X11410882Y-12643984D01*
X11410882Y-12643984D02*
X11534691Y-12643984D01*
X11715644Y-12443984D02*
X11620406Y-12443984D01*
X11620406Y-12443984D02*
X11610882Y-12539222D01*
X11610882Y-12539222D02*
X11620406Y-12529698D01*
X11620406Y-12529698D02*
X11639453Y-12520174D01*
X11639453Y-12520174D02*
X11687072Y-12520174D01*
X11687072Y-12520174D02*
X11706120Y-12529698D01*
X11706120Y-12529698D02*
X11715644Y-12539222D01*
X11715644Y-12539222D02*
X11725167Y-12558269D01*
X11725167Y-12558269D02*
X11725167Y-12605888D01*
X11725167Y-12605888D02*
X11715644Y-12624936D01*
X11715644Y-12624936D02*
X11706120Y-12634460D01*
X11706120Y-12634460D02*
X11687072Y-12643984D01*
X11687072Y-12643984D02*
X11639453Y-12643984D01*
X11639453Y-12643984D02*
X11620406Y-12634460D01*
X11620406Y-12634460D02*
X11610882Y-12624936D01*
X11896596Y-12443984D02*
X11858501Y-12443984D01*
X11858501Y-12443984D02*
X11839453Y-12453508D01*
X11839453Y-12453508D02*
X11829929Y-12463031D01*
X11829929Y-12463031D02*
X11810882Y-12491603D01*
X11810882Y-12491603D02*
X11801358Y-12529698D01*
X11801358Y-12529698D02*
X11801358Y-12605888D01*
X11801358Y-12605888D02*
X11810882Y-12624936D01*
X11810882Y-12624936D02*
X11820406Y-12634460D01*
X11820406Y-12634460D02*
X11839453Y-12643984D01*
X11839453Y-12643984D02*
X11877548Y-12643984D01*
X11877548Y-12643984D02*
X11896596Y-12634460D01*
X11896596Y-12634460D02*
X11906120Y-12624936D01*
X11906120Y-12624936D02*
X11915644Y-12605888D01*
X11915644Y-12605888D02*
X11915644Y-12558269D01*
X11915644Y-12558269D02*
X11906120Y-12539222D01*
X11906120Y-12539222D02*
X11896596Y-12529698D01*
X11896596Y-12529698D02*
X11877548Y-12520174D01*
X11877548Y-12520174D02*
X11839453Y-12520174D01*
X11839453Y-12520174D02*
X11820406Y-12529698D01*
X11820406Y-12529698D02*
X11810882Y-12539222D01*
X11810882Y-12539222D02*
X11801358Y-12558269D01*
X11991834Y-12443984D02*
X11991834Y-12482079D01*
X12068025Y-12443984D02*
X12068025Y-12482079D01*
X12363263Y-12720174D02*
X12353739Y-12710650D01*
X12353739Y-12710650D02*
X12334691Y-12682079D01*
X12334691Y-12682079D02*
X12325168Y-12663031D01*
X12325168Y-12663031D02*
X12315644Y-12634460D01*
X12315644Y-12634460D02*
X12306120Y-12586841D01*
X12306120Y-12586841D02*
X12306120Y-12548746D01*
X12306120Y-12548746D02*
X12315644Y-12501127D01*
X12315644Y-12501127D02*
X12325168Y-12472555D01*
X12325168Y-12472555D02*
X12334691Y-12453508D01*
X12334691Y-12453508D02*
X12353739Y-12424936D01*
X12353739Y-12424936D02*
X12363263Y-12415412D01*
X12420406Y-12443984D02*
X12544215Y-12443984D01*
X12544215Y-12443984D02*
X12477548Y-12520174D01*
X12477548Y-12520174D02*
X12506120Y-12520174D01*
X12506120Y-12520174D02*
X12525168Y-12529698D01*
X12525168Y-12529698D02*
X12534691Y-12539222D01*
X12534691Y-12539222D02*
X12544215Y-12558269D01*
X12544215Y-12558269D02*
X12544215Y-12605888D01*
X12544215Y-12605888D02*
X12534691Y-12624936D01*
X12534691Y-12624936D02*
X12525168Y-12634460D01*
X12525168Y-12634460D02*
X12506120Y-12643984D01*
X12506120Y-12643984D02*
X12448977Y-12643984D01*
X12448977Y-12643984D02*
X12429929Y-12634460D01*
X12429929Y-12634460D02*
X12420406Y-12624936D01*
X12658501Y-12529698D02*
X12639453Y-12520174D01*
X12639453Y-12520174D02*
X12629929Y-12510650D01*
X12629929Y-12510650D02*
X12620406Y-12491603D01*
X12620406Y-12491603D02*
X12620406Y-12482079D01*
X12620406Y-12482079D02*
X12629929Y-12463031D01*
X12629929Y-12463031D02*
X12639453Y-12453508D01*
X12639453Y-12453508D02*
X12658501Y-12443984D01*
X12658501Y-12443984D02*
X12696596Y-12443984D01*
X12696596Y-12443984D02*
X12715644Y-12453508D01*
X12715644Y-12453508D02*
X12725168Y-12463031D01*
X12725168Y-12463031D02*
X12734691Y-12482079D01*
X12734691Y-12482079D02*
X12734691Y-12491603D01*
X12734691Y-12491603D02*
X12725168Y-12510650D01*
X12725168Y-12510650D02*
X12715644Y-12520174D01*
X12715644Y-12520174D02*
X12696596Y-12529698D01*
X12696596Y-12529698D02*
X12658501Y-12529698D01*
X12658501Y-12529698D02*
X12639453Y-12539222D01*
X12639453Y-12539222D02*
X12629929Y-12548746D01*
X12629929Y-12548746D02*
X12620406Y-12567793D01*
X12620406Y-12567793D02*
X12620406Y-12605888D01*
X12620406Y-12605888D02*
X12629929Y-12624936D01*
X12629929Y-12624936D02*
X12639453Y-12634460D01*
X12639453Y-12634460D02*
X12658501Y-12643984D01*
X12658501Y-12643984D02*
X12696596Y-12643984D01*
X12696596Y-12643984D02*
X12715644Y-12634460D01*
X12715644Y-12634460D02*
X12725168Y-12624936D01*
X12725168Y-12624936D02*
X12734691Y-12605888D01*
X12734691Y-12605888D02*
X12734691Y-12567793D01*
X12734691Y-12567793D02*
X12725168Y-12548746D01*
X12725168Y-12548746D02*
X12715644Y-12539222D01*
X12715644Y-12539222D02*
X12696596Y-12529698D01*
X12810882Y-12463031D02*
X12820406Y-12453508D01*
X12820406Y-12453508D02*
X12839453Y-12443984D01*
X12839453Y-12443984D02*
X12887072Y-12443984D01*
X12887072Y-12443984D02*
X12906120Y-12453508D01*
X12906120Y-12453508D02*
X12915644Y-12463031D01*
X12915644Y-12463031D02*
X12925168Y-12482079D01*
X12925168Y-12482079D02*
X12925168Y-12501127D01*
X12925168Y-12501127D02*
X12915644Y-12529698D01*
X12915644Y-12529698D02*
X12801358Y-12643984D01*
X12801358Y-12643984D02*
X12925168Y-12643984D01*
X13163263Y-12643984D02*
X13163263Y-12443984D01*
X13248977Y-12643984D02*
X13248977Y-12539222D01*
X13248977Y-12539222D02*
X13239453Y-12520174D01*
X13239453Y-12520174D02*
X13220406Y-12510650D01*
X13220406Y-12510650D02*
X13191834Y-12510650D01*
X13191834Y-12510650D02*
X13172787Y-12520174D01*
X13172787Y-12520174D02*
X13163263Y-12529698D01*
X13372787Y-12643984D02*
X13353739Y-12634460D01*
X13353739Y-12634460D02*
X13344215Y-12624936D01*
X13344215Y-12624936D02*
X13334691Y-12605888D01*
X13334691Y-12605888D02*
X13334691Y-12548746D01*
X13334691Y-12548746D02*
X13344215Y-12529698D01*
X13344215Y-12529698D02*
X13353739Y-12520174D01*
X13353739Y-12520174D02*
X13372787Y-12510650D01*
X13372787Y-12510650D02*
X13401358Y-12510650D01*
X13401358Y-12510650D02*
X13420406Y-12520174D01*
X13420406Y-12520174D02*
X13429930Y-12529698D01*
X13429930Y-12529698D02*
X13439453Y-12548746D01*
X13439453Y-12548746D02*
X13439453Y-12605888D01*
X13439453Y-12605888D02*
X13429930Y-12624936D01*
X13429930Y-12624936D02*
X13420406Y-12634460D01*
X13420406Y-12634460D02*
X13401358Y-12643984D01*
X13401358Y-12643984D02*
X13372787Y-12643984D01*
X13553739Y-12643984D02*
X13534691Y-12634460D01*
X13534691Y-12634460D02*
X13525168Y-12615412D01*
X13525168Y-12615412D02*
X13525168Y-12443984D01*
X13706120Y-12634460D02*
X13687072Y-12643984D01*
X13687072Y-12643984D02*
X13648977Y-12643984D01*
X13648977Y-12643984D02*
X13629930Y-12634460D01*
X13629930Y-12634460D02*
X13620406Y-12615412D01*
X13620406Y-12615412D02*
X13620406Y-12539222D01*
X13620406Y-12539222D02*
X13629930Y-12520174D01*
X13629930Y-12520174D02*
X13648977Y-12510650D01*
X13648977Y-12510650D02*
X13687072Y-12510650D01*
X13687072Y-12510650D02*
X13706120Y-12520174D01*
X13706120Y-12520174D02*
X13715644Y-12539222D01*
X13715644Y-12539222D02*
X13715644Y-12558269D01*
X13715644Y-12558269D02*
X13620406Y-12577317D01*
X13791834Y-12634460D02*
X13810882Y-12643984D01*
X13810882Y-12643984D02*
X13848977Y-12643984D01*
X13848977Y-12643984D02*
X13868025Y-12634460D01*
X13868025Y-12634460D02*
X13877549Y-12615412D01*
X13877549Y-12615412D02*
X13877549Y-12605888D01*
X13877549Y-12605888D02*
X13868025Y-12586841D01*
X13868025Y-12586841D02*
X13848977Y-12577317D01*
X13848977Y-12577317D02*
X13820406Y-12577317D01*
X13820406Y-12577317D02*
X13801358Y-12567793D01*
X13801358Y-12567793D02*
X13791834Y-12548746D01*
X13791834Y-12548746D02*
X13791834Y-12539222D01*
X13791834Y-12539222D02*
X13801358Y-12520174D01*
X13801358Y-12520174D02*
X13820406Y-12510650D01*
X13820406Y-12510650D02*
X13848977Y-12510650D01*
X13848977Y-12510650D02*
X13868025Y-12520174D01*
X13944215Y-12720174D02*
X13953739Y-12710650D01*
X13953739Y-12710650D02*
X13972787Y-12682079D01*
X13972787Y-12682079D02*
X13982311Y-12663031D01*
X13982311Y-12663031D02*
X13991834Y-12634460D01*
X13991834Y-12634460D02*
X14001358Y-12586841D01*
X14001358Y-12586841D02*
X14001358Y-12548746D01*
X14001358Y-12548746D02*
X13991834Y-12501127D01*
X13991834Y-12501127D02*
X13982311Y-12472555D01*
X13982311Y-12472555D02*
X13972787Y-12453508D01*
X13972787Y-12453508D02*
X13953739Y-12424936D01*
X13953739Y-12424936D02*
X13944215Y-12415412D01*
M02*
